{
.appVersion = "3108";
.formatVersion = 3;
axes = (
{
name = Weight;
tag = wght;
}
);
customParameters = (
{
name = "Variable Font Origin";
value = m01;
}
);
date = "2022-02-21 08:08:28 +0000";
familyName = "QLD Beginners";
featurePrefixes = (
{
automatic = 1;
code = "languagesystem DFLT dflt;
";
name = Languagesystems;
}
);
features = (
{
automatic = 1;
code = "feature c2sc;
feature smcp;
feature smcp;
";
tag = aalt;
},
{
automatic = 1;
code = "sub A by a.sc;
sub B by b.sc;
sub C by c.sc;
sub D by d.sc;
sub E by e.sc;
sub F by f.sc;
sub G by g.sc;
sub H by h.sc;
sub I by i.sc;
sub J by j.sc;
sub K by k.sc;
sub L by l.sc;
sub M by m.sc;
sub N by n.sc;
sub O by o.sc;
sub P by p.sc;
sub Q by q.sc;
sub R by r.sc;
sub S by s.sc;
sub T by t.sc;
sub U by u.sc;
sub V by v.sc;
sub W by w.sc;
sub X by x.sc;
sub Y by y.sc;
sub Z by z.sc;
";
tag = c2sc;
},
{
automatic = 1;
code = "sub a by a.sc;
sub b by b.sc;
sub c by c.sc;
sub d by d.sc;
sub e by e.sc;
sub f by f.sc;
sub g by g.sc;
sub h by h.sc;
sub i by i.sc;
sub j by j.sc;
sub k by k.sc;
sub l by l.sc;
sub m by m.sc;
sub n by n.sc;
sub o by o.sc;
sub p by p.sc;
sub q by q.sc;
sub r by r.sc;
sub s by s.sc;
sub t by t.sc;
sub u by u.sc;
sub v by v.sc;
sub w by w.sc;
sub x by x.sc;
sub y by y.sc;
sub z by z.sc;
";
tag = smcp;
}
);
fontMaster = (
{
axesValues = (
300
);
guides = (
{
pos = (632,650);
},
{
pos = (416,175);
},
{
pos = (253,350);
},
{
pos = (127,568);
}
);
id = m01;
metricValues = (
{
over = 4;
pos = 700;
},
{
over = 4;
pos = 650;
},
{
over = 4;
pos = 350;
},
{
over = -4;
},
{
over = -4;
pos = -300;
},
{
over = -16;
pos = 10;
},
{
over = -4;
pos = 396;
}
);
name = "QLD Beginners Regular";
stemValues = (
45,
50
);
userData = {
GSCornerRadius = 15;
GSOffsetHorizontal = 8;
GSOffsetKeepCompatible = 1;
GSOffsetVertical = 7;
};
visible = 1;
},
{
axesValues = (
800
);
guides = (
{
pos = (632,650);
},
{
pos = (416,175);
},
{
pos = (278,350);
},
{
pos = (127,568);
}
);
iconName = Bold_SemiExtended;
id = m002;

glyphs = (
{
glyphname = A;
lastChange = "2022-03-10 05:06:57 +0000";
layers = (
{
layerId = m01;
name = "QBeginners Light";
shapes = (
{
closed = 1;
nodes = (
(371,625,l),
(375,638,o),
(367,650,o),
(348,650,cs),
(326,650,o),
(325,639,o),
(318,625,cs),
(9,32,ls),
(-1,12,o),
(11,0,o),
(26,0,cs),
(46,0,o),
(51,7,o),
(60,25,cs),
(369,619,l)
);
},
{
closed = 1;
nodes = (
(376,304,l),
(371,350,l),
(202,350,l),
(180,304,l)
);
},
{
closed = 1;
nodes = (
(325,613,l),
(375,24,ls),
(376,14,o),
(379,0,o),
(401,0,c),
(419,0,o),
(425,11,o),
(424,26,cs),
(372,635,l)
);
}
);
visible = 1;
width = 479;
},
{
layerId = m002;
name = "QBeginners Light";
shapes = (
{
closed = 1;
nodes = (
(453,604,l),
(458,630,o),
(437,650,o),
(406,650,cs),
(372,650,o),
(364,636,o),
(355,616,c),
(65,60,ls),
(46,24,o),
(72,0,o),
(102,0,cs),
(129,0,o),
(144,8,o),
(157,33,cs),
(448,591,l)
);
},
{
closed = 1;
nodes = (
(455,270,l),
(447,350,l),
(249,350,l),
(206,270,l)
);
},
{
closed = 1;
nodes = (
(362,584,l),
(408,40,ls),
(410,16,o),
(426,0,o),
(457,0,cs),
(485,0,o),
(505,15,o),
(502,46,cs),
(453,619,l)
);
}
);
width = 609;
},
{
associatedMasterId = m002;
attr = {
axisRules = (
{
max = 800;
min = 600;
}
);
};
layerId = "1CEABEFF-FBAF-40E8-9AF7-7F734CF48D60";
name = "26 Feb 22, 19:34";
shapes = (
{
closed = 1;
nodes = (
(129,0,o),
(144,8,o),
(157,33,cs),
(438,591,l),
(452,602,l),
(459,629,o),
(439,650,o),
(406,650,cs),
(372,650,o),
(364,636,o),
(355,616,c),
(65,60,ls),
(46,24,o),
(72,0,o),
(102,0,cs)
);
},
{
closed = 1;
nodes = (
(455,260,l),
(447,340,l),
(249,340,l),
(206,260,l)
);
},
{
closed = 1;
nodes = (
(485,0,o),
(505,15,o),
(502,46,cs),
(453,620,l),
(372,584,l),
(408,40,ls),
(410,16,o),
(426,0,o),
(457,0,cs)
);
}
);
visible = 1;
width = 609;
},
{
associatedMasterId = m01;
attr = {
axisRules = (
{
max = 800;
min = 600;
}
);
};
layerId = "497F4732-A267-4EB1-B5D8-081D17C67FF2";
name = "26 Feb 22, 19:34";
shapes = (
{
closed = 1;
nodes = (
(73,0,o),
(78,7,o),
(87,25,cs),
(396,619,l),
(398,624,l),
(402,638,o),
(394,650,o),
(375,650,cs),
(353,650,o),
(352,639,o),
(345,625,cs),
(36,32,ls),
(26,12,o),
(38,0,o),
(53,0,cs)
);
},
{
closed = 1;
nodes = (
(403,304,l),
(398,350,l),
(229,350,l),
(207,304,l)
);
},
{
closed = 1;
nodes = (
(446,0,o),
(452,11,o),
(451,26,cs),
(399,631,l),
(352,613,l),
(402,24,ls),
(403,14,o),
(406,0,o),
(428,0,c)
);
}
);
width = 538;
}
);
unicode = 65;
},
{
glyphname = B;
lastChange = "2022-03-10 05:04:15 +0000";
layers = (
{
layerId = m01;
shapes = (
{
closed = 1;
nodes = (
(424,304,o),
(481,367,o),
(496,475,cs),
(512,593,o),
(389,650,o),
(174,650,c),
(183,604,l),
(341,604,o),
(458,568,o),
(446,477,cs),
(436,405,o),
(396,350,o),
(139,350,c),
(131,304,l)
);
},
{
closed = 1;
nodes = (
(341,0,o),
(423,35,o),
(438,144,cs),
(455,270,o),
(335,350,o),
(135,350,c),
(128,304,l),
(308,304,o),
(401,239,o),
(389,151,cs),
(377,62,o),
(267,46,o),
(85,46,c),
(60,0,l)
);
},
{
closed = 1;
nodes = (
(199,641,o),
(193,650,o),
(174,650,cs),
(157,650,o),
(149,643,o),
(145,623,cs),
(41,31,ls),
(38,14,o),
(48,0,o),
(65,0,cs),
(79,0,o),
(87,9,o),
(91,29,cs),
(195,619,ls)
);
}
);
width = 490;
},
{
layerId = m002;
shapes = (
{
closed = 1;
nodes = (
(518,277,o),
(584,344,o),
(600,462,cs),
(618,597,o),
(495,650,o),
(238,650,c),
(221,560,l),
(452,560,o),
(508,529,o),
(500,467,cs),
(493,413,o),
(475,358,o),
(231,358,c),
(218,277,l)
);
},
{
closed = 1;
nodes = (
(427,0,o),
(528,26,o),
(545,151,cs),
(564,292,o),
(413,358,o),
(226,358,c),
(212,277,l),
(389,277,o),
(456,241,o),
(446,168,cs),
(438,110,o),
(367,90,o),
(149,90,c),
(134,0,l)
);
},
{
closed = 1;
nodes = (
(297,643,o),
(264,650,o),
(240,650,cs),
(216,650,o),
(195,642,o),
(189,609,cs),
(91,53,ls),
(86,23,o),
(108,0,o),
(138,0,cs),
(161,0,o),
(185,11,o),
(191,44,cs),
(289,599,ls)
);
}
);
width = 650;
}
);
metricLeft = N;
metricRight = O;
unicode = 66;
},
{
glyphname = C;
lastChange = "2022-03-10 05:04:15 +0000";
layers = (
{
layerId = m01;
shapes = (
{
closed = 1;
nodes = (
(277,-4,o),
(353,46,o),
(435,169,cs),
(456,200,o),
(457,206,o),
(457,212,cs),
(457,224,o),
(447,232,o),
(435,232,cs),
(419,232,o),
(411,223,o),
(394,198,cs),
(316,87,o),
(258,46,o),
(196,46,cs),
(133,46,o),
(119,99,o),
(119,137,cs),
(119,210,o),
(139,310,o),
(146,349,cs),
(169,468,o),
(205,600,o),
(442,600,cs),
(505,600,o),
(511,601,o),
(521,607,cs),
(532,613,o),
(534,635,o),
(523,642,cs),
(514,648,o),
(505,650,o),
(443,650,cs),
(170,650,o),
(121,498,o),
(93,338,cs),
(89,318,o),
(69,203,o),
(69,138,cs),
(69,70,o),
(99,-4,o),
(197,-4,cs)
);
}
);
width = 515;
},
{
layerId = m002;
shapes = (
{
closed = 1;
nodes = (
(365,-4,o),
(459,47,o),
(539,166,cs),
(563,201,o),
(564,210,o),
(564,219,cs),
(564,243,o),
(542,259,o),
(518,259,cs),
(495,259,o),
(482,248,o),
(460,218,cs),
(389,115,o),
(335,85,o),
(285,85,cs),
(249,85,o),
(227,113,o),
(227,148,cs),
(227,214,o),
(245,308,o),
(251,343,cs),
(272,454,o),
(313,561,o),
(517,561,cs),
(572,561,o),
(598,563,o),
(612,571,cs),
(638,587,o),
(640,623,o),
(615,641,cs),
(602,650,o),
(574,650,o),
(518,650,cs),
(242,650,o),
(176,494,o),
(149,341,cs),
(145,321,o),
(127,212,o),
(127,149,cs),
(127,80,o),
(166,-4,o),
(279,-4,cs)
);
}
);
width = 661;
}
);
metricLeft = O;
metricRight = N;
unicode = 67;
},
{
glyphname = D;
lastChange = "2022-03-10 05:04:15 +0000";
layers = (
{
layerId = m01;
shapes = (
{
closed = 1;
nodes = (
(127,0,ls),
(319,0,o),
(454,122,o),
(483,344,cs),
(509,543,o),
(395,650,o),
(210,650,cs),
(174,650,l),
(169,604,l),
(214,604,ls),
(367,604,o),
(452,512,o),
(433,351,cs),
(409,149,o),
(289,46,o),
(127,46,cs),
(74,46,l),
(64,0,l)
);
},
{
closed = 1;
nodes = (
(198,637,o),
(196,650,o),
(175,650,cs),
(153,650,o),
(148,639,o),
(145,623,cs),
(40,27,ls),
(37,12,o),
(45,0,o),
(63,0,cs),
(85,0,o),
(89,15,o),
(91,25,cs),
(195,619,ls)
);
}
);
width = 500;
},
{
layerId = m002;
shapes = (
{
closed = 1;
nodes = (
(213,0,ls),
(406,0,o),
(550,129,o),
(580,351,cs),
(603,523,o),
(482,650,o),
(290,650,cs),
(240,650,l),
(232,561,l),
(295,561,ls),
(433,561,o),
(499,473,o),
(483,350,cs),
(460,177,o),
(356,89,o),
(213,89,cs),
(153,89,l),
(135,0,l)
);
},
{
closed = 1;
nodes = (
(296,641,o),
(269,650,o),
(241,650,cs),
(209,650,o),
(194,636,o),
(189,609,cs),
(90,49,ls),
(85,21,o),
(105,0,o),
(137,0,cs),
(164,0,o),
(185,15,o),
(190,41,cs),
(289,600,ls)
);
}
);
width = 649;
}
);
metricLeft = N;
metricRight = O;
unicode = 68;
},
{
glyphname = E;
lastChange = "2022-03-10 05:04:15 +0000";
layers = (
{
layerId = m01;
shapes = (
{
closed = 1;
nodes = (
(198,637,o),
(196,650,o),
(175,650,cs),
(153,650,o),
(148,639,o),
(145,623,c),
(40,27,l),
(37,12,o),
(45,0,o),
(63,0,cs),
(85,0,o),
(89,15,o),
(91,25,c),
(195,619,l)
);
},
{
closed = 1;
nodes = (
(398,0,ls),
(418,0,o),
(424,14,o),
(424,26,cs),
(424,38,o),
(418,50,o),
(398,50,cs),
(72,50,l),
(64,0,l)
);
},
{
closed = 1;
nodes = (
(424,304,ls),
(444,304,o),
(450,315,o),
(450,327,cs),
(450,339,o),
(444,350,o),
(424,350,cs),
(120,350,l),
(112,304,l)
);
},
{
closed = 1;
nodes = (
(506,600,ls),
(526,600,o),
(532,613,o),
(532,625,cs),
(532,637,o),
(526,650,o),
(506,650,cs),
(179,650,l),
(170,600,l)
);
}
);
width = 517;
},
{
layerId = m002;
shapes = (
{
closed = 1;
nodes = (
(296,638,o),
(270,650,o),
(242,650,cs),
(211,650,o),
(194,639,o),
(189,611,cs),
(90,50,ls),
(85,22,o),
(97,0,o),
(127,0,cs),
(159,0,o),
(187,18,o),
(191,40,cs),
(289,597,ls)
);
},
{
closed = 1;
nodes = (
(474,0,ls),
(504,0,o),
(524,16,o),
(524,42,cs),
(524,66,o),
(508,80,o),
(476,80,cs),
(148,80,l),
(134,0,l)
);
},
{
closed = 1;
nodes = (
(492,265,ls),
(524,265,o),
(546,284,o),
(546,308,cs),
(546,334,o),
(527,350,o),
(497,350,cs),
(196,350,l),
(180,265,l)
);
},
{
closed = 1;
nodes = (
(573,555,ls),
(603,555,o),
(624,580,o),
(624,606,cs),
(624,631,o),
(606,650,o),
(575,650,cs),
(249,650,l),
(233,555,l)
);
}
);
width = 653;
}
);
metricLeft = N;
metricRight = N;
unicode = 69;
},
{
glyphname = F;
kernRight = Fvowel;
lastChange = "2022-03-10 05:10:51 +0000";
layers = (
{
layerId = m01;
shapes = (
{
closed = 1;
nodes = (
(198,637,o),
(196,650,o),
(175,650,cs),
(153,650,o),
(148,639,o),
(145,623,cs),
(40,27,ls),
(37,12,o),
(45,0,o),
(63,0,cs),
(85,0,o),
(89,15,o),
(91,25,cs),
(195,619,ls)
);
},
{
closed = 1;
nodes = (
(423,304,ls),
(443,304,o),
(449,315,o),
(449,327,cs),
(449,339,o),
(443,350,o),
(423,350,cs),
(127,350,l),
(120,304,l)
);
},
{
closed = 1;
nodes = (
(506,600,ls),
(526,600,o),
(532,613,o),
(532,625,cs),
(532,637,o),
(526,650,o),
(506,650,cs),
(176,650,l),
(169,600,l)
);
}
);
width = 467;
},
{
layerId = m002;
shapes = (
{
closed = 1;
nodes = (
(294,638,o),
(268,650,o),
(240,650,cs),
(209,650,o),
(194,638,o),
(189,610,cs),
(91,54,ls),
(86,27,o),
(94,0,o),
(126,0,cs),
(164,0,o),
(186,21,o),
(191,51,cs),
(287,597,ls)
);
},
{
closed = 1;
nodes = (
(497,265,ls),
(529,265,o),
(546,284,o),
(546,308,cs),
(546,334,o),
(528,350,o),
(498,350,cs),
(192,350,l),
(177,265,l)
);
},
{
closed = 1;
nodes = (
(570,555,ls),
(600,555,o),
(624,575,o),
(624,604,cs),
(624,632,o),
(606,650,o),
(575,650,cs),
(243,650,l),
(224,555,l)
);
}
);
width = 603;
}
);
metricLeft = N;
metricRight = "=N-50";
unicode = 70;
},
{
glyphname = G;
lastChange = "2022-03-10 05:04:15 +0000";
layers = (
{
layerId = m01;
shapes = (
{
closed = 1;
nodes = (
(434,350,o),
(431,343,o),
(373,255,cs),
(336,199,o),
(233,42,o),
(164,42,cs),
(128,42,o),
(119,89,o),
(119,135,cs),
(119,200,o),
(137,310,o),
(148,364,cs),
(169,468,o),
(212,604,o),
(449,604,cs),
(505,604,ls),
(520,604,o),
(530,614,o),
(530,627,cs),
(530,639,o),
(521,650,o),
(509,650,cs),
(450,650,ls),
(177,650,o),
(121,498,o),
(93,338,cs),
(89,318,o),
(69,203,o),
(69,140,cs),
(69,70,o),
(94,-4,o),
(161,-4,cs),
(255,-4,o),
(354,134,o),
(446,275,c),
(458,350,l)
);
},
{
closed = 1;
nodes = (
(480,340,o),
(476,350,o),
(459,350,c),
(439,350,o),
(429,342,o),
(426,323,cs),
(374,27,ls),
(372,15,o),
(375,1,o),
(395,0,cs),
(418,-1,o),
(423,16,o),
(425,27,cs),
(477,323,ls)
);
}
);
width = 515;
},
{
layerId = m002;
shapes = (
{
closed = 1;
nodes = (
(484,370,o),
(478,361,o),
(420,271,cs),
(385,217,o),
(298,85,o),
(247,85,cs),
(231,85,o),
(225,114,o),
(225,155,cs),
(225,214,o),
(243,304,o),
(252,354,cs),
(269,450,o),
(308,561,o),
(512,561,cs),
(565,561,ls),
(592,561,o),
(613,582,o),
(613,607,cs),
(613,631,o),
(593,650,o),
(568,650,cs),
(513,650,ls),
(237,650,o),
(176,494,o),
(149,341,cs),
(145,321,o),
(127,212,o),
(127,151,cs),
(127,79,o),
(151,-4,o),
(235,-4,cs),
(342,-4,o),
(441,153,o),
(512,265,c),
(522,370,l)
);
},
{
closed = 1;
nodes = (
(568,351,o),
(552,370,o),
(521,370,cs),
(482,370,o),
(469,343,o),
(466,327,cs),
(417,49,ls),
(412,18,o),
(432,0,o),
(466,0,cs),
(501,0,o),
(510,18,o),
(514,42,cs),
(563,320,ls)
);
}
);
width = 642;
}
);
metricLeft = O;
metricRight = N;
unicode = 71;
},
{
glyphname = H;
lastChange = "2022-03-10 05:04:15 +0000";
layers = (
{
layerId = m01;
shapes = (
{
closed = 1;
nodes = (
(198,637,o),
(192,650,o),
(175,650,cs),
(156,650,o),
(148,639,o),
(145,623,cs),
(40,27,ls),
(37,12,o),
(45,0,o),
(63,0,cs),
(85,0,o),
(89,15,o),
(91,25,cs),
(195,619,ls)
);
},
{
closed = 1;
nodes = (
(433,304,l),
(441,350,l),
(139,350,l),
(131,304,l)
);
},
{
closed = 1;
nodes = (
(534,638,o),
(528,650,o),
(508,650,cs),
(490,650,o),
(483,638,o),
(481,628,cs),
(376,27,ls),
(374,15,o),
(376,0,o),
(399,0,cs),
(418,0,o),
(424,13,o),
(426,22,cs),
(531,621,ls)
);
}
);
width = 517;
},
{
layerId = m002;
shapes = (
{
closed = 1;
nodes = (
(294,632,o),
(276,650,o),
(247,650,cs),
(220,650,o),
(194,637,o),
(189,609,cs),
(91,49,ls),
(86,21,o),
(106,0,o),
(138,0,cs),
(172,0,o),
(188,20,o),
(191,40,cs),
(288,597,ls)
);
},
{
closed = 1;
nodes = (
(483,270,l),
(497,350,l),
(225,350,l),
(211,270,l)
);
},
{
closed = 1;
nodes = (
(629,631,o),
(608,650,o),
(577,650,cs),
(549,650,o),
(528,635,o),
(524,613,cs),
(426,49,ls),
(421,20,o),
(438,0,o),
(471,0,cs),
(500,0,o),
(521,17,o),
(525,37,cs),
(623,599,ls)
);
}
);
width = 653;
}
);
metricLeft = N;
metricRight = N;
unicode = 72;
},
{
glyphname = I;
lastChange = "2022-03-10 05:04:15 +0000";
layers = (
{
layerId = m01;
shapes = (
{
closed = 1;
nodes = (
(138,25,l),
(242,619,l),
(191,620,l),
(87,25,l)
);
},
{
closed = 1;
nodes = (
(175,0,o),
(181,11,o),
(181,23,cs),
(181,35,o),
(175,46,o),
(155,46,cs),
(66,46,ls),
(46,46,o),
(40,35,o),
(40,23,cs),
(40,11,o),
(46,0,o),
(66,0,cs),
(155,0,ls)
);
},
{
closed = 1;
nodes = (
(283,604,o),
(289,616,o),
(289,628,cs),
(289,640,o),
(283,650,o),
(263,650,cs),
(174,650,ls),
(154,650,o),
(148,640,o),
(148,628,cs),
(148,616,o),
(154,604,o),
(174,604,cs),
(263,604,ls)
);
}
);
width = 274;
},
{
layerId = m002;
shapes = (
{
closed = 1;
nodes = (
(235,65,l),
(324,584,l),
(223,584,l),
(134,65,l)
);
},
{
closed = 1;
nodes = (
(256,0,o),
(267,15,o),
(271,39,cs),
(275,63,o),
(262,78,o),
(237,78,cs),
(139,78,ls),
(107,78,o),
(92,63,o),
(88,39,cs),
(84,15,o),
(100,0,o),
(125,0,cs),
(223,0,ls)
);
},
{
closed = 1;
nodes = (
(355,570,o),
(369,588,o),
(373,612,cs),
(377,636,o),
(360,650,o),
(337,650,cs),
(239,650,ls),
(208,650,o),
(194,636,o),
(190,612,cs),
(186,588,o),
(202,570,o),
(225,570,cs),
(323,570,ls)
);
}
);
width = 400;
}
);
metricLeft = N;
metricRight = N;
unicode = 73;
},
{
glyphname = J;
lastChange = "2022-03-10 05:11:34 +0000";
layers = (
{
layerId = m01;
shapes = (
{
closed = 1;
nodes = (
(401,621,l),
(344,301,ls),
(332,232,o),
(323,161,o),
(294,113,cs),
(276,82,o),
(250,59,o),
(209,54,cs),
(182,51,o),
(89,46,o),
(65,46,cs),
(53,46,o),
(40,38,o),
(40,24,cs),
(40,9,o),
(53,0,o),
(65,0,cs),
(96,0,o),
(186,5,o),
(205,7,cs),
(275,16,o),
(312,46,o),
(337,86,cs),
(371,140,o),
(379,211,o),
(394,296,cs),
(452,621,l)
);
},
{
closed = 1;
nodes = (
(599,600,o),
(605,613,o),
(605,625,cs),
(605,637,o),
(599,650,o),
(579,650,cs),
(275,650,ls),
(255,650,o),
(249,637,o),
(249,625,cs),
(249,613,o),
(255,600,o),
(275,600,cs),
(579,600,ls)
);
}
);
width = 590;
},
{
layerId = m002;
shapes = (
{
closed = 1;
nodes = (
(426,573,l),
(379,306,ls),
(368,241,o),
(357,178,o),
(332,137,cs),
(317,111,o),
(302,99,o),
(271,95,cs),
(247,92,o),
(160,90,o),
(139,90,cs),
(115,90,o),
(90,71,o),
(90,45,cs),
(90,18,o),
(115,0,o),
(139,0,cs),
(169,0,o),
(255,2,o),
(273,4,cs),
(349,14,o),
(390,48,o),
(416,88,cs),
(450,145,o),
(464,215,o),
(478,294,cs),
(528,573,l)
);
},
{
closed = 1;
nodes = (
(659,555,o),
(677,576,o),
(677,602,cs),
(677,630,o),
(658,650,o),
(628,650,cs),
(340,650,ls),
(309,650,o),
(290,629,o),
(290,602,cs),
(290,574,o),
(309,555,o),
(339,555,cs),
(627,555,ls)
);
}
);
width = 707;
}
);
metricLeft = N;
metricRight = N;
unicode = 74;
},
{
glyphname = K;
lastChange = "2022-03-10 05:07:31 +0000";
layers = (
{
layerId = m01;
shapes = (
{
closed = 1;
nodes = (
(514,599,ls),
(526,609,o),
(531,619,o),
(533,628,cs),
(534,640,o),
(526,650,o),
(513,650,cs),
(505,651,o),
(494,647,o),
(482,637,cs),
(145,360,l),
(145,348,l),
(203,343,l)
);
},
{
closed = 1;
nodes = (
(145,356,l),
(146,345,l),
(373,19,ls),
(380,9,o),
(389,0,o),
(402,0,cs),
(412,0,o),
(422,6,o),
(425,17,cs),
(427,24,o),
(425,32,o),
(418,42,cs),
(201,354,l)
);
},
{
closed = 1;
nodes = (
(199,637,o),
(195,650,o),
(176,650,cs),
(156,650,o),
(149,639,o),
(146,623,cs),
(41,32,ls),
(38,17,o),
(46,0,o),
(64,0,cs),
(85,0,o),
(90,18,o),
(92,31,cs),
(196,619,ls)
);
}
);
width = 467;
},
{
layerId = m002;
shapes = (
{
closed = 1;
nodes = (
(599,560,ls),
(613,572,o),
(622,587,o),
(624,602,cs),
(627,625,o),
(609,650,o),
(580,650,cs),
(564,650,o),
(544,644,o),
(528,631,cs),
(207,368,l),
(207,326,l),
(303,318,l)
);
},
{
closed = 1;
nodes = (
(207,382,l),
(206,338,l),
(424,25,ls),
(435,9,o),
(454,0,o),
(473,0,cs),
(493,0,o),
(516,10,o),
(520,31,cs),
(523,44,o),
(522,60,o),
(512,74,cs),
(307,368,l)
);
},
{
closed = 1;
nodes = (
(296,636,o),
(269,650,o),
(245,650,cs),
(219,650,o),
(195,637,o),
(190,609,cs),
(91,54,ls),
(86,24,o),
(107,0,o),
(139,0,cs),
(170,0,o),
(186,19,o),
(191,45,cs),
(289,597,ls)
);
}
);
width = 603;
}
);
metricLeft = N;
metricRight = "=N-50";
unicode = 75;
},
{
glyphname = L;
lastChange = "2022-03-10 05:11:56 +0000";
layers = (
{
layerId = m01;
shapes = (
{
closed = 1;
nodes = (
(198,637,o),
(195,650,o),
(175,650,cs),
(155,650,o),
(148,639,o),
(145,623,cs),
(40,27,ls),
(37,12,o),
(45,0,o),
(63,0,cs),
(85,0,o),
(88,15,o),
(90,25,cs),
(195,619,ls)
);
},
{
closed = 1;
nodes = (
(400,0,ls),
(418,0,o),
(426,14,o),
(426,26,cs),
(426,38,o),
(418,50,o),
(400,50,cs),
(68,50,l),
(68,0,l)
);
}
);
width = 467;
},
{
layerId = m002;
shapes = (
{
closed = 1;
nodes = (
(296,639,o),
(272,650,o),
(247,650,cs),
(218,650,o),
(194,637,o),
(189,609,cs),
(90,49,ls),
(85,21,o),
(103,0,o),
(133,0,cs),
(167,0,o),
(186,18,o),
(190,39,cs),
(289,597,ls)
);
},
{
closed = 1;
nodes = (
(479,0,ls),
(509,0,o),
(529,22,o),
(529,46,cs),
(529,70,o),
(509,90,o),
(479,90,cs),
(150,90,l),
(134,0,l)
);
}
);
width = 606;
}
);
metricLeft = N;
metricRight = K;
unicode = 76;
},
{
glyphname = M;
lastChange = "2022-03-10 05:12:20 +0000";
layers = (
{
layerId = m01;
shapes = (
{
closed = 1;
nodes = (
(348,650,l),
(330,650,o),
(324,639,o),
(317,625,cs),
(11,38,ls),
(5,26,o),
(5,16,o),
(9,10,cs),
(13,4,o),
(20,0,o),
(28,0,cs),
(39,0,o),
(51,7,o),
(61,25,cs),
(357,593,l)
);
},
{
closed = 1;
nodes = (
(373,631,ls),
(372,639,o),
(365,650,o),
(347,650,c),
(327,584,l),
(372,24,ls),
(373,14,o),
(377,0,o),
(401,0,c),
(419,61,l)
);
},
{
closed = 1;
nodes = (
(419,0,o),
(427,17,o),
(431,24,cs),
(724,586,l),
(714,650,l),
(699,650,o),
(693,635,o),
(687,624,cs),
(394,61,l),
(399,0,l)
);
},
{
closed = 1;
nodes = (
(745,638,o),
(742,650,o),
(713,650,c),
(697,608,l),
(745,24,ls),
(746,14,o),
(751,0,o),
(772,0,c),
(788,0,o),
(796,11,o),
(795,26,cs),
(746,622,ls)
);
}
);
width = 850;
},
{
layerId = m002;
shapes = (
{
closed = 1;
nodes = (
(402,650,l),
(374,650,o),
(365,638,o),
(354,617,cs),
(65,64,ls),
(56,47,o),
(57,34,o),
(64,21,cs),
(71,8,o),
(89,0,o),
(104,0,cs),
(122,0,o),
(149,9,o),
(162,33,cs),
(434,555,l)
);
},
{
closed = 1;
nodes = (
(456,606,ls),
(454,635,o),
(442,650,o),
(401,650,c),
(359,559,l),
(403,40,ls),
(405,18,o),
(422,0,o),
(453,0,c),
(499,91,l)
);
},
{
closed = 1;
nodes = (
(492,0,o),
(502,19,o),
(508,31,cs),
(788,566,l),
(762,650,l),
(731,650,o),
(714,638,o),
(702,616,cs),
(423,86,l),
(452,0,l)
);
},
{
closed = 1;
nodes = (
(802,635,o),
(796,650,o),
(760,650,c),
(707,562,l),
(750,40,ls),
(752,19,o),
(773,0,o),
(804,0,cs),
(833,0,o),
(852,20,o),
(850,46,cs),
(804,606,ls)
);
}
);
width = 956;
}
);
metricLeft = A;
metricRight = A;
unicode = 77;
},
{
glyphname = N;
lastChange = "2022-03-10 05:03:39 +0000";
layers = (
{
layerId = m01;
shapes = (
{
closed = 1;
nodes = (
(205,630,ls),
(202,639,o),
(192,650,o),
(174,650,c),
(167,589,l),
(375,18,ls),
(379,8,o),
(388,0,o),
(402,0,c),
(408,67,l)
);
},
{
closed = 1;
nodes = (
(175,650,l),
(153,650,o),
(148,639,o),
(145,623,cs),
(40,27,ls),
(37,12,o),
(45,0,o),
(63,0,cs),
(85,0,o),
(89,16,o),
(91,28,cs),
(194,612,l)
);
},
{
closed = 1;
nodes = (
(423,0,o),
(425,15,o),
(427,25,cs),
(531,619,ls),
(534,637,o),
(531,650,o),
(512,650,cs),
(492,650,o),
(485,639,o),
(482,623,cs),
(380,48,l),
(401,0,l)
);
}
);
width = 517;
},
{
layerId = m002;
shapes = (
{
closed = 1;
nodes = (
(283,620,ls),
(275,641,o),
(256,650,o),
(230,650,c),
(200,569,l),
(420,28,ls),
(427,10,o),
(443,0,o),
(469,0,c),
(481,132,l)
);
},
{
closed = 1;
nodes = (
(243,650,l),
(211,650,o),
(194,636,o),
(189,609,cs),
(91,49,ls),
(86,21,o),
(105,0,o),
(134,0,cs),
(167,0,o),
(187,19,o),
(191,42,cs),
(288,592,l)
);
},
{
closed = 1;
nodes = (
(502,0,o),
(511,19,o),
(515,40,cs),
(613,597,ls),
(619,629,o),
(603,653,o),
(570,653,cs),
(542,653,o),
(519,637,o),
(514,609,cs),
(425,105,l),
(468,0,l)
);
}
);
width = 643;
}
);
unicode = 78;
},
{
glyphname = O;
lastChange = "2022-03-10 05:04:03 +0000";
layers = (
{
layerId = m01;
shapes = (
{
closed = 1;
nodes = (
(323,-4,o),
(473,256,o),
(497,438,cs),
(512,551,o),
(481,650,o),
(339,650,cs),
(216,650,o),
(151,557,o),
(109,409,cs),
(98,369,o),
(89,322,o),
(85,278,cs),
(73,143,o),
(85,-4,o),
(178,-4,cs)
);
},
{
closed = 1;
nodes = (
(124,42,o),
(127,178,o),
(134,268,cs),
(138,310,o),
(148,355,o),
(157,388,cs),
(195,526,o),
(237,604,o),
(334,604,cs),
(467,604,o),
(456,495,o),
(447,432,cs),
(425,270,o),
(266,42,o),
(177,42,cs)
);
}
);
width = 497;
},
{
layerId = m002;
shapes = (
{
closed = 1;
nodes = (
(407,-4,o),
(577,251,o),
(602,429,cs),
(619,548,o),
(558,652,o),
(413,652,cs),
(275,652,o),
(207,555,o),
(165,410,cs),
(154,370,o),
(145,325,o),
(142,283,cs),
(130,150,o),
(135,-4,o),
(255,-4,cs)
);
},
{
closed = 1;
nodes = (
(224,86,o),
(234,187,o),
(241,269,cs),
(244,308,o),
(252,348,o),
(260,378,cs),
(295,505,o),
(321,562,o),
(408,562,cs),
(509,562,o),
(509,484,o),
(501,427,cs),
(481,281,o),
(330,86,o),
(261,86,cs)
);
}
);
width = 657;
}
);
unicode = 79;
},
{
glyphname = P;
kernRight = Pvowel;
lastChange = "2022-03-10 05:13:04 +0000";
layers = (
{
layerId = m01;
shapes = (
{
closed = 1;
nodes = (
(323,304,o),
(484,321,o),
(506,476,cs),
(523,597,o),
(393,650,o),
(179,650,c),
(182,604,l),
(386,604,o),
(466,557,o),
(456,481,cs),
(441,367,o),
(294,350,o),
(140,350,c),
(133,304,l)
);
},
{
closed = 1;
nodes = (
(198,637,o),
(196,650,o),
(175,650,cs),
(153,650,o),
(148,639,o),
(145,623,cs),
(40,27,ls),
(37,12,o),
(45,-4,o),
(63,-4,cs),
(85,-4,o),
(88,15,o),
(90,25,cs),
(195,619,ls)
);
}
);
width = 453;
},
{
layerId = m002;
shapes = (
{
closed = 1;
nodes = (
(382,274,o),
(575,289,o),
(600,467,cs),
(619,602,o),
(487,656,o),
(238,652,c),
(264,562,l),
(484,565,o),
(511,535,o),
(503,472,cs),
(492,382,o),
(353,364,o),
(230,363,c),
(218,273,l)
);
},
{
closed = 1;
nodes = (
(293,639,o),
(267,652,o),
(242,652,cs),
(212,652,o),
(194,637,o),
(189,609,cs),
(90,48,ls),
(85,21,o),
(104,-6,o),
(137,-6,cs),
(171,-6,o),
(184,17,o),
(188,39,cs),
(286,597,ls)
);
}
);
width = 603;
}
);
metricLeft = N;
metricRight = "=O-46";
unicode = 80;
},
{
glyphname = Q;
lastChange = "2022-03-10 05:04:15 +0000";
layers = (
{
layerId = m01;
shapes = (
{
closed = 1;
nodes = (
(248,165,o),
(230,172,o),
(216,160,cs),
(204,151,o),
(206,139,o),
(217,123,cs),
(321,-29,ls),
(331,-44,o),
(347,-52,o),
(360,-45,cs),
(374,-37,o),
(374,-18,o),
(366,-6,cs),
(258,151,ls)
);
},
{
closed = 1;
nodes = (
(323,-4,o),
(473,256,o),
(497,438,cs),
(512,551,o),
(481,650,o),
(339,650,cs),
(216,650,o),
(151,557,o),
(109,409,cs),
(98,369,o),
(89,322,o),
(85,278,cs),
(73,143,o),
(85,-4,o),
(178,-4,cs)
);
},
{
closed = 1;
nodes = (
(124,42,o),
(127,178,o),
(134,268,cs),
(138,310,o),
(148,355,o),
(157,388,cs),
(195,526,o),
(237,604,o),
(334,604,cs),
(467,604,o),
(456,495,o),
(447,432,cs),
(425,270,o),
(266,42,o),
(177,42,cs)
);
}
);
width = 497;
},
{
layerId = m002;
shapes = (
{
closed = 1;
nodes = (
(343,199,o),
(308,204,o),
(290,189,cs),
(271,174,o),
(265,149,o),
(283,122,cs),
(381,-21,ls),
(399,-47,o),
(431,-55,o),
(452,-42,cs),
(478,-28,o),
(480,1,o),
(464,25,cs),
(364,172,l)
);
},
{
closed = 1;
nodes = (
(407,-4,o),
(571,251,o),
(602,429,cs),
(623,548,o),
(558,652,o),
(413,652,cs),
(275,652,o),
(207,555,o),
(165,410,cs),
(154,370,o),
(145,325,o),
(142,283,cs),
(130,150,o),
(135,-4,o),
(255,-4,cs)
);
},
{
closed = 1;
nodes = (
(224,86,o),
(234,187,o),
(241,269,cs),
(244,308,o),
(252,348,o),
(260,378,cs),
(295,505,o),
(321,562,o),
(408,562,cs),
(509,562,o),
(511,484,o),
(501,427,cs),
(475,281,o),
(330,86,o),
(261,86,cs)
);
}
);
width = 657;
}
);
metricLeft = O;
metricRight = O;
unicode = 81;
},
{
glyphname = R;
lastChange = "2022-03-10 05:13:14 +0000";
layers = (
{
layerId = m01;
shapes = (
{
closed = 1;
nodes = (
(316,304,o),
(484,321,o),
(506,476,cs),
(523,597,o),
(396,650,o),
(179,650,c),
(179,604,l),
(372,604,o),
(467,560,o),
(456,481,cs),
(440,368,o),
(292,350,o),
(133,350,c),
(126,304,l)
);
},
{
closed = 1;
nodes = (
(119,328,l),
(376,18,ls),
(386,5,o),
(393,0,o),
(401,0,cs),
(411,0,o),
(421,7,o),
(424,15,cs),
(427,23,o),
(426,35,o),
(420,43,cs),
(190,321,l)
);
},
{
closed = 1;
nodes = (
(198,637,o),
(196,650,o),
(175,650,cs),
(153,650,o),
(148,639,o),
(145,623,cs),
(41,33,ls),
(38,16,o),
(45,0,o),
(63,0,cs),
(85,0,o),
(89,16,o),
(92,31,cs),
(195,619,ls)
);
}
);
width = 467;
},
{
layerId = m002;
shapes = (
{
closed = 1;
nodes = (
(379,273,o),
(568,289,o),
(600,467,cs),
(624,602,o),
(487,650,o),
(240,650,c),
(264,560,l),
(456,563,o),
(514,533,o),
(503,470,cs),
(488,382,o),
(355,363,o),
(223,363,c),
(219,273,l)
);
},
{
closed = 1;
nodes = (
(182,318,l),
(426,23,ls),
(443,3,o),
(465,0,o),
(478,0,cs),
(497,0,o),
(518,11,o),
(523,29,cs),
(527,42,o),
(528,57,o),
(518,69,cs),
(311,318,l)
);
},
{
closed = 1;
nodes = (
(295,638,o),
(272,650,o),
(244,650,cs),
(213,650,o),
(194,637,o),
(189,609,cs),
(91,54,ls),
(86,24,o),
(98,0,o),
(130,0,cs),
(161,0,o),
(187,23,o),
(192,53,cs),
(288,597,ls)
);
}
);
width = 603;
}
);
metricLeft = N;
metricRight = K;
unicode = 82;
},
{
glyphname = S;
lastChange = "2022-03-10 05:04:15 +0000";
layers = (
{
layerId = m01;
shapes = (
{
closed = 1;
nodes = (
(260,0,o),
(409,50,o),
(409,184,cs),
(409,269,o),
(364,318,o),
(293,368,cs),
(219,419,o),
(174,452,o),
(174,497,cs),
(174,555,o),
(262,600,o),
(339,600,cs),
(469,600,ls),
(482,600,o),
(492,613,o),
(492,626,cs),
(492,650,o),
(472,650,o),
(468,650,cs),
(340,650,ls),
(211,650,o),
(123,576,o),
(123,493,cs),
(123,422,o),
(181,385,o),
(260,329,cs),
(331,278,o),
(359,241,o),
(359,183,cs),
(359,83,o),
(227,50,o),
(162,50,cs),
(62,50,ls),
(49,50,o),
(38,37,o),
(38,24,cs),
(38,0,o),
(60,0,o),
(62,0,cs),
(162,0,ls)
);
}
);
width = 459;
},
{
layerId = m002;
shapes = (
{
closed = 1;
nodes = (
(347,0,o),
(519,50,o),
(519,192,cs),
(519,283,o),
(454,335,o),
(390,379,cs),
(316,431,o),
(278,457,o),
(278,487,cs),
(278,527,o),
(348,559,o),
(415,559,cs),
(548,559,ls),
(574,559,o),
(595,580,o),
(595,605,cs),
(595,641,o),
(565,650,o),
(547,650,cs),
(416,650,ls),
(282,650,o),
(178,575,o),
(178,483,cs),
(178,403,o),
(252,363,o),
(328,309,cs),
(391,264,o),
(419,235,o),
(419,192,cs),
(419,115,o),
(306,91,o),
(248,91,cs),
(146,91,ls),
(120,91,o),
(98,69,o),
(98,44,cs),
(98,8,o),
(132,0,o),
(146,0,cs),
(248,0,ls)
);
}
);
width = 620;
}
);
metricLeft = O;
metricRight = O;
unicode = 83;
},
{
glyphname = T;
kernRight = Tvowel;
lastChange = "2022-03-10 05:16:52 +0000";
layers = (
{
layerId = m01;
shapes = (
{
closed = 1;
nodes = (
(364,619,l),
(261,27,ls),
(258,12,o),
(266,0,o),
(284,0,cs),
(306,0,o),
(309,15,o),
(311,25,cs),
(415,619,l)
);
},
{
closed = 1;
nodes = (
(634,600,o),
(640,613,o),
(640,625,cs),
(640,637,o),
(634,650,o),
(614,650,cs),
(170,650,ls),
(150,650,o),
(144,637,o),
(144,625,cs),
(144,613,o),
(150,600,o),
(170,600,cs),
(614,600,ls)
);
}
);
width = 517;
},
{
layerId = m002;
shapes = (
{
closed = 1;
nodes = (
(404,580,l),
(310,49,ls),
(305,21,o),
(326,-2,o),
(357,-2,cs),
(390,-2,o),
(406,18,o),
(410,39,cs),
(505,580,l)
);
},
{
closed = 1;
nodes = (
(703,563,o),
(721,583,o),
(721,607,cs),
(721,633,o),
(701,653,o),
(671,653,cs),
(247,653,ls),
(217,653,o),
(197,633,o),
(197,607,cs),
(197,583,o),
(215,563,o),
(247,563,cs),
(671,563,ls)
);
}
);
width = 746;
}
);
metricLeft = O;
unicode = 84;
},
{
glyphname = U;
lastChange = "2022-03-10 05:04:15 +0000";
layers = (
{
layerId = m01;
shapes = (
{
closed = 1;
nodes = (
(497,520,l),
(469,520,l),
(466,509,l),
(444,415,o),
(401,350,o),
(383,320,cs),
(320,217,o),
(220,42,o),
(142,42,cs),
(95,42,o),
(105,116,o),
(117,180,cs),
(197,622,ls),
(200,636,o),
(191,649,o),
(176,650,cs),
(160,650,o),
(149,636,o),
(146,620,cs),
(67,183,ls),
(43,52,o),
(75,-4,o),
(134,-4,cs),
(249,-4,o),
(349,160,o),
(439,321,c),
(470,381,l)
);
},
{
closed = 1;
nodes = (
(535,639,o),
(528,650,o),
(508,650,cs),
(490,650,o),
(483,638,o),
(481,626,cs),
(376,27,ls),
(373,8,o),
(385,-1,o),
(399,-1,cs),
(411,-1,o),
(423,7,o),
(426,22,cs),
(532,624,ls)
);
}
);
width = 517;
},
{
layerId = m002;
shapes = (
{
closed = 1;
nodes = (
(596,543,l),
(518,543,l),
(510,510,ls),
(489,423,o),
(457,369,o),
(440,342,cs),
(396,270,o),
(291,86,o),
(222,86,cs),
(203,86,o),
(205,125,o),
(216,185,cs),
(290,600,ls),
(295,629,o),
(274,650,o),
(245,650,cs),
(213,651,o),
(193,624,o),
(190,606,cs),
(116,195,ls),
(91,57,o),
(133,-4,o),
(206,-4,cs),
(324,-4,o),
(403,108,o),
(489,247,c),
(562,385,l)
);
},
{
closed = 1;
nodes = (
(629,630,o),
(611,650,o),
(577,650,cs),
(549,650,o),
(528,635,o),
(524,612,cs),
(426,49,ls),
(420,16,o),
(444,0,o),
(472,0,cs),
(495,0,o),
(521,12,o),
(525,37,cs),
(624,602,ls)
);
}
);
width = 653;
}
);
metricLeft = N;
metricRight = N;
unicode = 85;
},
{
glyphname = V;
kernRight = Wvowel;
lastChange = "2022-03-10 05:07:07 +0000";
layers = (
{
layerId = m01;
shapes = (
{
closed = 1;
nodes = (
(192,0,o),
(196,11,o),
(203,25,cs),
(496,618,ls),
(506,638,o),
(494,650,o),
(479,650,cs),
(460,650,o),
(453,642,o),
(444,625,cs),
(154,39,l),
(173,0,l)
);
},
{
closed = 1;
nodes = (
(163,626,ls),
(162,636,o),
(158,650,o),
(136,650,c),
(118,650,o),
(112,639,o),
(113,624,cs),
(146,28,ls),
(147,15,o),
(155,0,o),
(174,0,c),
(195,37,l)
);
}
);
width = 448;
},
{
layerId = m002;
shapes = (
{
closed = 1;
nodes = (
(270,-2,o),
(282,15,o),
(292,34,cs),
(568,591,ls),
(585,625,o),
(563,650,o),
(531,650,cs),
(502,650,o),
(483,638,o),
(473,618,cs),
(197,59,l),
(241,-2,l)
);
},
{
closed = 1;
nodes = (
(256,610,ls),
(255,633,o),
(237,650,o),
(205,650,cs),
(176,650,o),
(157,634,o),
(159,604,cs),
(191,44,ls),
(192,19,o),
(212,-1,o),
(242,-2,c),
(286,64,l)
);
}
);
width = 579;
}
);
metricLeft = A;
unicode = 86;
},
{
glyphname = W;
lastChange = "2022-03-10 05:07:18 +0000";
layers = (
{
background = {
shapes = (
{
closed = 1;
nodes = (
(534,0,o),
(538,11,o),
(545,25,cs),
(838,618,ls),
(848,638,o),
(836,650,o),
(821,650,cs),
(802,650,o),
(794,642,o),
(785,625,cs),
(496,39,l),
(515,0,l)
);
},
{
closed = 1;
nodes = (
(505,626,ls),
(504,636,o),
(500,650,o),
(478,650,c),
(460,650,o),
(454,639,o),
(455,624,cs),
(488,28,ls),
(489,15,o),
(497,0,o),
(516,0,c),
(537,37,l)
);
}
);
};
layerId = m01;
shapes = (
{
closed = 1;
nodes = (
(533,0,o),
(538,11,o),
(545,25,cs),
(837,618,ls),
(842,627,o),
(843,635,o),
(840,640,cs),
(836,647,o),
(828,650,o),
(821,650,cs),
(813,650,o),
(807,649,o),
(803,646,cs),
(793,640,o),
(789,632,o),
(785,625,cs),
(492,31,l),
(515,0,l)
);
},
{
closed = 1;
nodes = (
(163,626,ls),
(162,636,o),
(158,650,o),
(136,650,c),
(118,650,o),
(112,639,o),
(113,624,cs),
(146,28,ls),
(147,12,o),
(158,0,o),
(179,0,c),
(195,37,l)
);
},
{
closed = 1;
nodes = (
(192,0,o),
(199,15,o),
(205,26,cs),
(496,619,l),
(474,650,l),
(458,650,o),
(448,633,o),
(444,626,cs),
(156,40,l),
(178,0,l)
);
},
{
closed = 1;
nodes = (
(504,626,ls),
(503,636,o),
(498,650,o),
(473,650,c),
(455,617,l),
(489,19,ls),
(490,6,o),
(498,0,o),
(516,0,c),
(539,30,l)
);
}
);
width = 789;
},
{
layerId = m002;
shapes = (
{
closed = 1;
nodes = (
(633,0,o),
(644,12,o),
(655,33,cs),
(947,591,ls),
(954,604,o),
(953,616,o),
(947,628,cs),
(941,644,o),
(923,650,o),
(908,650,cs),
(894,650,o),
(881,646,o),
(873,640,cs),
(863,633,o),
(856,625,o),
(851,615,cs),
(568,74,l),
(605,0,l)
);
},
{
closed = 1;
nodes = (
(256,610,ls),
(254,633,o),
(238,650,o),
(206,650,cs),
(177,650,o),
(157,634,o),
(159,604,cs),
(205,44,ls),
(207,15,o),
(226,0,o),
(260,0,c),
(299,75,l)
);
},
{
closed = 1;
nodes = (
(290,0,o),
(297,14,o),
(307,34,cs),
(592,578,l),
(553,650,l),
(519,650,o),
(510,631,o),
(504,619,cs),
(221,75,l),
(259,0,l)
);
},
{
closed = 1;
nodes = (
(606,610,ls),
(604,635,o),
(587,650,o),
(552,650,c),
(511,582,l),
(556,32,ls),
(557,15,o),
(585,0,o),
(604,0,c),
(650,74,l)
);
}
);
width = 958;
}
);
metricLeft = A;
metricRight = V;
unicode = 87;
},
{
glyphname = X;
lastChange = "2022-03-10 05:04:15 +0000";
layers = (
{
layerId = m01;
shapes = (
{
closed = 1;
nodes = (
(533,624,o),
(531,638,o),
(522,645,cs),
(512,653,o),
(493,652,o),
(482,637,cs),
(45,38,ls),
(36,26,o),
(38,13,o),
(47,6,cs),
(58,-3,o),
(77,-4,o),
(88,11,cs),
(522,609,ls)
);
},
{
closed = 1;
nodes = (
(192,650,o),
(173,654,o),
(161,649,cs),
(149,645,o),
(144,631,o),
(151,613,cs),
(373,19,ls),
(380,0,o),
(400,-3,o),
(413,3,cs),
(423,8,o),
(429,20,o),
(423,35,cs),
(199,631,ls)
);
}
);
width = 487;
},
{
layerId = m002;
shapes = (
{
closed = 1;
nodes = (
(600,602,o),
(596,623,o),
(578,639,cs),
(560,655,o),
(524,656,o),
(506,631,cs),
(101,69,ls),
(86,48,o),
(86,29,o),
(104,13,cs),
(123,-3,o),
(163,-8,o),
(180,16,cs),
(583,578,ls)
);
},
{
closed = 1;
nodes = (
(273,651,o),
(241,654,o),
(218,647,cs),
(192,637,o),
(183,617,o),
(195,586,cs),
(403,28,ls),
(414,-1,o),
(452,-6,o),
(475,6,cs),
(496,17,o),
(506,36,o),
(496,61,cs),
(284,623,ls)
);
}
);
width = 598;
}
);
metricLeft = N;
metricRight = "=N-30";
unicode = 88;
},
{
glyphname = Y;
kernRight = Yvowel;
lastChange = "2022-03-10 05:17:03 +0000";
layers = (
{
layerId = m01;
shapes = (
{
closed = 1;
nodes = (
(523,609,ls),
(528,616,o),
(531,623,o),
(531,629,cs),
(531,635,o),
(528,641,o),
(522,645,cs),
(515,650,o),
(508,651,o),
(502,650,cs),
(495,648,o),
(487,643,o),
(482,637,cs),
(258,333,l),
(289,291,l)
);
},
{
closed = 1;
nodes = (
(266,350,l),
(209,27,ls),
(206,12,o),
(214,0,o),
(232,0,cs),
(254,0,o),
(258,15,o),
(260,25,cs),
(317,350,l)
);
},
{
closed = 1;
nodes = (
(302,349,l),
(196,630,ls),
(193,638,o),
(186,645,o),
(179,648,cs),
(174,651,o),
(167,651,o),
(159,648,cs),
(151,645,o),
(146,640,o),
(145,634,cs),
(144,628,o),
(146,621,o),
(149,613,cs),
(265,307,l)
);
}
);
width = 407;
},
{
layerId = m002;
shapes = (
{
closed = 1;
nodes = (
(602,578,ls),
(610,589,o),
(614,599,o),
(614,611,cs),
(614,623,o),
(608,634,o),
(597,642,cs),
(585,653,o),
(567,653,o),
(557,653,c),
(546,650,o),
(531,642,o),
(524,632,cs),
(316,350,l),
(360,254,l)
);
},
{
closed = 1;
nodes = (
(315,371,l),
(259,49,ls),
(254,21,o),
(275,-2,o),
(307,-2,cs),
(341,-2,o),
(355,19,o),
(359,40,cs),
(416,371,l)
);
},
{
closed = 1;
nodes = (
(401,340,l),
(293,621,ls),
(289,632,o),
(280,642,o),
(267,648,cs),
(258,653,o),
(240,654,o),
(227,649,cs),
(212,643,o),
(201,632,o),
(198,619,cs),
(196,609,o),
(200,599,o),
(204,588,cs),
(331,266,l)
);
}
);
width = 638;
}
);
metricLeft = T;
unicode = 89;
},
{
glyphname = Z;
lastChange = "2022-03-10 05:04:15 +0000";
layers = (
{
layerId = m01;
shapes = (
{
closed = 1;
nodes = (
(532,619,o),
(534,630,o),
(530,638,cs),
(525,645,o),
(514,650,o),
(503,650,cs),
(496,650,o),
(489,644,o),
(484,638,cs),
(46,39,ls),
(41,32,o),
(37,22,o),
(42,13,cs),
(46,6,o),
(56,0,o),
(73,0,cs),
(79,0,o),
(85,7,o),
(88,11,cs),
(524,608,ls)
);
},
{
closed = 1;
nodes = (
(399,0,ls),
(419,0,o),
(425,13,o),
(425,25,cs),
(425,37,o),
(419,50,o),
(399,50,cs),
(66,50,l),
(66,0,l)
);
},
{
closed = 1;
nodes = (
(507,650,l),
(172,650,ls),
(152,650,o),
(146,637,o),
(146,625,cs),
(146,613,o),
(152,600,o),
(172,600,cs),
(507,600,l)
);
}
);
width = 516;
},
{
layerId = m002;
shapes = (
{
closed = 1;
nodes = (
(610,595,o),
(612,614,o),
(604,629,cs),
(596,644,o),
(579,653,o),
(555,653,cs),
(541,653,o),
(522,644,o),
(514,633,cs),
(98,70,ls),
(88,57,o),
(86,39,o),
(94,23,cs),
(100,11,o),
(118,0,o),
(147,0,cs),
(163,0,o),
(178,10,o),
(183,17,cs),
(596,577,ls)
);
},
{
closed = 1;
nodes = (
(457,0,ls),
(489,0,o),
(507,19,o),
(507,43,cs),
(507,69,o),
(487,90,o),
(457,90,cs),
(144,90,l),
(144,0,l)
);
},
{
closed = 1;
nodes = (
(557,653,l),
(241,653,ls),
(211,653,o),
(191,633,o),
(191,607,cs),
(191,583,o),
(209,563,o),
(241,563,cs),
(557,563,l)
);
}
);
width = 637;
}
);
metricLeft = N;
metricRight = N;
unicode = 90;
},
{
glyphname = a;
lastChange = "2022-03-10 05:02:53 +0000";
layers = (
{
layerId = m01;
shapes = (
{
closed = 1;
nodes = (
(314,301,l),
(286,254,o),
(253,205,o),
(212,153,cs),
(151,77,o),
(114,47,o),
(95,47,cs),
(81,47,o),
(81,62,o),
(81,78,cs),
(81,116,o),
(99,206,o),
(125,245,cs),
(155,290,o),
(206,300,o),
(240,300,cs),
(247,300,o),
(315,300,o),
(334,300,c),
(334,350,l),
(322,350,o),
(260,350,o),
(240,350,cs),
(183,350,o),
(124,333,o),
(86,276,cs),
(54,228,o),
(31,131,o),
(31,73,cs),
(31,22,o),
(51,-4,o),
(84,-4,cs),
(142,-4,o),
(194,50,o),
(254,126,cs),
(284,163,o),
(340,236,o),
(356,291,cs),
(359,301,l)
);
},
{
closed = 1;
nodes = (
(377,329,o),
(377,337,o),
(374,342,cs),
(371,347,o),
(367,350,o),
(360,350,cs),
(314,350,l),
(314,261,l),
(272,23,ls),
(271,15,o),
(272,0,o),
(294,0,cs),
(320,0,o),
(322,18,o),
(323,23,cs),
(375,316,ls)
);
}
);
width = 394;
},
{
layerId = m002;
shapes = (
{
closed = 1;
nodes = (
(372,308,l),
(346,262,o),
(319,215,o),
(281,167,cs),
(228,101,o),
(202,84,o),
(197,84,cs),
(192,84,o),
(191,97,o),
(191,102,cs),
(191,134,o),
(206,194,o),
(225,224,cs),
(247,257,o),
(280,263,o),
(306,263,cs),
(316,263,o),
(353,263,o),
(392,263,c),
(392,350,l),
(361,350,o),
(323,350,o),
(306,350,cs),
(250,350,o),
(188,333,o),
(149,276,cs),
(118,228,o),
(97,139,o),
(97,85,cs),
(97,22,o),
(115,-4,o),
(154,-4,cs),
(218,-4,o),
(284,51,o),
(338,118,cs),
(365,152,o),
(426,257,o),
(432,272,c),
(440,308,l)
);
},
{
closed = 1;
nodes = (
(452,310,o),
(451,320,o),
(448,329,cs),
(442,342,o),
(427,350,o),
(411,350,cs),
(346,350,l),
(346,252,l),
(309,44,ls),
(305,21,o),
(321,0,o),
(353,0,cs),
(389,0,o),
(401,22,o),
(404,37,cs),
(449,295,ls)
);
}
);
width = 536;
}
);
metricLeft = n;
metricRight = n;
unicode = 97;
},
{
glyphname = b;
lastChange = "2022-03-10 05:02:53 +0000";
layers = (
{
layerId = m01;
shapes = (
{
closed = 1;
nodes = (
(71,0,o),
(133,0,o),
(153,0,cs),
(210,0,o),
(269,17,o),
(307,74,cs),
(339,122,o),
(362,219,o),
(362,277,cs),
(362,328,o),
(342,354,o),
(309,354,cs),
(251,354,o),
(197,300,o),
(160,253,cs),
(121,204,o),
(84,152,o),
(59,106,c),
(59,49,l),
(79,49,l),
(107,96,o),
(140,145,o),
(195,214,cs),
(242,273,o),
(279,303,o),
(294,303,cs),
(312,303,o),
(313,289,o),
(313,273,cs),
(313,243,o),
(294,144,o),
(268,105,cs),
(238,60,o),
(192,50,o),
(153,50,cs),
(146,50,o),
(78,50,o),
(70,50,c),
(59,50,l),
(59,0,l)
);
},
{
closed = 1;
nodes = (
(79,89,l),
(173,621,ls),
(176,640,o),
(166,650,o),
(154,650,cs),
(141,650,o),
(127,641,o),
(123,621,cs),
(17,22,ls),
(15,10,o),
(21,0,o),
(33,0,c),
(79,0,l)
);
}
);
width = 383;
},
{
layerId = m002;
shapes = (
{
closed = 1;
nodes = (
(176,0,o),
(230,0,o),
(248,0,cs),
(303,0,o),
(367,16,o),
(404,74,cs),
(435,122,o),
(457,211,o),
(457,265,cs),
(457,331,o),
(429,354,o),
(388,354,cs),
(327,354,o),
(265,291,o),
(234,254,cs),
(196,208,o),
(162,153,o),
(140,112,c),
(140,42,l),
(181,42,l),
(207,88,o),
(243,148,o),
(290,203,cs),
(330,250,o),
(350,266,o),
(357,266,cs),
(362,266,o),
(363,255,o),
(363,246,cs),
(363,222,o),
(350,155,o),
(328,125,cs),
(305,94,o),
(279,87,o),
(248,87,cs),
(242,87,o),
(182,87,o),
(175,87,cs),
(140,87,l),
(140,0,l)
);
},
{
closed = 1;
nodes = (
(196,101,l),
(284,599,ls),
(290,632,o),
(265,650,o),
(238,650,cs),
(218,650,o),
(190,640,o),
(184,607,cs),
(85,44,ls),
(80,18,o),
(98,0,o),
(125,0,cs),
(193,0,l)
);
}
);
width = 527;
}
);
metricLeft = n;
metricRight = o;
unicode = 98;
},
{
glyphname = c;
lastChange = "2022-03-10 05:02:53 +0000";
layers = (
{
layerId = m01;
shapes = (
{
closed = 1;
nodes = (
(118,-4,o),
(171,32,o),
(214,84,cs),
(226,99,o),
(240,117,o),
(251,132,cs),
(257,141,o),
(259,149,o),
(259,155,cs),
(259,168,o),
(247,175,o),
(238,175,cs),
(229,175,o),
(219,171,o),
(211,161,cs),
(202,150,o),
(190,134,o),
(180,121,cs),
(145,77,o),
(112,47,o),
(92,47,cs),
(81,47,o),
(75,59,o),
(75,78,cs),
(75,116,o),
(93,206,o),
(119,245,cs),
(149,290,o),
(200,300,o),
(269,300,cs),
(282,300,o),
(291,314,o),
(291,326,cs),
(291,337,o),
(282,350,o),
(269,350,cs),
(177,350,o),
(118,333,o),
(80,276,cs),
(48,228,o),
(25,131,o),
(25,73,cs),
(25,22,o),
(48,-4,o),
(80,-4,cs)
);
}
);
width = 299;
},
{
layerId = m002;
shapes = (
{
closed = 1;
nodes = (
(194,-4,o),
(247,32,o),
(287,81,cs),
(300,96,o),
(313,114,o),
(322,126,cs),
(329,137,o),
(333,148,o),
(333,157,cs),
(333,182,o),
(310,197,o),
(289,197,cs),
(276,197,o),
(260,189,o),
(248,173,cs),
(239,162,o),
(230,150,o),
(222,139,cs),
(193,102,o),
(181,85,o),
(171,85,cs),
(163,85,o),
(163,99,o),
(163,104,cs),
(163,136,o),
(180,197,o),
(200,227,cs),
(221,260,o),
(259,265,o),
(317,265,cs),
(342,265,o),
(361,285,o),
(361,308,cs),
(361,329,o),
(342,350,o),
(317,350,cs),
(231,350,o),
(168,334,o),
(129,276,cs),
(98,228,o),
(77,139,o),
(77,85,cs),
(77,23,o),
(112,-4,o),
(150,-4,cs)
);
}
);
width = 420;
}
);
metricLeft = o;
metricRight = o;
unicode = 99;
},
{
glyphname = d;
lastChange = "2022-03-10 05:02:53 +0000";
layers = (
{
layerId = m01;
shapes = (
{
closed = 1;
nodes = (
(363,59,o),
(355,48,o),
(348,48,cs),
(328,48,o),
(336,124,o),
(337,132,cs),
(424,623,ls),
(427,642,o),
(417,650,o),
(404,650,cs),
(391,650,o),
(376,640,o),
(373,623,cs),
(288,146,ls),
(275,78,o),
(279,0,o),
(349,0,cs),
(382,0,o),
(395,17,o),
(416,50,cs),
(435,79,o),
(438,86,o),
(438,94,cs),
(438,109,o),
(426,116,o),
(415,116,cs),
(403,116,o),
(395,108,o),
(392,104,cs),
(377,81,ls)
);
},
{
closed = 1;
nodes = (
(308,300,l),
(279,253,o),
(246,204,o),
(208,156,cs),
(146,76,o),
(108,46,o),
(89,46,cs),
(75,46,o),
(75,61,o),
(75,77,cs),
(75,115,o),
(93,205,o),
(119,244,cs),
(149,289,o),
(200,299,o),
(234,299,cs),
(241,299,o),
(309,299,o),
(317,299,c),
(328,299,l),
(328,349,l),
(316,349,o),
(254,349,o),
(234,349,cs),
(177,349,o),
(118,332,o),
(80,275,cs),
(48,227,o),
(25,130,o),
(25,72,cs),
(25,21,o),
(45,-4,o),
(78,-4,cs),
(136,-4,o),
(188,49,o),
(236,109,cs),
(278,162,o),
(329,235,o),
(349,289,cs),
(353,300,l)
);
}
);
width = 473;
},
{
layerId = m002;
shapes = (
{
closed = 1;
nodes = (
(439,104,o),
(432,99,o),
(424,99,cs),
(416,99,o),
(414,113,o),
(420,146,cs),
(501,602,ls),
(507,635,o),
(485,650,o),
(457,650,cs),
(434,650,o),
(405,637,o),
(400,606,cs),
(335,238,ls),
(331,217,o),
(296,0,o),
(415,0,cs),
(455,0,o),
(481,21,o),
(511,57,cs),
(531,81,o),
(532,100,o),
(532,113,cs),
(532,140,o),
(512,153,o),
(490,153,cs),
(478,153,o),
(466,142,o),
(457,129,cs),
(442,108,ls)
);
},
{
closed = 1;
nodes = (
(352,307,l),
(324,261,o),
(292,205,o),
(257,162,cs),
(214,109,o),
(185,84,o),
(177,84,cs),
(171,84,o),
(171,101,o),
(171,106,cs),
(171,132,o),
(186,197,o),
(206,226,cs),
(228,258,o),
(262,263,o),
(294,263,cs),
(300,263,o),
(360,263,o),
(367,263,cs),
(401,263,l),
(402,350,l),
(379,350,o),
(314,350,o),
(295,350,cs),
(230,350,o),
(169,334,o),
(130,277,cs),
(99,229,o),
(76,138,o),
(76,84,cs),
(76,21,o),
(101,-4,o),
(140,-4,cs),
(203,-4,o),
(262,49,o),
(312,110,cs),
(350,156,o),
(411,239,o),
(420,269,cs),
(431,307,l)
);
}
);
width = 595;
}
);
metricLeft = o;
metricRight = v;
unicode = 100;
},
{
glyphname = e;
lastChange = "2022-03-10 05:02:53 +0000";
layers = (
{
layerId = m01;
shapes = (
{
closed = 1;
nodes = (
(71,115,o),
(133,147,o),
(171,168,cs),
(211,191,o),
(275,230,o),
(286,291,cs),
(293,332,o),
(251,354,o),
(200,354,cs),
(181,354,o),
(132,350,o),
(88,284,cs),
(59,240,o),
(32,167,o),
(28,107,cs),
(21,19,o),
(67,-4,o),
(115,-4,cs),
(188,-4,o),
(226,50,o),
(237,64,cs),
(259,93,o),
(254,106,o),
(244,113,cs),
(233,121,o),
(218,122,o),
(199,97,cs),
(188,84,o),
(162,45,o),
(116,45,cs),
(84,45,o),
(77,64,o),
(79,98,cs),
(82,142,o),
(100,216,o),
(129,259,cs),
(153,294,o),
(181,303,o),
(206,303,cs),
(224,303,o),
(237,296,o),
(235,288,cs),
(231,267,o),
(192,239,o),
(143,210,cs),
(118,196,o),
(90,181,o),
(68,169,c),
(56,108,l)
);
}
);
width = 301;
},
{
layerId = m002;
shapes = (
{
closed = 1;
nodes = (
(182,104,o),
(238,132,o),
(270,151,cs),
(306,171,o),
(365,216,o),
(375,271,cs),
(384,321,o),
(334,354,o),
(272,354,cs),
(247,354,o),
(178,354,o),
(132,286,cs),
(105,243,o),
(83,173,o),
(79,117,cs),
(72,23,o),
(142,-5,o),
(194,-5,cs),
(272,-5,o),
(321,47,o),
(329,58,cs),
(354,90,o),
(342,117,o),
(328,128,cs),
(308,142,o),
(282,135,o),
(261,110,cs),
(249,96,o),
(226,80,o),
(201,80,cs),
(180,80,o),
(178,102,o),
(178,118,cs),
(178,155,o),
(186,205,o),
(208,239,cs),
(225,265,o),
(236,274,o),
(247,280,cs),
(257,285,o),
(279,291,o),
(285,276,cs),
(291,261,o),
(268,240,o),
(227,216,cs),
(200,200,o),
(154,175,o),
(136,166,c),
(123,77,l)
);
}
);
width = 440;
}
);
metricLeft = o;
metricRight = o;
unicode = 101;
},
{
glyphname = f;
kernRight = fvowels;
lastChange = "2022-03-10 05:15:03 +0000";
layers = (
{
layerId = m01;
shapes = (
{
closed = 1;
nodes = (
(236,558,o),
(265,600,o),
(298,600,cs),
(392,600,ls),
(409,600,o),
(417,614,o),
(417,625,cs),
(417,635,o),
(409,650,o),
(392,650,cs),
(298,650,ls),
(248,650,o),
(196,616,o),
(180,527,cs),
(92,28,ls),
(90,16,o),
(99,0,o),
(117,0,cs),
(134,0,o),
(141,15,o),
(143,27,cs),
(229,518,ls)
);
},
{
closed = 1;
nodes = (
(289,305,o),
(295,316,o),
(295,328,cs),
(295,340,o),
(289,350,o),
(269,350,cs),
(75,350,ls),
(55,350,o),
(49,340,o),
(49,328,cs),
(49,316,o),
(55,305,o),
(75,305,cs),
(269,305,ls)
);
}
);
width = 318;
},
{
layerId = m002;
shapes = (
{
closed = 1;
nodes = (
(307,534,o),
(323,560,o),
(340,560,cs),
(428,560,ls),
(457,560,o),
(477,584,o),
(477,607,cs),
(477,629,o),
(457,650,o),
(428,650,cs),
(340,650,ls),
(282,650,o),
(220,614,o),
(203,519,cs),
(120,49,ls),
(116,26,o),
(136,-2,o),
(170,-2,cs),
(197,-2,o),
(216,18,o),
(220,42,cs),
(301,502,ls)
);
},
{
closed = 1;
nodes = (
(340,265,o),
(359,281,o),
(359,307,cs),
(359,331,o),
(342,350,o),
(310,350,cs),
(127,350,ls),
(96,350,o),
(78,331,o),
(78,307,cs),
(78,283,o),
(96,265,o),
(127,265,cs),
(310,265,ls)
);
}
);
width = 437;
}
);
metricLeft = "=n/2";
unicode = 102;
},
{
glyphname = g;
lastChange = "2022-03-10 05:02:53 +0000";
layers = (
{
layerId = m01;
shapes = (
{
closed = 1;
nodes = (
(374,343,o),
(363,350,o),
(346,350,c),
(321,350,l),
(297,198,l),
(262,1,ls),
(250,-67,o),
(243,-138,o),
(214,-185,cs),
(196,-215,o),
(169,-236,o),
(123,-241,cs),
(100,-244,o),
(8,-250,o),
(-7,-250,cs),
(-28,-250,o),
(-41,-262,o),
(-41,-276,cs),
(-41,-291,o),
(-28,-300,o),
(-3,-300,cs),
(15,-300,o),
(104,-295,o),
(137,-290,cs),
(191,-282,o),
(231,-254,o),
(256,-212,cs),
(289,-159,o),
(298,-83,o),
(313,1,cs),
(371,326,ls)
);
},
{
closed = 1;
nodes = (
(308,301,l),
(279,254,o),
(246,205,o),
(208,157,cs),
(146,77,o),
(108,47,o),
(89,47,cs),
(75,47,o),
(75,62,o),
(75,78,cs),
(75,116,o),
(93,206,o),
(119,245,cs),
(149,290,o),
(200,300,o),
(234,300,cs),
(241,300,o),
(309,300,o),
(317,300,c),
(328,300,l),
(328,302,o),
(328,347,o),
(328,350,c),
(316,350,o),
(254,350,o),
(234,350,cs),
(177,350,o),
(118,333,o),
(80,276,cs),
(48,228,o),
(25,131,o),
(25,73,cs),
(25,22,o),
(45,-4,o),
(78,-4,cs),
(140,-4,o),
(188,50,o),
(222,93,cs),
(278,163,o),
(326,240,o),
(349,292,cs),
(353,301,l)
);
}
);
width = 388;
},
{
layerId = m002;
shapes = (
{
closed = 1;
nodes = (
(459,335,o),
(433,350,o),
(406,350,cs),
(361,350,l),
(335,192,l),
(302,6,ls),
(291,-58,o),
(285,-122,o),
(261,-161,cs),
(245,-187,o),
(229,-199,o),
(194,-203,cs),
(172,-206,o),
(83,-209,o),
(70,-209,cs),
(38,-209,o),
(13,-229,o),
(13,-255,cs),
(13,-279,o),
(34,-300,o),
(74,-300,cs),
(92,-300,o),
(182,-294,o),
(214,-289,cs),
(272,-281,o),
(317,-253,o),
(343,-210,cs),
(377,-154,o),
(386,-80,o),
(400,-2,cs),
(455,305,l)
);
},
{
closed = 1;
nodes = (
(355,308,l),
(327,262,o),
(301,217,o),
(267,173,cs),
(231,127,o),
(188,84,o),
(178,84,cs),
(173,84,o),
(172,99,o),
(172,108,cs),
(172,123,o),
(187,197,o),
(209,228,cs),
(231,260,o),
(263,263,o),
(300,263,cs),
(306,263,o),
(366,263,o),
(373,263,cs),
(407,263,l),
(407,288,o),
(407,328,o),
(407,350,c),
(384,350,o),
(319,350,o),
(300,350,cs),
(244,350,o),
(172,336,o),
(133,279,cs),
(102,231,o),
(78,151,o),
(78,85,cs),
(78,22,o),
(111,-4,o),
(150,-4,cs),
(218,-4,o),
(270,54,o),
(300,92,cs),
(351,156,o),
(389,228,o),
(416,271,cs),
(439,308,l)
);
}
);
width = 540;
}
);
metricLeft = o;
metricRight = n;
unicode = 103;
},
{
glyphname = h;
lastChange = "2022-03-10 05:02:53 +0000";
layers = (
{
layerId = m01;
shapes = (
{
closed = 1;
nodes = (
(177,641,o),
(166,650,o),
(153,650,cs),
(140,650,o),
(126,641,o),
(123,623,cs),
(17,23,ls),
(14,8,o),
(25,0,o),
(38,0,cs),
(51,0,o),
(65,7,o),
(68,23,cs),
(174,623,ls)
);
},
{
closed = 1;
nodes = (
(373,291,o),
(362,354,o),
(305,354,cs),
(211,354,o),
(115,185,o),
(57,98,c),
(65,14,l),
(134,129,o),
(246,305,o),
(297,305,cs),
(322,305,o),
(316,261,o),
(311,234,cs),
(272,23,ls),
(271,15,o),
(272,0,o),
(294,0,c),
(320,0,o),
(322,18,o),
(323,23,cs),
(362,234,ls)
);
}
);
width = 396;
},
{
layerId = m002;
shapes = (
{
closed = 1;
nodes = (
(291,633,o),
(266,653,o),
(239,653,cs),
(215,653,o),
(190,637,o),
(185,609,cs),
(86,45,ls),
(81,17,o),
(103,-2,o),
(130,-2,cs),
(154,-2,o),
(181,11,o),
(186,37,cs),
(285,601,ls)
);
},
{
closed = 1;
nodes = (
(475,287,o),
(451,355,o),
(383,355,cs),
(279,355,o),
(209,243,o),
(160,171,c),
(185,33,l),
(241,141,o),
(338,271,o),
(360,271,cs),
(372,271,o),
(368,256,o),
(363,231,cs),
(329,45,ls),
(325,21,o),
(341,-1,o),
(373,-1,cs),
(409,-1,o),
(426,22,o),
(429,37,cs),
(463,223,ls)
);
}
);
width = 563;
}
);
metricLeft = n;
metricRight = n;
unicode = 104;
},
{
glyphname = i;
lastChange = "2022-03-10 05:02:53 +0000";
layers = (
{
layerId = m01;
shapes = (
{
closed = 1;
nodes = (
(127,340,o),
(115,350,o),
(103,350,cs),
(90,350,o),
(75,341,o),
(72,323,cs),
(20,28,ls),
(17,9,o),
(28,0,o),
(41,0,cs),
(53,0,o),
(68,10,o),
(71,28,cs),
(123,320,ls)
);
},
{
closed = 1;
nodes = (
(138,441,o),
(151,454,o),
(151,468,cs),
(151,483,o),
(137,494,o),
(123,494,cs),
(107,494,o),
(96,481,o),
(96,468,cs),
(96,454,o),
(108,441,o),
(123,441,cs)
);
}
);
width = 144;
},
{
layerId = m002;
shapes = (
{
closed = 1;
nodes = (
(237,327,o),
(210,350,o),
(185,350,cs),
(161,350,o),
(136,332,o),
(131,305,cs),
(86,49,ls),
(81,19,o),
(104,0,o),
(130,0,cs),
(152,0,o),
(181,10,o),
(186,37,cs),
(231,294,ls)
);
},
{
closed = 1;
nodes = (
(240,417,o),
(263,439,o),
(263,466,cs),
(263,495,o),
(239,515,o),
(213,515,cs),
(186,515,o),
(165,493,o),
(165,466,cs),
(165,439,o),
(187,417,o),
(213,417,cs)
);
}
);
width = 320;
}
);
metricLeft = n;
metricRight = n;
unicode = 105;
},
{
glyphname = j;
kernLeft = ij;
lastChange = "2022-03-10 05:02:53 +0000";
layers = (
{
layerId = m01;
shapes = (
{
closed = 1;
nodes = (
(176,338,o),
(163,350,o),
(149,350,cs),
(137,350,o),
(123,341,o),
(119,320,cs),
(64,-3,ls),
(52,-71,o),
(44,-142,o),
(16,-189,cs),
(-2,-219,o),
(-29,-240,o),
(-77,-246,cs),
(-98,-248,o),
(-181,-250,o),
(-200,-250,cs),
(-226,-250,o),
(-239,-263,o),
(-239,-277,cs),
(-239,-292,o),
(-225,-300,o),
(-201,-300,cs),
(-182,-300,o),
(-94,-299,o),
(-61,-294,cs),
(-7,-286,o),
(32,-257,o),
(57,-217,cs),
(91,-163,o),
(100,-87,o),
(115,-3,cs),
(172,317,ls)
);
},
{
closed = 1;
nodes = (
(187,440,o),
(200,453,o),
(200,468,cs),
(200,484,o),
(187,495,o),
(172,495,cs),
(157,495,o),
(145,484,o),
(145,468,cs),
(145,453,o),
(157,440,o),
(172,440,cs)
);
}
);
width = 193;
},
{
layerId = m002;
shapes = (
{
closed = 1;
nodes = (
(237,330,o),
(211,350,o),
(184,350,cs),
(162,350,o),
(136,337,o),
(131,306,cs),
(79,3,ls),
(68,-62,o),
(61,-126,o),
(38,-165,cs),
(22,-190,o),
(6,-203,o),
(-31,-208,cs),
(-50,-210,o),
(-127,-209,o),
(-144,-209,cs),
(-181,-209,o),
(-206,-231,o),
(-206,-257,cs),
(-206,-282,o),
(-184,-300,o),
(-145,-300,cs),
(-126,-300,o),
(-41,-300,o),
(-9,-295,cs),
(49,-285,o),
(93,-256,o),
(119,-215,cs),
(154,-158,o),
(163,-83,o),
(177,-5,cs),
(231,295,ls)
);
},
{
closed = 1;
nodes = (
(230,417,o),
(254,439,o),
(254,467,cs),
(254,496,o),
(230,516,o),
(204,516,cs),
(178,516,o),
(155,496,o),
(155,467,cs),
(155,439,o),
(178,417,o),
(204,417,cs)
);
}
);
width = 318;
}
);
metricRight = n;
unicode = 106;
},
{
glyphname = k;
lastChange = "2022-03-10 05:02:53 +0000";
layers = (
{
layerId = m01;
shapes = (
{
closed = 1;
nodes = (
(178,642,o),
(166,650,o),
(150,650,cs),
(135,650,o),
(126,639,o),
(123,622,cs),
(18,26,ls),
(15,10,o),
(25,0,o),
(38,0,cs),
(54,0,o),
(66,7,o),
(69,26,cs),
(174,621,ls)
);
},
{
closed = 1;
nodes = (
(151,174,l),
(260,18,ls),
(267,8,o),
(277,-1,o),
(290,-1,cs),
(300,-1,o),
(310,5,o),
(313,16,cs),
(315,23,o),
(314,31,o),
(307,41,cs),
(215,174,l)
);
},
{
closed = 1;
nodes = (
(81,122,o),
(119,170,o),
(148,210,cs),
(165,234,o),
(189,258,o),
(207,273,cs),
(227,289,o),
(254,304,o),
(267,304,cs),
(283,304,o),
(280,279,o),
(278,271,cs),
(273,245,o),
(255,236,o),
(229,219,cs),
(209,205,o),
(180,189,o),
(151,174,c),
(208,146,l),
(227,158,o),
(245,169,o),
(262,181,cs),
(295,205,o),
(320,228,o),
(328,272,cs),
(334,310,o),
(326,354,o),
(277,354,cs),
(246,354,o),
(209,337,o),
(177,312,cs),
(150,291,o),
(95,225,o),
(78,201,c),
(50,39,l)
);
}
);
width = 419;
},
{
layerId = m002;
shapes = (
{
closed = 1;
nodes = (
(288,633,o),
(265,653,o),
(235,653,cs),
(212,653,o),
(189,638,o),
(184,608,cs),
(86,48,ls),
(81,19,o),
(102,-2,o),
(129,-2,cs),
(156,-2,o),
(179,11,o),
(184,40,cs),
(282,599,ls)
);
},
{
closed = 1;
nodes = (
(236,181,l),
(343,25,ls),
(354,9,o),
(372,-2,o),
(390,-2,cs),
(410,-2,o),
(430,11,o),
(434,31,c),
(438,43,o),
(436,55,o),
(426,69,cs),
(350,181,l)
);
},
{
closed = 1;
nodes = (
(194,120,o),
(219,185,o),
(246,218,cs),
(263,238,o),
(281,257,o),
(295,268,cs),
(312,283,o),
(331,288,o),
(344,284,cs),
(351,282,o),
(354,272,o),
(353,266,cs),
(351,256,o),
(336,240,o),
(311,224,cs),
(294,213,o),
(271,198,o),
(236,181,c),
(364,152,l),
(367,154,o),
(353,160,o),
(357,163,cs),
(386,185,o),
(433,221,o),
(442,267,cs),
(450,316,o),
(413,354,o),
(351,354,cs),
(308,354,o),
(267,347,o),
(237,324,cs),
(206,300,o),
(164,249,o),
(153,238,c),
(184,98,l)
);
}
);
width = 547;
}
);
metricLeft = n;
unicode = 107;
},
{
glyphname = l;
lastChange = "2022-03-10 05:02:53 +0000";
layers = (
{
layerId = m01;
shapes = (
{
closed = 1;
nodes = (
(176,640,o),
(163,650,o),
(149,650,cs),
(138,650,o),
(127,644,o),
(124,629,cs),
(18,27,ls),
(15,9,o),
(28,0,o),
(42,0,cs),
(53,0,o),
(64,7,o),
(67,22,cs),
(173,624,ls)
);
}
);
width = 138;
},
{
layerId = m002;
shapes = (
{
closed = 1;
nodes = (
(289,631,o),
(262,650,o),
(234,650,cs),
(212,650,o),
(190,640,o),
(185,612,cs),
(86,50,ls),
(80,15,o),
(109,0,o),
(132,0,cs),
(154,0,o),
(180,15,o),
(185,44,cs),
(283,599,ls)
);
}
);
width = 316;
}
);
metricLeft = n;
metricRight = n;
unicode = 108;
},
{
glyphname = m;
lastChange = "2022-03-10 05:02:53 +0000";
layers = (
{
layerId = m01;
shapes = (
{
closed = 1;
nodes = (
(599,291,o),
(591,354,o),
(530,354,cs),
(439,354,o),
(369,211,o),
(311,124,c),
(304,11,l),
(373,126,o),
(472,305,o),
(523,305,cs),
(548,305,o),
(542,261,o),
(537,234,cs),
(498,23,ls),
(497,15,o),
(498,0,o),
(520,0,c),
(546,0,o),
(548,18,o),
(549,23,cs),
(588,234,ls)
);
},
{
closed = 1;
nodes = (
(124,340,o),
(120,350,o),
(103,350,c),
(84,350,o),
(73,342,o),
(70,323,cs),
(17,23,ls),
(16,15,o),
(17,0,o),
(39,0,cs),
(65,0,o),
(67,18,o),
(68,23,cs),
(121,323,ls)
);
},
{
closed = 1;
nodes = (
(358,290,o),
(350,353,o),
(289,353,cs),
(197,353,o),
(128,208,o),
(70,121,c),
(63,10,l),
(132,125,o),
(231,304,o),
(282,304,cs),
(307,304,o),
(301,260,o),
(296,233,cs),
(257,22,ls),
(256,14,o),
(257,0,o),
(279,0,c),
(305,0,o),
(307,17,o),
(308,22,cs),
(347,233,ls)
);
}
);
width = 622;
},
{
layerId = m002;
shapes = (
{
closed = 1;
nodes = (
(703,289,o),
(691,354,o),
(619,354,cs),
(518,354,o),
(465,270,o),
(415,197,c),
(411,30,l),
(445,77,o),
(562,276,o),
(587,276,cs),
(598,276,o),
(595,256,o),
(591,231,cs),
(558,45,ls),
(554,21,o),
(571,0,o),
(603,0,cs),
(639,0,o),
(655,22,o),
(658,37,cs),
(691,223,ls)
);
},
{
closed = 1;
nodes = (
(237,331,o),
(220,350,o),
(191,350,cs),
(162,350,o),
(140,337,o),
(132,309,c),
(85,43,ls),
(80,15,o),
(98,0,o),
(127,0,cs),
(164,0,o),
(182,23,o),
(185,37,cs),
(232,302,ls)
);
},
{
closed = 1;
nodes = (
(461,288,o),
(439,354,o),
(367,354,cs),
(265,354,o),
(220,256,o),
(170,196,c),
(177,30,l),
(202,74,o),
(314,276,o),
(353,276,cs),
(361,276,o),
(359,255,o),
(354,230,cs),
(320,45,ls),
(315,20,o),
(332,0,o),
(364,0,cs),
(400,0,o),
(412,21,o),
(415,37,cs),
(449,222,ls)
);
}
);
width = 791;
}
);
metricLeft = n;
metricRight = n;
unicode = 109;
},
{
glyphname = n;
lastChange = "2022-03-10 05:02:28 +0000";
layers = (
{
layerId = m01;
shapes = (
{
closed = 1;
nodes = (
(373,291,o),
(365,354,o),
(305,354,cs),
(213,354,o),
(128,206,o),
(70,119,c),
(63,11,l),
(132,126,o),
(246,305,o),
(297,305,cs),
(322,305,o),
(316,261,o),
(311,234,cs),
(272,23,ls),
(271,15,o),
(272,0,o),
(294,0,c),
(320,0,o),
(322,18,o),
(323,23,cs),
(362,234,ls)
);
},
{
closed = 1;
nodes = (
(123,340,o),
(120,350,o),
(103,350,c),
(83,350,o),
(74,341,o),
(70,323,cs),
(17,23,ls),
(16,15,o),
(17,0,o),
(39,0,cs),
(65,0,o),
(67,18,o),
(68,23,cs),
(121,323,ls)
);
}
);
width = 396;
},
{
layerId = m002;
shapes = (
{
closed = 1;
nodes = (
(461,288,o),
(439,354,o),
(368,354,cs),
(267,354,o),
(228,268,o),
(170,196,c),
(177,30,l),
(212,91,o),
(315,276,o),
(353,276,cs),
(361,276,o),
(359,256,o),
(354,231,cs),
(320,44,ls),
(316,20,o),
(331,0,o),
(364,0,cs),
(401,0,o),
(412,20,o),
(416,42,cs),
(449,222,ls)
);
},
{
closed = 1;
nodes = (
(237,332,o),
(221,350,o),
(189,350,cs),
(147,350,o),
(134,320,o),
(132,308,cs),
(85,44,ls),
(81,20,o),
(92,0,o),
(126,0,cs),
(163,0,o),
(182,22,o),
(185,37,cs),
(232,302,ls)
);
}
);
width = 549;
}
);
unicode = 110;
},
{
glyphname = o;
lastChange = "2022-03-10 05:02:10 +0000";
layers = (
{
layerId = m01;
shapes = (
{
closed = 1;
nodes = (
(197,-4,o),
(282,142,o),
(303,260,cs),
(313,319,o),
(268,351,o),
(198,351,cs),
(139,351,o),
(100,314,o),
(76,271,cs),
(58,237,o),
(29,170,o),
(29,95,cs),
(29,20,o),
(54,-4,o),
(94,-4,cs)
);
},
{
closed = 1;
nodes = (
(79,46,o),
(79,77,o),
(79,105,cs),
(79,152,o),
(98,203,o),
(122,251,cs),
(143,287,o),
(165,301,o),
(195,301,cs),
(235,301,o),
(260,287,o),
(253,247,cs),
(242,187,o),
(163,46,o),
(106,46,cs)
);
}
);
width = 322;
},
{
layerId = m002;
shapes = (
{
closed = 1;
nodes = (
(285,-4,o),
(378,152,o),
(395,250,cs),
(406,314,o),
(344,352,o),
(268,352,cs),
(203,352,o),
(152,312,o),
(129,270,cs),
(112,238,o),
(79,174,o),
(79,104,cs),
(79,24,o),
(127,-4,o),
(177,-4,cs)
);
},
{
closed = 1;
nodes = (
(181,83,o),
(178,94,o),
(178,113,cs),
(178,151,o),
(199,189,o),
(220,230,cs),
(236,257,o),
(250,264,o),
(266,264,cs),
(286,264,o),
(298,255,o),
(295,236,cs),
(286,185,o),
(223,83,o),
(187,83,cs)
);
}
);
width = 464;
}
);
unicode = 111;
},
{
glyphname = p;
kernLeft = qp;
lastChange = "2022-03-10 05:02:53 +0000";
layers = (
{
layerId = m01;
shapes = (
{
closed = 1;
nodes = (
(125,342,o),
(113,350,o),
(100,350,cs),
(88,350,o),
(74,342,o),
(71,327,cs),
(-36,-276,ls),
(-39,-292,o),
(-27,-300,o),
(-14,-300,cs),
(-2,-300,o),
(12,-292,o),
(15,-277,cs),
(122,327,ls)
);
},
{
closed = 1;
nodes = (
(80,49,l),
(108,96,o),
(141,145,o),
(196,214,cs),
(243,273,o),
(280,303,o),
(295,303,cs),
(313,303,o),
(313,288,o),
(313,272,cs),
(313,235,o),
(295,144,o),
(269,105,cs),
(239,60,o),
(188,50,o),
(154,50,cs),
(147,50,o),
(79,50,o),
(71,50,c),
(60,50,l),
(60,48,o),
(60,3,o),
(60,0,c),
(72,0,o),
(134,0,o),
(154,0,cs),
(211,0,o),
(270,17,o),
(308,74,cs),
(340,122,o),
(363,219,o),
(363,277,cs),
(363,328,o),
(343,354,o),
(310,354,cs),
(252,354,o),
(200,300,o),
(163,253,cs),
(110,187,o),
(59,114,o),
(39,60,cs),
(35,49,l)
);
}
);
width = 384;
},
{
layerId = m002;
shapes = (
{
closed = 1;
nodes = (
(237,327,o),
(214,350,o),
(187,350,cs),
(164,350,o),
(136,335,o),
(132,310,cs),
(33,-254,ls),
(28,-283,o),
(53,-303,o),
(80,-303,cs),
(103,-303,o),
(129,-288,o),
(133,-263,cs),
(232,299,ls)
);
},
{
closed = 1;
nodes = (
(178,42,l),
(210,96,o),
(239,147,o),
(283,201,cs),
(322,249,o),
(349,266,o),
(353,266,cs),
(358,266,o),
(359,256,o),
(359,251,cs),
(359,220,o),
(346,158,o),
(327,129,cs),
(304,95,o),
(274,87,o),
(250,87,cs),
(244,87,o),
(184,87,o),
(177,87,cs),
(143,87,l),
(143,62,o),
(143,22,o),
(143,0,c),
(166,0,o),
(231,0,o),
(250,0,cs),
(297,0,o),
(362,16,o),
(401,73,cs),
(432,121,o),
(454,211,o),
(454,265,cs),
(454,332,o),
(433,354,o),
(390,354,cs),
(331,354,o),
(257,290,o),
(222,243,cs),
(172,176,o),
(127,114,o),
(118,80,cs),
(108,42,l)
);
}
);
width = 524;
}
);
metricLeft = n;
metricRight = o;
unicode = 112;
},
{
glyphname = q;
lastChange = "2022-03-10 05:02:53 +0000";
layers = (
{
layerId = m01;
shapes = (
{
closed = 1;
nodes = (
(308,301,l),
(280,254,o),
(247,205,o),
(206,153,cs),
(145,77,o),
(108,47,o),
(89,47,cs),
(75,47,o),
(75,62,o),
(75,78,cs),
(75,116,o),
(93,206,o),
(119,245,cs),
(149,290,o),
(200,300,o),
(234,300,cs),
(241,300,o),
(309,300,o),
(317,300,c),
(328,300,l),
(328,302,o),
(328,347,o),
(328,350,c),
(316,350,o),
(254,350,o),
(234,350,cs),
(177,350,o),
(118,333,o),
(80,276,cs),
(48,228,o),
(25,131,o),
(25,73,cs),
(25,22,o),
(45,-4,o),
(78,-4,cs),
(136,-4,o),
(188,50,o),
(229,101,cs),
(278,163,o),
(326,240,o),
(349,292,cs),
(353,301,l)
);
},
{
closed = 1;
nodes = (
(250,-294,l),
(358,-205,ls),
(370,-195,o),
(375,-185,o),
(377,-176,cs),
(378,-164,o),
(370,-154,o),
(357,-154,cs),
(349,-153,o),
(338,-157,o),
(326,-167,cs),
(244,-235,l)
);
},
{
closed = 1;
nodes = (
(372,335,o),
(371,350,o),
(349,350,cs),
(324,350,l),
(213,-273,ls),
(210,-291,o),
(220,-300,o),
(232,-300,cs),
(245,-300,o),
(260,-291,o),
(263,-273,cs),
(371,327,ls)
);
}
);
width = 419;
},
{
layerId = m002;
shapes = (
{
closed = 1;
nodes = (
(351,306,l),
(325,261,o),
(299,215,o),
(261,167,cs),
(208,101,o),
(182,87,o),
(177,87,cs),
(172,87,o),
(171,100,o),
(171,105,cs),
(171,137,o),
(185,194,o),
(205,224,cs),
(226,256,o),
(257,263,o),
(285,263,cs),
(291,263,o),
(351,263,o),
(358,263,cs),
(393,263,l),
(393,288,o),
(393,328,o),
(393,350,c),
(370,350,o),
(305,350,o),
(285,350,cs),
(230,350,o),
(167,332,o),
(129,275,cs),
(97,228,o),
(77,139,o),
(77,85,cs),
(77,22,o),
(95,-4,o),
(134,-4,cs),
(197,-4,o),
(264,51,o),
(318,118,cs),
(364,176,o),
(396,223,o),
(409,269,cs),
(420,307,l)
);
},
{
closed = 1;
nodes = (
(332,-284,l),
(426,-205,ls),
(441,-193,o),
(452,-179,o),
(454,-166,cs),
(458,-141,o),
(438,-122,o),
(413,-121,cs),
(400,-120,o),
(384,-125,o),
(368,-138,cs),
(286,-205,l)
);
},
{
closed = 1;
nodes = (
(450,328,o),
(434,350,o),
(401,350,cs),
(356,350,l),
(250,-248,ls),
(244,-280,o),
(265,-300,o),
(292,-300,cs),
(315,-300,o),
(342,-284,o),
(347,-256,cs),
(446,306,ls)
);
}
);
width = 490;
}
);
metricLeft = o;
unicode = 113;
},
{
glyphname = r;
lastChange = "2022-03-10 05:15:03 +0000";
layers = (
{
layerId = m01;
shapes = (
{
closed = 1;
nodes = (
(120,163,o),
(142,194,o),
(171,228,cs),
(189,249,o),
(213,275,o),
(234,289,cs),
(247,298,o),
(254,301,o),
(260,301,cs),
(271,301,o),
(279,271,o),
(280,268,cs),
(285,249,o),
(293,241,o),
(308,241,cs),
(327,241,o),
(331,253,o),
(330,265,cs),
(329,281,o),
(318,329,o),
(302,341,cs),
(297,345,o),
(285,354,o),
(264,354,cs),
(251,354,o),
(232,348,o),
(210,334,cs),
(193,323,o),
(167,300,o),
(140,271,cs),
(124,254,o),
(106,233,o),
(97,216,c),
(75,91,l)
);
},
{
closed = 1;
nodes = (
(123,340,o),
(112,350,o),
(99,350,cs),
(87,350,o),
(73,341,o),
(70,323,cs),
(18,27,ls),
(15,9,o),
(26,0,o),
(39,0,cs),
(52,0,o),
(66,9,o),
(69,27,cs),
(120,320,ls)
);
}
);
width = 332;
},
{
layerId = m002;
shapes = (
{
closed = 1;
nodes = (
(198,109,o),
(244,180,o),
(257,196,cs),
(270,212,o),
(285,228,o),
(296,239,cs),
(305,248,o),
(330,258,o),
(333,258,cs),
(338,258,o),
(341,250,o),
(343,244,cs),
(349,224,o),
(366,211,o),
(389,211,cs),
(413,211,o),
(427,228,o),
(427,256,cs),
(427,274,o),
(418,319,o),
(396,338,cs),
(390,344,o),
(373,354,o),
(355,354,cs),
(332,354,o),
(293,348,o),
(269,333,cs),
(252,322,o),
(226,300,o),
(203,274,cs),
(186,257,o),
(169,239,o),
(159,227,c),
(159,46,l)
);
},
{
closed = 1;
nodes = (
(237,329,o),
(211,350,o),
(185,350,cs),
(163,350,o),
(137,336,o),
(132,309,cs),
(86,48,ls),
(81,18,o),
(106,0,o),
(132,0,cs),
(155,0,o),
(181,14,o),
(186,41,cs),
(231,297,ls)
);
}
);
width = 455;
}
);
metricLeft = n;
metricRight = "=o/2";
unicode = 114;
},
{
glyphname = s;
lastChange = "2022-03-10 05:02:53 +0000";
layers = (
{
layerId = m01;
shapes = (
{
closed = 1;
nodes = (
(179,0,o),
(241,16,o),
(251,80,cs),
(257,117,o),
(243,144,o),
(224,159,cs),
(205,174,o),
(165,200,o),
(133,226,cs),
(118,238,o),
(104,251,o),
(104,263,cs),
(104,281,o),
(139,300,o),
(171,300,cs),
(266,300,ls),
(279,300,o),
(294,308,o),
(294,325,cs),
(294,349,o),
(279,350,o),
(251,350,cs),
(171,350,ls),
(111,350,o),
(56,316,o),
(54,262,cs),
(53,224,o),
(79,202,o),
(107,182,cs),
(134,163,o),
(167,143,o),
(181,132,cs),
(194,121,o),
(204,107,o),
(201,88,cs),
(196,55,o),
(160,50,o),
(119,50,cs),
(44,50,ls),
(28,50,o),
(13,45,o),
(13,25,cs),
(13,6,o),
(28,0,o),
(43,0,cs),
(119,0,ls)
);
}
);
width = 302;
},
{
layerId = m002;
shapes = (
{
closed = 1;
nodes = (
(245,0,o),
(315,18,o),
(327,87,cs),
(334,127,o),
(317,160,o),
(294,178,cs),
(278,191,o),
(243,214,o),
(213,237,cs),
(203,246,o),
(198,250,o),
(198,254,cs),
(198,258,o),
(211,263,o),
(232,263,cs),
(317,263,ls),
(341,263,o),
(366,279,o),
(366,307,cs),
(366,340,o),
(343,351,o),
(303,351,cs),
(232,351,ls),
(168,351,o),
(107,314,o),
(104,253,cs),
(103,208,o),
(134,183,o),
(161,163,cs),
(183,147,o),
(211,132,o),
(224,121,cs),
(233,114,o),
(237,110,o),
(235,101,cs),
(233,88,o),
(220,87,o),
(186,87,cs),
(118,87,ls),
(89,87,o),
(66,72,o),
(66,43,cs),
(66,15,o),
(88,0,o),
(117,0,cs),
(186,0,ls)
);
}
);
width = 425;
}
);
metricLeft = o;
metricRight = o;
unicode = 115;
},
{
glyphname = t;
lastChange = "2022-03-10 05:09:48 +0000";
layers = (
{
layerId = m01;
shapes = (
{
closed = 1;
nodes = (
(225,558,o),
(211,568,o),
(197,568,cs),
(186,568,o),
(176,561,o),
(173,547,cs),
(80,24,ls),
(77,8,o),
(90,0,o),
(103,0,cs),
(116,0,o),
(129,7,o),
(132,23,cs),
(222,540,ls)
);
},
{
closed = 1;
nodes = (
(297,305,o),
(303,316,o),
(303,328,cs),
(303,340,o),
(297,350,o),
(277,350,cs),
(53,350,ls),
(33,350,o),
(27,340,o),
(27,328,cs),
(27,316,o),
(33,305,o),
(53,305,cs),
(277,305,ls)
);
}
);
width = 287;
},
{
layerId = m002;
shapes = (
{
closed = 1;
nodes = (
(323,557,o),
(294,568,o),
(267,568,cs),
(245,568,o),
(222,555,o),
(218,532,cs),
(132,44,ls),
(126,12,o),
(153,0,o),
(179,0,cs),
(204,0,o),
(226,9,o),
(231,35,cs),
(317,523,ls)
);
},
{
closed = 1;
nodes = (
(370,265,o),
(388,283,o),
(388,307,cs),
(388,332,o),
(370,350,o),
(338,350,cs),
(128,350,ls),
(96,350,o),
(78,332,o),
(78,307,cs),
(78,283,o),
(96,265,o),
(128,265,cs),
(338,265,ls)
);
}
);
width = 423;
}
);
unicode = 116;
},
{
glyphname = u;
lastChange = "2022-03-10 05:02:53 +0000";
layers = (
{
layerId = m01;
shapes = (
{
closed = 1;
nodes = (
(264,222,o),
(150,45,o),
(99,45,cs),
(74,45,o),
(80,89,o),
(85,116,cs),
(121,321,ls),
(124,340,o),
(113,350,o),
(101,350,cs),
(88,350,o),
(73,341,o),
(70,322,cs),
(34,116,ls),
(24,59,o),
(31,-4,o),
(89,-4,cs),
(178,-4,o),
(284,163,o),
(339,251,c),
(333,337,l)
);
},
{
closed = 1;
nodes = (
(380,340,o),
(376,350,o),
(359,350,c),
(340,350,o),
(329,342,o),
(326,323,cs),
(274,31,ls),
(271,12,o),
(282,-1,o),
(296,-1,cs),
(307,-1,o),
(321,7,o),
(325,31,cs),
(377,323,ls)
);
}
);
width = 395;
},
{
layerId = m002;
shapes = (
{
closed = 1;
nodes = (
(322,231,o),
(231,74,o),
(196,74,cs),
(188,74,o),
(191,94,o),
(195,119,cs),
(227,299,ls),
(233,333,o),
(217,350,o),
(185,350,cs),
(160,350,o),
(138,340,o),
(132,308,cs),
(100,127,ls),
(88,58,o),
(112,-4,o),
(179,-4,cs),
(279,-4,o),
(313,72,o),
(379,153,c),
(369,314,l)
);
},
{
closed = 1;
nodes = (
(468,336,o),
(449,350,o),
(424,350,cs),
(397,350,o),
(367,336,o),
(362,309,cs),
(317,52,ls),
(310,14,o),
(331,0,o),
(361,0,cs),
(383,0,o),
(411,11,o),
(417,44,cs),
(463,305,ls)
);
}
);
width = 548;
}
);
metricLeft = n;
metricRight = n;
unicode = 117;
},
{
glyphname = v;
lastChange = "2022-03-10 05:02:53 +0000";
layers = (
{
layerId = m01;
shapes = (
{
closed = 1;
nodes = (
(125,340,o),
(113,350,o),
(100,350,cs),
(88,350,o),
(73,341,o),
(70,323,cs),
(31,102,ls),
(26,76,o),
(25,49,o),
(32,28,cs),
(39,9,o),
(53,-4,o),
(79,-4,cs),
(103,-4,o),
(129,7,o),
(154,25,cs),
(192,53,o),
(232,100,o),
(258,138,cs),
(292,186,o),
(338,269,o),
(348,288,cs),
(371,333,o),
(361,350,o),
(341,350,cs),
(323,350,o),
(317,337,o),
(305,315,cs),
(287,280,o),
(258,229,o),
(227,183,cs),
(194,133,o),
(159,89,o),
(125,63,cs),
(111,52,o),
(102,47,o),
(93,47,cs),
(85,47,o),
(78,51,o),
(77,60,cs),
(75,69,o),
(79,86,o),
(82,102,cs),
(121,320,ls)
);
},
{
closed = 1;
nodes = (
(329,294,l),
(373,230,ls),
(380,220,o),
(390,211,o),
(403,211,cs),
(413,211,o),
(423,217,o),
(426,228,cs),
(428,235,o),
(427,243,o),
(420,253,cs),
(357,344,l)
);
}
);
width = 437;
},
{
layerId = m002;
shapes = (
{
closed = 1;
nodes = (
(237,331,o),
(214,351,o),
(187,351,cs),
(165,351,o),
(136,335,o),
(131,308,cs),
(97,115,ls),
(93,90,o),
(95,62,o),
(102,39,cs),
(113,12,o),
(134,-4,o),
(167,-4,cs),
(195,-4,o),
(234,4,o),
(268,27,cs),
(308,54,o),
(344,97,o),
(366,129,cs),
(398,173,o),
(446,248,o),
(453,264,c),
(491,336,o),
(447,351,o),
(425,351,cs),
(398,351,o),
(385,338,o),
(369,308,cs),
(361,293,o),
(343,262,o),
(317,223,cs),
(288,179,o),
(280,168,o),
(262,143,cs),
(249,126,o),
(233,106,o),
(223,96,cs),
(215,88,o),
(203,78,o),
(199,78,cs),
(193,78,o),
(196,107,o),
(205,157,cs),
(231,298,ls)
);
},
{
closed = 1;
nodes = (
(387,278,l),
(432,212,ls),
(443,196,o),
(459,184,o),
(480,184,cs),
(499,184,o),
(518,196,o),
(524,214,cs),
(528,229,o),
(525,241,o),
(515,256,cs),
(462,334,l)
);
}
);
width = 567;
}
);
metricLeft = n;
unicode = 118;
},
{
glyphname = w;
lastChange = "2022-03-10 05:02:53 +0000";
layers = (
{
layerId = m01;
shapes = (
{
closed = 1;
nodes = (
(367,340,o),
(355,350,o),
(342,350,c),
(304,270,l),
(273,102,ls),
(268,76,o),
(267,49,o),
(274,28,cs),
(281,9,o),
(295,-4,o),
(321,-4,cs),
(345,-4,o),
(371,7,o),
(396,25,cs),
(434,53,o),
(474,100,o),
(500,138,cs),
(534,186,o),
(580,269,o),
(590,288,cs),
(613,333,o),
(603,350,o),
(583,350,cs),
(565,350,o),
(559,337,o),
(547,315,cs),
(529,280,o),
(500,229,o),
(469,183,cs),
(436,133,o),
(401,89,o),
(367,63,cs),
(353,52,o),
(344,47,o),
(335,47,cs),
(327,47,o),
(320,51,o),
(319,60,cs),
(317,69,o),
(321,86,o),
(324,102,cs),
(363,320,ls)
);
},
{
closed = 1;
nodes = (
(324,350,o),
(317,337,o),
(305,315,cs),
(287,280,o),
(258,229,o),
(227,183,cs),
(194,133,o),
(159,89,o),
(125,63,cs),
(111,52,o),
(102,47,o),
(93,47,cs),
(85,47,o),
(78,51,o),
(77,60,cs),
(75,69,o),
(79,86,o),
(82,102,cs),
(121,320,ls),
(125,340,o),
(113,350,o),
(100,350,cs),
(88,350,o),
(73,341,o),
(70,323,cs),
(31,102,ls),
(26,76,o),
(25,49,o),
(32,28,cs),
(39,9,o),
(53,-4,o),
(79,-4,cs),
(103,-4,o),
(129,7,o),
(154,25,cs),
(192,53,o),
(232,100,o),
(258,138,cs),
(293,189,o),
(321,248,o),
(331,267,c),
(342,350,l)
);
},
{
closed = 1;
nodes = (
(571,294,l),
(615,230,ls),
(622,220,o),
(632,211,o),
(645,211,cs),
(655,211,o),
(665,217,o),
(668,228,cs),
(670,235,o),
(669,243,o),
(662,253,cs),
(599,344,l)
);
}
);
width = 679;
},
{
layerId = m002;
shapes = (
{
closed = 1;
nodes = (
(476,335,o),
(447,350,o),
(425,350,c),
(366,264,l),
(336,115,ls),
(331,90,o),
(333,62,o),
(340,39,cs),
(349,12,o),
(373,-5,o),
(405,-5,cs),
(438,-5,o),
(476,6,o),
(502,24,cs),
(540,50,o),
(574,86,o),
(596,118,cs),
(628,162,o),
(683,244,o),
(691,260,cs),
(727,331,o),
(688,350,o),
(666,350,cs),
(638,350,o),
(626,343,o),
(611,314,cs),
(598,289,o),
(582,263,o),
(556,224,cs),
(527,180,o),
(514,161,o),
(504,147,cs),
(495,135,o),
(472,106,o),
(466,100,cs),
(457,91,o),
(443,77,o),
(437,77,cs),
(432,77,o),
(434,102,o),
(437,117,cs),
(469,298,ls)
);
},
{
closed = 1;
nodes = (
(401,350,o),
(389,344,o),
(368,307,cs),
(358,289,o),
(346,267,o),
(322,230,cs),
(302,199,o),
(286,177,o),
(273,158,cs),
(264,145,o),
(249,126,o),
(231,105,cs),
(218,90,o),
(203,78,o),
(199,78,cs),
(194,78,o),
(197,109,o),
(200,125,cs),
(231,298,ls),
(237,332,o),
(214,350,o),
(188,350,cs),
(161,350,o),
(137,336,o),
(131,304,cs),
(97,113,ls),
(93,88,o),
(95,60,o),
(103,37,cs),
(112,10,o),
(139,-4,o),
(169,-4,cs),
(197,-4,o),
(238,7,o),
(263,24,cs),
(308,54,o),
(343,97,o),
(366,129,cs),
(402,183,o),
(434,243,o),
(438,250,c),
(432,350,l)
);
},
{
closed = 1;
nodes = (
(624,277,l),
(671,210,ls),
(682,194,o),
(700,183,o),
(718,183,cs),
(738,183,o),
(759,196,o),
(764,217,cs),
(766,229,o),
(763,240,o),
(753,255,cs),
(700,333,l)
);
}
);
width = 807;
}
);
metricLeft = n;
metricRight = v;
unicode = 119;
},
{
glyphname = x;
lastChange = "2022-03-10 05:15:03 +0000";
layers = (
{
layerId = m01;
shapes = (
{
closed = 1;
nodes = (
(368,313,o),
(372,317,o),
(372,327,cs),
(372,333,o),
(370,339,o),
(365,344,cs),
(360,349,o),
(353,350,o),
(346,350,cs),
(339,349,o),
(332,346,o),
(327,341,c),
(20,44,l),
(13,36,o),
(11,28,o),
(12,21,cs),
(13,16,o),
(16,11,o),
(20,6,cs),
(24,2,o),
(29,0,o),
(36,0,cs),
(44,0,o),
(52,5,o),
(57,10,c),
(363,308,l)
);
},
{
closed = 1;
nodes = (
(106,345,o),
(100,350,o),
(92,350,cs),
(85,350,o),
(79,347,o),
(74,343,cs),
(69,339,o),
(66,333,o),
(65,327,cs),
(65,321,o),
(68,314,o),
(71,309,c),
(275,10,l),
(279,4,o),
(285,1,o),
(290,0,cs),
(297,-1,o),
(305,3,o),
(310,8,cs),
(315,13,o),
(319,20,o),
(319,27,cs),
(319,33,o),
(317,39,o),
(313,44,c),
(111,338,l)
);
}
);
width = 380;
},
{
layerId = m002;
shapes = (
{
closed = 1;
nodes = (
(426,285,o),
(432,294,o),
(432,309,cs),
(432,321,o),
(428,331,o),
(419,340,cs),
(411,348,o),
(396,350,o),
(383,350,cs),
(372,350,o),
(358,344,o),
(350,337,cs),
(80,76,ls),
(68,64,o),
(64,52,o),
(66,38,cs),
(67,29,o),
(71,21,o),
(78,12,cs),
(85,4,o),
(99,0,o),
(112,0,cs),
(126,0,o),
(140,7,o),
(150,16,cs),
(417,277,ls)
);
},
{
closed = 1;
nodes = (
(188,345,o),
(175,350,o),
(161,350,cs),
(149,350,o),
(138,347,o),
(128,339,cs),
(119,332,o),
(113,321,o),
(112,310,cs),
(112,299,o),
(117,288,o),
(122,281,cs),
(301,18,ls),
(312,2,o),
(332,0,o),
(342,0,cs),
(354,0,o),
(365,7,o),
(372,14,cs),
(379,22,o),
(386,33,o),
(386,45,cs),
(386,54,o),
(382,62,o),
(376,71,cs),
(198,331,ls)
);
}
);
width = 491;
}
);
metricLeft = o;
metricRight = o;
unicode = 120;
},
{
glyphname = y;
lastChange = "2022-03-10 05:02:53 +0000";
layers = (
{
layerId = m01;
shapes = (
{
closed = 1;
nodes = (
(380,338,o),
(367,350,o),
(353,350,cs),
(341,350,o),
(327,341,o),
(323,320,cs),
(268,-3,ls),
(256,-71,o),
(248,-142,o),
(220,-189,cs),
(202,-219,o),
(175,-240,o),
(127,-246,cs),
(106,-248,o),
(23,-250,o),
(4,-250,cs),
(-22,-250,o),
(-35,-263,o),
(-35,-277,cs),
(-35,-292,o),
(-21,-300,o),
(3,-300,cs),
(22,-300,o),
(110,-299,o),
(143,-294,cs),
(197,-286,o),
(236,-257,o),
(261,-217,cs),
(295,-163,o),
(304,-87,o),
(319,-3,cs),
(376,317,ls)
);
},
{
closed = 1;
nodes = (
(264,225,o),
(151,45,o),
(100,45,cs),
(75,45,o),
(81,89,o),
(86,116,cs),
(122,321,ls),
(125,340,o),
(114,350,o),
(102,350,cs),
(89,350,o),
(74,341,o),
(71,322,cs),
(35,116,ls),
(25,59,o),
(32,-4,o),
(90,-4,cs),
(179,-4,o),
(284,166,o),
(339,254,c),
(333,340,l)
);
}
);
width = 395;
},
{
layerId = m002;
shapes = (
{
closed = 1;
nodes = (
(467,331,o),
(459,350,o),
(421,350,cs),
(388,350,o),
(366,333,o),
(361,302,cs),
(308,3,ls),
(296,-62,o),
(292,-126,o),
(269,-165,cs),
(253,-190,o),
(237,-203,o),
(200,-208,cs),
(181,-210,o),
(98,-209,o),
(81,-209,cs),
(44,-209,o),
(33,-231,o),
(33,-257,cs),
(33,-282,o),
(41,-300,o),
(80,-300,cs),
(99,-300,o),
(190,-298,o),
(222,-293,cs),
(280,-283,o),
(324,-256,o),
(350,-215,cs),
(385,-158,o),
(394,-83,o),
(408,-5,cs),
(461,295,ls)
);
},
{
closed = 1;
nodes = (
(333,252,o),
(234,74,o),
(196,74,cs),
(188,74,o),
(191,94,o),
(195,119,cs),
(227,300,ls),
(232,330,o),
(220,350,o),
(185,350,cs),
(154,350,o),
(137,335,o),
(132,307,cs),
(100,127,ls),
(88,58,o),
(102,-4,o),
(169,-4,cs),
(289,-4,o),
(333,108,o),
(379,153,c),
(370,326,l)
);
}
);
width = 548;
}
);
metricLeft = n;
metricRight = n;
unicode = 121;
},
{
glyphname = z;
lastChange = "2022-03-10 05:02:53 +0000";
layers = (
{
layerId = m01;
shapes = (
{
closed = 1;
nodes = (
(374,313,o),
(378,317,o),
(378,327,cs),
(378,333,o),
(376,339,o),
(371,344,cs),
(366,349,o),
(359,350,o),
(352,350,cs),
(345,349,o),
(338,346,o),
(333,341,c),
(26,44,ls),
(18,37,o),
(17,28,o),
(18,21,cs),
(19,16,o),
(22,11,o),
(26,6,cs),
(30,2,o),
(35,0,o),
(42,0,cs),
(50,0,o),
(58,5,o),
(63,10,c),
(369,308,l)
);
},
{
closed = 1;
nodes = (
(299,0,ls),
(319,0,o),
(325,13,o),
(325,25,cs),
(325,37,o),
(319,50,o),
(299,50,cs),
(62,50,l),
(40,0,l)
);
},
{
closed = 1;
nodes = (
(354,350,l),
(97,350,ls),
(77,350,o),
(71,337,o),
(71,325,cs),
(71,313,o),
(77,300,o),
(97,300,cs),
(330,300,l)
);
}
);
width = 396;
},
{
layerId = m002;
shapes = (
{
closed = 1;
nodes = (
(446,285,o),
(452,294,o),
(452,309,cs),
(452,321,o),
(447,331,o),
(439,340,cs),
(430,348,o),
(416,350,o),
(403,350,cs),
(391,350,o),
(378,344,o),
(370,337,cs),
(100,75,ls),
(89,65,o),
(84,52,o),
(86,38,cs),
(87,29,o),
(91,21,o),
(98,12,cs),
(105,4,o),
(119,0,o),
(132,0,cs),
(146,0,o),
(160,7,o),
(170,16,cs),
(437,277,ls)
);
},
{
closed = 1;
nodes = (
(358,0,ls),
(388,0,o),
(406,19,o),
(406,43,cs),
(406,67,o),
(388,85,o),
(358,85,cs),
(169,85,l),
(131,0,l)
);
},
{
closed = 1;
nodes = (
(404,350,l),
(180,350,ls),
(150,350,o),
(132,329,o),
(132,305,cs),
(132,281,o),
(150,260,o),
(180,260,cs),
(362,260,l)
);
}
);
width = 538;
}
);
metricLeft = n;
metricRight = n;
unicode = 122;
},
{
glyphname = a.sc;
lastChange = "2022-03-10 05:15:18 +0000";
layers = (
{
guides = (
{
pos = (209,396);
}
);
layerId = m01;
name = "QBeginners Light";
shapes = (
{
closed = 1;
nodes = (
(233,365,l),
(237,381,o),
(227,396,o),
(209,396,cs),
(194,396,o),
(189,387,o),
(184,377,cs),
(6,35,ls),
(-3,18,o),
(9,0,o),
(26,0,cs),
(41,0,o),
(47,6,o),
(55,21,cs),
(231,359,l)
);
},
{
closed = 1;
nodes = (
(231,175,l),
(227,216,l),
(113,216,l),
(90,175,l)
);
},
{
closed = 1;
nodes = (
(185,358,l),
(214,25,ls),
(215,13,o),
(221,0,o),
(240,0,cs),
(255,0,o),
(266,10,o),
(264,28,cs),
(234,378,l)
);
}
);
width = 323;
},
{
guides = (
{
pos = (270,396);
}
);
layerId = m002;
name = "QBeginners Light";
shapes = (
{
closed = 1;
nodes = (
(303,348,l),
(312,380,o),
(294,396,o),
(263,396,cs),
(239,396,o),
(227,383,o),
(219,367,cs),
(62,65,ls),
(46,34,o),
(56,0,o),
(89,0,cs),
(111,0,o),
(126,9,o),
(137,31,cs),
(286,317,l)
);
},
{
closed = 1;
nodes = (
(311,151,l),
(304,221,l),
(164,221,l),
(121,151,l)
);
},
{
closed = 1;
nodes = (
(238,326,l),
(255,45,ls),
(257,18,o),
(269,0,o),
(297,0,cs),
(324,0,o),
(340,21,o),
(337,50,cs),
(305,371,l)
);
}
);
width = 448;
},
{
associatedMasterId = m002;
attr = {
axisRules = (
{
max = 800;
min = 600;
}
);
};
guides = (
{
pos = (270,396);
}
);
layerId = "755706CE-7041-47DB-A0A1-6F5627D14654";
name = "{650}";
shapes = (
{
closed = 1;
nodes = (
(303,348,l),
(312,380,o),
(294,396,o),
(263,396,cs),
(239,396,o),
(227,383,o),
(219,367,cs),
(62,65,ls),
(46,34,o),
(56,0,o),
(89,0,cs),
(111,0,o),
(127,9,o),
(137,31,cs),
(275,319,l)
);
},
{
closed = 1;
nodes = (
(311,120,l),
(304,190,l),
(164,190,l),
(121,120,l)
);
},
{
closed = 1;
nodes = (
(242,325,l),
(255,45,ls),
(256,18,o),
(269,0,o),
(297,0,cs),
(324,0,o),
(340,21,o),
(337,50,cs),
(305,371,l)
);
}
);
visible = 1;
width = 448;
},
{
associatedMasterId = m01;
attr = {
axisRules = (
{
max = 800;
min = 600;
}
);
};
guides = (
{
pos = (236,396);
}
);
layerId = "2F08D9ED-CD58-44F7-9314-96851F4DB5DC";
name = "{650}";
shapes = (
{
closed = 1;
nodes = (
(260,365,l),
(264,381,o),
(254,396,o),
(236,396,cs),
(221,396,o),
(216,387,o),
(211,377,cs),
(33,35,ls),
(24,18,o),
(36,0,o),
(53,0,cs),
(68,0,o),
(74,6,o),
(82,21,cs),
(258,359,l)
);
},
{
closed = 1;
nodes = (
(258,155,l),
(254,200,l),
(140,200,l),
(117,155,l)
);
},
{
closed = 1;
nodes = (
(212,358,l),
(241,25,ls),
(242,13,o),
(248,0,o),
(267,0,cs),
(282,0,o),
(293,10,o),
(291,28,cs),
(261,378,l)
);
}
);
visible = 1;
width = 382;
}
);
metricLeft = A;
metricRight = A;
},
{
glyphname = b.sc;
lastChange = "2022-03-10 05:15:18 +0000";
layers = (
{
layerId = m01;
shapes = (
{
closed = 1;
nodes = (
(218,-1,o),
(256,18,o),
(270,92,cs),
(284,175,o),
(195,224,o),
(101,224,c),
(93,171,l),
(175,171,o),
(228,144,o),
(221,100,cs),
(213,59,o),
(178,49,o),
(68,50,c),
(60,0,l)
);
},
{
closed = 1;
nodes = (
(150,384,o),
(139,396,o),
(124,396,cs),
(109,396,o),
(99,387,o),
(96,369,cs),
(37,32,ls),
(34,15,o),
(45,0,o),
(61,0,cs),
(73,0,o),
(84,8,o),
(87,27,cs),
(146,363,ls)
);
},
{
closed = 1;
nodes = (
(256,171,o),
(291,212,o),
(303,281,cs),
(317,360,o),
(242,396,o),
(123,396,c),
(113,345,l),
(216,346,o),
(261,329,o),
(253,286,cs),
(247,247,o),
(228,224,o),
(105,224,c),
(96,171,l)
);
}
);
width = 335;
},
{
layerId = m002;
shapes = (
{
closed = 1;
nodes = (
(240,374,o),
(218,396,o),
(189,396,cs),
(164,396,o),
(145,380,o),
(140,352,cs),
(87,54,ls),
(82,25,o),
(104,0,o),
(134,0,cs),
(156,0,o),
(177,16,o),
(182,43,cs),
(234,340,ls)
);
},
{
closed = 1;
nodes = (
(277,0,o),
(327,17,o),
(344,100,cs),
(360,199,o),
(248,226,o),
(147,226,c),
(133,153,l),
(220,153,o),
(259,141,o),
(255,115,cs),
(251,91,o),
(231,80,o),
(147,80,c),
(133,0,l)
);
},
{
closed = 1;
nodes = (
(318,153,o),
(359,194,o),
(373,267,cs),
(389,361,o),
(294,396,o),
(186,396,c),
(169,317,l),
(264,317,o),
(288,302,o),
(284,280,cs),
(278,248,o),
(269,226,o),
(150,226,c),
(136,153,l)
);
}
);
width = 461;
}
);
metricLeft = B;
metricRight = B;
},
{
glyphname = c.sc;
lastChange = "2022-03-10 05:15:18 +0000";
layers = (
{
layerId = m01;
shapes = (
{
closed = 1;
nodes = (
(182,0,o),
(223,31,o),
(272,103,cs),
(286,125,o),
(286,130,o),
(286,135,cs),
(286,148,o),
(277,158,o),
(265,158,cs),
(251,158,o),
(245,152,o),
(232,134,cs),
(189,72,o),
(163,50,o),
(131,50,cs),
(106,50,o),
(103,71,o),
(103,92,cs),
(103,122,o),
(111,180,o),
(117,209,cs),
(131,278,o),
(146,346,o),
(272,346,cs),
(303,346,o),
(309,345,o),
(317,349,cs),
(330,356,o),
(332,381,o),
(319,390,cs),
(312,394,o),
(304,396,o),
(272,396,cs),
(108,396,o),
(82,301,o),
(66,209,cs),
(64,197,o),
(53,131,o),
(53,93,cs),
(53,51,o),
(67,0,o),
(132,0,cs)
);
}
);
width = 362;
},
{
layerId = m002;
shapes = (
{
closed = 1;
nodes = (
(267,0,o),
(304,34,o),
(351,101,cs),
(364,122,o),
(368,142,o),
(364,157,cs),
(360,175,o),
(346,186,o),
(324,186,cs),
(302,186,o),
(291,177,o),
(274,154,cs),
(237,101,o),
(223,90,o),
(211,90,cs),
(205,90,o),
(205,99,o),
(205,113,cs),
(205,139,o),
(213,178,o),
(217,203,cs),
(228,265,o),
(239,306,o),
(330,306,cs),
(344,306,o),
(370,305,o),
(382,312,cs),
(410,327,o),
(413,369,o),
(385,387,cs),
(376,392,o),
(351,396,o),
(330,396,cs),
(164,396,o),
(137,294,o),
(122,211,cs),
(121,203,o),
(111,148,o),
(111,111,cs),
(111,61,o),
(120,0,o),
(206,0,cs)
);
}
);
width = 482;
}
);
metricLeft = C;
metricRight = C;
},
{
glyphname = d.sc;
lastChange = "2022-03-10 05:15:18 +0000";
layers = (
{
layerId = m01;
shapes = (
{
closed = 1;
nodes = (
(97,0,ls),
(198,0,o),
(292,78,o),
(315,210,cs),
(333,315,o),
(250,396,o),
(144,396,cs),
(123,396,l),
(118,342,l),
(147,342,ls),
(224,342,o),
(278,287,o),
(265,214,cs),
(247,107,o),
(172,50,o),
(97,50,cs),
(71,50,l),
(60,0,l)
);
},
{
closed = 1;
nodes = (
(148,377,o),
(142,396,o),
(124,396,cs),
(107,396,o),
(99,388,o),
(96,369,cs),
(36,29,ls),
(33,14,o),
(43,0,o),
(61,0,cs),
(79,0,o),
(84,12,o),
(86,22,cs),
(145,359,ls)
);
}
);
width = 359;
},
{
layerId = m002;
shapes = (
{
closed = 1;
nodes = (
(165,0,ls),
(266,0,o),
(360,78,o),
(383,205,cs),
(401,313,o),
(314,396,o),
(206,396,cs),
(188,396,l),
(178,316,l),
(209,316,ls),
(266,316,o),
(298,270,o),
(288,216,cs),
(275,129,o),
(222,74,o),
(165,74,cs),
(153,74,l),
(132,0,l)
);
},
{
closed = 1;
nodes = (
(237,367,o),
(221,396,o),
(189,396,cs),
(166,396,o),
(145,385,o),
(139,353,cs),
(86,52,ls),
(81,24,o),
(102,0,o),
(133,0,cs),
(160,0,o),
(175,17,o),
(180,38,c),
(232,336,ls)
);
}
);
width = 482;
}
);
metricLeft = D;
metricRight = D;
},
{
glyphname = e.sc;
lastChange = "2022-03-10 05:15:18 +0000";
layers = (
{
layerId = m01;
shapes = (
{
closed = 1;
nodes = (
(148,378,o),
(143,396,o),
(124,396,cs),
(106,396,o),
(99,388,o),
(96,369,cs),
(36,29,ls),
(34,15,o),
(43,0,o),
(60,0,cs),
(79,0,o),
(84,14,o),
(86,24,cs),
(145,360,ls)
);
},
{
closed = 1;
nodes = (
(247,0,ls),
(264,0,o),
(273,14,o),
(273,27,cs),
(273,40,o),
(264,53,o),
(247,53,cs),
(68,53,l),
(59,0,l)
);
},
{
closed = 1;
nodes = (
(262,174,ls),
(279,174,o),
(288,186,o),
(288,198,cs),
(288,211,o),
(279,224,o),
(262,224,cs),
(98,224,l),
(90,174,l)
);
},
{
closed = 1;
nodes = (
(309,343,ls),
(325,343,o),
(334,354,o),
(334,369,cs),
(334,384,o),
(325,396,o),
(309,396,cs),
(123,396,l),
(114,343,l)
);
}
);
width = 368;
},
{
layerId = m002;
shapes = (
{
closed = 1;
nodes = (
(238,367,o),
(223,396,o),
(189,396,cs),
(164,396,o),
(144,384,o),
(139,353,cs),
(86,52,ls),
(81,25,o),
(102,0,o),
(132,0,cs),
(160,0,o),
(176,18,o),
(180,41,cs),
(233,338,ls)
);
},
{
closed = 1;
nodes = (
(298,0,ls),
(327,0,o),
(346,18,o),
(346,42,cs),
(346,66,o),
(326,77,o),
(298,77,cs),
(146,77,l),
(130,0,l)
);
},
{
closed = 1;
nodes = (
(311,151,ls),
(339,151,o),
(359,164,o),
(359,188,cs),
(359,213,o),
(339,225,o),
(311,225,cs),
(159,225,l),
(145,151,l)
);
},
{
closed = 1;
nodes = (
(353,303,ls),
(380,303,o),
(400,323,o),
(400,349,cs),
(400,376,o),
(380,396,o),
(353,396,cs),
(186,396,l),
(170,303,l)
);
}
);
width = 478;
}
);
metricLeft = E;
metricRight = E;
},
{
glyphname = f.sc;
lastChange = "2022-03-10 05:15:18 +0000";
layers = (
{
layerId = m01;
shapes = (
{
closed = 1;
nodes = (
(149,377,o),
(143,396,o),
(124,396,cs),
(106,396,o),
(99,388,o),
(96,369,cs),
(36,29,ls),
(34,15,o),
(43,0,o),
(60,0,cs),
(79,0,o),
(85,14,o),
(87,24,cs),
(146,359,ls)
);
},
{
closed = 1;
nodes = (
(261,175,ls),
(279,175,o),
(287,187,o),
(287,199,cs),
(287,214,o),
(278,225,o),
(261,225,cs),
(98,225,l),
(90,175,l)
);
},
{
closed = 1;
nodes = (
(309,343,ls),
(325,343,o),
(334,354,o),
(334,369,cs),
(334,384,o),
(325,396,o),
(309,396,cs),
(123,396,l),
(115,343,l)
);
}
);
width = 298;
},
{
layerId = m002;
shapes = (
{
closed = 1;
nodes = (
(238,366,o),
(223,396,o),
(189,396,cs),
(164,396,o),
(144,384,o),
(139,353,cs),
(86,52,ls),
(81,25,o),
(102,0,o),
(132,0,cs),
(160,0,o),
(177,19,o),
(181,40,cs),
(233,336,ls)
);
},
{
closed = 1;
nodes = (
(310,151,ls),
(339,151,o),
(358,168,o),
(358,192,cs),
(358,218,o),
(338,225,o),
(310,225,cs),
(184,225,l),
(170,151,l)
);
},
{
closed = 1;
nodes = (
(353,303,ls),
(380,303,o),
(400,323,o),
(400,349,cs),
(400,376,o),
(380,396,o),
(353,396,cs),
(188,396,l),
(174,303,l)
);
}
);
width = 408;
}
);
metricLeft = F;
metricRight = "=F-20";
},
{
glyphname = g.sc;
lastChange = "2022-03-10 05:15:18 +0000";
layers = (
{
layerId = m01;
shapes = (
{
closed = 1;
nodes = (
(272,224,o),
(271,230,o),
(228,164,cs),
(207,132,o),
(151,48,o),
(118,48,cs),
(106,48,o),
(102,64,o),
(102,89,cs),
(102,125,o),
(113,187,o),
(120,217,cs),
(131,276,o),
(153,343,o),
(280,343,cs),
(312,343,ls),
(327,343,o),
(337,356,o),
(337,370,cs),
(337,383,o),
(327,396,o),
(314,396,cs),
(281,396,ls),
(117,396,o),
(82,300,o),
(66,207,cs),
(64,195,o),
(52,129,o),
(52,92,cs),
(52,49,o),
(69,-2,o),
(116,-2,cs),
(164,-2,o),
(211,52,o),
(256,115,c),
(287,224,l)
);
},
{
closed = 1;
nodes = (
(310,213,o),
(301,224,o),
(286,224,cs),
(269,224,o),
(259,214,o),
(256,198,cs),
(226,29,ls),
(224,17,o),
(231,0,o),
(248,0,cs),
(268,0,o),
(275,14,o),
(277,25,cs),
(307,194,ls)
);
}
);
width = 372;
},
{
layerId = m002;
shapes = (
{
closed = 1;
nodes = (
(328,244,o),
(313,218,o),
(279,165,cs),
(240,105,o),
(215,86,o),
(208,86,cs),
(203,86,o),
(202,105,o),
(206,130,cs),
(212,164,o),
(216,188,o),
(221,218,cs),
(225,240,o),
(229,303,o),
(358,303,cs),
(374,303,ls),
(408,303,o),
(421,328,o),
(422,350,cs),
(423,374,o),
(403,396,o),
(374,396,cs),
(358,396,ls),
(194,396,o),
(140,311,o),
(124,218,cs),
(122,206,o),
(110,139,o),
(110,102,cs),
(110,59,o),
(138,-2,o),
(193,-2,cs),
(241,-2,o),
(288,52,o),
(333,115,c),
(364,244,l)
);
},
{
closed = 1;
nodes = (
(402,212,o),
(390,244,o),
(363,244,cs),
(361,244,o),
(327,237,o),
(323,221,cs),
(278,45,ls),
(274,28,o),
(287,0,o),
(325,0,cs),
(349,0,o),
(369,22,o),
(371,36,cs),
(399,196,ls)
);
}
);
width = 504;
}
);
metricLeft = G;
metricRight = G;
},
{
glyphname = h.sc;
lastChange = "2022-03-10 05:15:18 +0000";
layers = (
{
layerId = m01;
shapes = (
{
closed = 1;
nodes = (
(379,381,o),
(370,395,o),
(352,395,cs),
(337,395,o),
(328,384,o),
(326,371,cs),
(266,30,ls),
(264,17,o),
(270,0,o),
(290,0,cs),
(304,0,o),
(314,10,o),
(316,23,cs),
(376,364,ls)
);
},
{
closed = 1;
nodes = (
(149,381,o),
(140,395,o),
(124,395,cs),
(109,395,o),
(99,385,o),
(96,369,cs),
(36,29,ls),
(34,15,o),
(43,0,o),
(60,0,cs),
(77,0,o),
(84,13,o),
(86,24,cs),
(145,359,ls)
);
},
{
closed = 1;
nodes = (
(306,174,l),
(314,224,l),
(108,224,l),
(100,174,l)
);
}
);
width = 411;
},
{
layerId = m002;
shapes = (
{
closed = 1;
nodes = (
(442,371,o),
(421,395,o),
(390,395,cs),
(365,395,o),
(347,378,o),
(343,355,cs),
(290,53,ls),
(286,28,o),
(302,0,o),
(335,0,cs),
(360,0,o),
(380,17,o),
(384,40,cs),
(437,342,ls)
);
},
{
closed = 1;
nodes = (
(239,373,o),
(217,395,o),
(188,395,cs),
(163,395,o),
(143,378,o),
(139,353,cs),
(86,52,ls),
(81,25,o),
(102,0,o),
(132,0,cs),
(157,0,o),
(176,17,o),
(180,40,cs),
(232,336,ls)
);
},
{
closed = 1;
nodes = (
(327,151,l),
(341,225,l),
(189,225,l),
(175,151,l)
);
}
);
width = 516;
}
);
metricLeft = H;
metricRight = H;
},
{
glyphname = i.sc;
lastChange = "2022-03-10 05:15:18 +0000";
layers = (
{
layerId = m01;
shapes = (
{
closed = 1;
nodes = (
(121,42,l),
(176,358,l),
(125,358,l),
(70,42,l)
);
},
{
closed = 1;
nodes = (
(139,0,o),
(148,12,o),
(148,25,cs),
(148,38,o),
(139,50,o),
(122,50,cs),
(66,50,ls),
(49,50,o),
(40,38,o),
(40,25,cs),
(40,12,o),
(49,0,o),
(66,0,cs),
(122,0,ls)
);
},
{
closed = 1;
nodes = (
(196,345,o),
(204,357,o),
(204,370,cs),
(204,383,o),
(196,396,o),
(178,396,cs),
(123,396,ls),
(105,396,o),
(97,383,o),
(97,370,cs),
(97,357,o),
(105,345,o),
(123,345,cs),
(178,345,ls)
);
}
);
width = 243;
},
{
layerId = m002;
shapes = (
{
closed = 1;
nodes = (
(211,61,l),
(260,334,l),
(165,334,l),
(116,61,l)
);
},
{
closed = 1;
nodes = (
(216,0,o),
(236,13,o),
(236,38,cs),
(236,62,o),
(216,75,o),
(188,75,cs),
(138,75,ls),
(110,75,o),
(90,62,o),
(90,38,cs),
(90,13,o),
(110,0,o),
(138,0,cs),
(188,0,ls)
);
},
{
closed = 1;
nodes = (
(267,320,o),
(286,333,o),
(286,357,cs),
(286,382,o),
(267,396,o),
(238,396,cs),
(189,396,ls),
(160,396,o),
(141,382,o),
(141,357,cs),
(141,333,o),
(160,320,o),
(189,320,cs),
(238,320,ls)
);
}
);
width = 369;
}
);
metricLeft = I;
metricRight = I;
},
{
glyphname = j.sc;
lastChange = "2022-03-10 05:15:18 +0000";
layers = (
{
layerId = m01;
shapes = (
{
closed = 1;
nodes = (
(239,354,l),
(209,184,ls),
(202,144,o),
(195,108,o),
(182,82,cs),
(175,68,o),
(163,60,o),
(142,57,cs),
(127,55,o),
(75,53,o),
(61,53,cs),
(49,53,o),
(36,40,o),
(36,26,cs),
(36,12,o),
(49,0,o),
(61,0,cs),
(79,0,o),
(131,3,o),
(142,4,cs),
(186,10,o),
(210,29,o),
(225,55,cs),
(241,78,o),
(256,159,o),
(260,184,cs),
(290,354,l)
);
},
{
closed = 1;
nodes = (
(360,343,o),
(369,356,o),
(369,369,cs),
(369,382,o),
(360,396,o),
(343,396,cs),
(193,396,ls),
(176,396,o),
(167,384,o),
(167,369,cs),
(167,354,o),
(176,343,o),
(193,343,cs),
(343,343,ls)
);
}
);
width = 403;
},
{
layerId = m002;
shapes = (
{
closed = 1;
nodes = (
(279,331,l),
(254,190,ls),
(248,154,o),
(243,131,o),
(235,109,cs),
(231,99,o),
(213,95,o),
(204,94,cs),
(193,93,o),
(145,93,o),
(133,93,cs),
(108,93,o),
(86,70,o),
(86,46,cs),
(86,20,o),
(109,0,o),
(133,0,cs),
(139,0,o),
(164,0,o),
(175,0,cs),
(252,0,o),
(293,23,o),
(317,60,cs),
(330,80,o),
(345,160,o),
(349,182,cs),
(374,331,l)
);
},
{
closed = 1;
nodes = (
(425,318,o),
(445,333,o),
(445,357,cs),
(445,381,o),
(426,396,o),
(397,396,cs),
(265,396,ls),
(236,396,o),
(217,384,o),
(217,357,cs),
(217,331,o),
(236,318,o),
(265,318,cs),
(397,318,ls)
);
}
);
width = 522;
}
);
metricLeft = J;
metricRight = J;
},
{
glyphname = k.sc;
lastChange = "2022-03-10 05:15:18 +0000";
layers = (
{
layerId = m01;
shapes = (
{
closed = 1;
nodes = (
(150,382,o),
(142,396,o),
(125,396,cs),
(110,396,o),
(100,385,o),
(97,369,cs),
(37,32,ls),
(34,16,o),
(45,0,o),
(61,0,cs),
(79,0,o),
(85,15,o),
(87,28,cs),
(147,363,ls)
);
},
{
closed = 1;
nodes = (
(100,210,l),
(100,179,l),
(213,16,ls),
(220,6,o),
(229,0,o),
(239,0,cs),
(251,0,o),
(260,8,o),
(262,18,c),
(265,25,o),
(263,32,o),
(256,42,cs),
(139,210,l)
);
},
{
closed = 1;
nodes = (
(135,202,l),
(309,346,ls),
(318,353,o),
(323,362,o),
(325,369,cs),
(327,383,o),
(317,396,o),
(303,396,cs),
(296,396,o),
(286,393,o),
(277,385,cs),
(100,238,l),
(100,202,l)
);
}
);
width = 309;
},
{
layerId = m002;
shapes = (
{
closed = 1;
nodes = (
(239,372,o),
(219,396,o),
(189,396,cs),
(164,396,o),
(144,378,o),
(140,353,cs),
(87,55,ls),
(81,27,o),
(103,0,o),
(133,0,cs),
(161,0,o),
(177,20,o),
(181,44,cs),
(234,340,ls)
);
},
{
closed = 1;
nodes = (
(142,232,l),
(142,174,l),
(246,24,ls),
(257,8,o),
(274,0,o),
(290,0,cs),
(312,0,o),
(331,14,o),
(335,34,c),
(339,46,o),
(336,59,o),
(326,73,cs),
(216,232,l)
);
},
{
closed = 1;
nodes = (
(208,179,l),
(369,312,ls),
(381,321,o),
(389,334,o),
(391,345,cs),
(395,373,o),
(374,396,o),
(347,396,cs),
(335,396,o),
(319,391,o),
(306,379,cs),
(142,243,l),
(142,179,l)
);
}
);
width = 419;
}
);
metricLeft = K;
metricRight = K;
},
{
glyphname = l.sc;
lastChange = "2022-03-10 05:15:18 +0000";
layers = (
{
layerId = m01;
shapes = (
{
closed = 1;
nodes = (
(149,381,o),
(142,395,o),
(124,395,cs),
(109,395,o),
(99,385,o),
(96,369,cs),
(36,29,ls),
(33,14,o),
(43,0,o),
(61,0,cs),
(79,0,o),
(84,14,o),
(86,24,cs),
(146,363,ls)
);
},
{
closed = 1;
nodes = (
(248,0,ls),
(264,0,o),
(273,14,o),
(273,27,cs),
(273,40,o),
(264,53,o),
(248,53,cs),
(60,53,l),
(60,0,l)
);
}
);
width = 318;
},
{
layerId = m002;
shapes = (
{
closed = 1;
nodes = (
(239,372,o),
(219,395,o),
(189,395,cs),
(165,395,o),
(144,379,o),
(139,353,cs),
(86,52,ls),
(81,24,o),
(102,0,o),
(133,0,cs),
(160,0,o),
(176,18,o),
(180,41,cs),
(233,340,ls)
);
},
{
closed = 1;
nodes = (
(299,0,ls),
(327,0,o),
(346,17,o),
(346,41,cs),
(346,64,o),
(327,77,o),
(299,77,cs),
(132,77,l),
(132,0,l)
);
}
);
width = 428;
}
);
metricLeft = L;
metricRight = L;
},
{
glyphname = m.sc;
lastChange = "2022-03-10 05:15:18 +0000";
layers = (
{
layerId = m01;
shapes = (
{
closed = 1;
nodes = (
(210,396,l),
(195,396,o),
(189,388,o),
(181,373,cs),
(6,39,ls),
(-3,21,o),
(6,0,o),
(26,0,cs),
(34,0,o),
(45,5,o),
(53,21,cs),
(213,327,l)
);
},
{
closed = 1;
nodes = (
(234,374,ls),
(233,385,o),
(227,396,o),
(210,396,c),
(187,327,l),
(211,24,ls),
(212,11,o),
(218,0,o),
(235,0,c),
(259,50,l)
);
},
{
closed = 1;
nodes = (
(250,0,o),
(257,8,o),
(262,17,cs),
(424,327,l),
(421,396,l),
(408,396,o),
(399,388,o),
(394,378,cs),
(227,58,l),
(234,0,l)
);
},
{
closed = 1;
nodes = (
(445,384,o),
(435,396,o),
(421,396,c),
(399,327,l),
(424,25,ls),
(425,12,o),
(433,0,o),
(450,0,cs),
(466,0,o),
(475,13,o),
(474,28,cs),
(446,367,ls)
);
}
);
width = 533;
},
{
layerId = m002;
shapes = (
{
closed = 1;
nodes = (
(265,396,l),
(243,396,o),
(231,393,o),
(216,364,cs),
(61,67,ls),
(45,36,o),
(66,0,o),
(101,0,cs),
(117,0,o),
(136,9,o),
(147,31,cs),
(292,307,l)
);
},
{
closed = 1;
nodes = (
(310,356,ls),
(308,385,o),
(287,396,o),
(266,396,c),
(219,315,l),
(240,42,ls),
(242,11,o),
(264,0,o),
(286,0,c),
(332,63,l)
);
},
{
closed = 1;
nodes = (
(310,0,o),
(320,5,o),
(332,28,cs),
(478,307,l),
(460,396,l),
(434,396,o),
(416,389,o),
(404,366,cs),
(253,78,l),
(287,0,l)
);
},
{
closed = 1;
nodes = (
(503,389,o),
(486,396,o),
(459,396,c),
(413,315,l),
(436,43,ls),
(438,19,o),
(457,0,o),
(484,0,cs),
(513,0,o),
(533,22,o),
(531,50,cs),
(506,350,ls)
);
}
);
width = 641;
}
);
metricLeft = M;
metricRight = M;
},
{
glyphname = n.sc;
lastChange = "2022-03-10 05:15:18 +0000";
layers = (
{
layerId = m01;
shapes = (
{
closed = 1;
nodes = (
(150,376,ls),
(145,387,o),
(138,396,o),
(122,396,c),
(112,340,l),
(264,22,ls),
(269,12,o),
(277,0,o),
(291,0,c),
(305,52,l)
);
},
{
closed = 1;
nodes = (
(123,396,l),
(107,396,o),
(99,386,o),
(96,369,cs),
(36,29,ls),
(34,15,o),
(43,0,o),
(60,0,cs),
(77,0,o),
(84,13,o),
(86,26,cs),
(142,340,l)
);
},
{
closed = 1;
nodes = (
(307,0,o),
(315,12,o),
(317,22,cs),
(376,363,ls),
(379,381,o),
(371,395,o),
(354,395,cs),
(339,395,o),
(329,385,o),
(326,369,cs),
(271,52,l),
(292,0,l)
);
}
);
width = 412;
},
{
layerId = m002;
shapes = (
{
closed = 1;
nodes = (
(235,366,ls),
(224,389,o),
(205,396,o),
(185,396,c),
(152,321,l),
(290,32,ls),
(299,14,o),
(309,0,o),
(347,0,c),
(375,71,l)
);
},
{
closed = 1;
nodes = (
(184,396,l),
(161,396,o),
(146,390,o),
(139,353,cs),
(86,52,ls),
(81,25,o),
(102,0,o),
(132,0,cs),
(157,0,o),
(178,17,o),
(182,42,cs),
(232,326,l)
);
},
{
closed = 1;
nodes = (
(372,0,o),
(381,15,o),
(385,38,cs),
(437,341,ls),
(442,368,o),
(424,395,o),
(392,395,cs),
(368,395,o),
(346,379,o),
(342,353,cs),
(293,67,l),
(348,0,l)
);
}
);
width = 517;
}
);
metricLeft = N;
metricRight = N;
},
{
glyphname = o.sc;
lastChange = "2022-03-10 05:15:18 +0000";
layers = (
{
layerId = m01;
shapes = (
{
closed = 1;
nodes = (
(241,-2,o),
(353,154,o),
(361,262,cs),
(367,332,o),
(332,396,o),
(240,396,cs),
(152,396,o),
(101,337,o),
(75,249,cs),
(68,226,o),
(63,199,o),
(61,172,cs),
(54,93,o),
(73,-2,o),
(148,-2,cs)
);
},
{
closed = 1;
nodes = (
(115,51,o),
(107,114,o),
(111,165,cs),
(113,188,o),
(117,212,o),
(122,231,cs),
(143,307,o),
(175,343,o),
(237,343,cs),
(307,343,o),
(314,295,o),
(311,260,cs),
(302,171,o),
(196,51,o),
(147,51,cs)
);
}
);
width = 397;
},
{
layerId = m002;
shapes = (
{
closed = 1;
nodes = (
(319,-3,o),
(425,148,o),
(433,252,cs),
(439,325,o),
(399,396,o),
(301,396,cs),
(209,396,o),
(156,333,o),
(131,249,cs),
(125,227,o),
(119,201,o),
(118,175,cs),
(111,100,o),
(131,-3,o),
(220,-3,cs)
);
},
{
closed = 1;
nodes = (
(210,90,o),
(208,123,o),
(212,166,cs),
(214,186,o),
(217,206,o),
(221,220,cs),
(238,283,o),
(255,303,o),
(298,303,cs),
(339,303,o),
(342,282,o),
(339,254,cs),
(332,182,o),
(250,90,o),
(219,90,cs)
);
}
);
width = 524;
}
);
metricLeft = O;
metricRight = O;
},
{
glyphname = p.sc;
lastChange = "2022-03-10 05:15:18 +0000";
layers = (
{
layerId = m01;
shapes = (
{
closed = 1;
nodes = (
(190,185,o),
(313,178,o),
(313,283,cs),
(313,363,o),
(249,396,o),
(123,396,c),
(123,343,l),
(225,344,o),
(263,324,o),
(263,286,cs),
(263,231,o),
(172,238,o),
(108,238,c),
(99,185,l)
);
},
{
closed = 1;
nodes = (
(149,383,o),
(135,396,o),
(124,396,cs),
(106,396,o),
(99,384,o),
(96,369,cs),
(36,29,ls),
(34,15,o),
(43,0,o),
(60,0,cs),
(77,0,o),
(84,14,o),
(86,24,cs),
(146,365,ls)
);
}
);
width = 300;
},
{
layerId = m002;
shapes = (
{
closed = 1;
nodes = (
(206,151,o),
(357,139,o),
(381,273,cs),
(396,358,o),
(302,396,o),
(187,396,c),
(187,303,l),
(280,305,o),
(297,301,o),
(289,261,cs),
(283,232,o),
(217,222,o),
(154,222,c),
(138,151,l)
);
},
{
closed = 1;
nodes = (
(239,373,o),
(214,396,o),
(189,396,cs),
(163,396,o),
(144,381,o),
(139,353,cs),
(86,52,ls),
(81,25,o),
(102,0,o),
(132,0,cs),
(159,0,o),
(177,20,o),
(181,41,cs),
(234,342,ls)
);
}
);
width = 422;
}
);
metricLeft = P;
metricRight = P;
},
{
glyphname = q.sc;
lastChange = "2022-03-10 05:15:18 +0000";
layers = (
{
layerId = m01;
shapes = (
{
closed = 1;
nodes = (
(241,-2,o),
(350,138,o),
(359,248,cs),
(367,325,o),
(326,396,o),
(238,396,cs),
(151,396,o),
(101,341,o),
(75,249,cs),
(68,225,o),
(63,198,o),
(60,171,cs),
(54,91,o),
(73,-2,o),
(149,-2,cs)
);
},
{
closed = 1;
nodes = (
(204,120,o),
(187,123,o),
(175,113,cs),
(164,105,o),
(162,92,o),
(173,76,cs),
(233,-11,ls),
(242,-25,o),
(256,-31,o),
(268,-25,cs),
(280,-18,o),
(285,2,o),
(275,16,cs),
(214,105,ls)
);
},
{
closed = 1;
nodes = (
(112,51,o),
(106,111,o),
(110,161,cs),
(113,187,o),
(117,211,o),
(123,232,cs),
(144,306,o),
(172,343,o),
(234,343,cs),
(297,343,o),
(313,295,o),
(309,250,cs),
(300,162,o),
(206,51,o),
(149,51,cs)
);
}
);
width = 397;
},
{
layerId = m002;
shapes = (
{
closed = 1;
nodes = (
(319,-2,o),
(423,135,o),
(432,240,cs),
(440,319,o),
(395,396,o),
(300,396,cs),
(209,396,o),
(157,338,o),
(131,249,cs),
(124,226,o),
(120,200,o),
(117,176,cs),
(112,100,o),
(131,-2,o),
(221,-2,cs)
);
},
{
closed = 1;
nodes = (
(286,145,o),
(260,158,o),
(239,140,cs),
(219,125,o),
(220,102,o),
(237,77,cs),
(289,0,ls),
(305,-24,o),
(332,-30,o),
(351,-18,cs),
(374,-4,o),
(370,19,o),
(355,42,cs),
(302,121,ls)
);
},
{
closed = 1;
nodes = (
(211,88,o),
(208,121,o),
(211,163,cs),
(214,185,o),
(218,205,o),
(222,222,cs),
(240,284,o),
(254,303,o),
(296,303,cs),
(334,303,o),
(342,281,o),
(338,246,cs),
(329,162,o),
(259,88,o),
(221,88,cs)
);
}
);
width = 525;
}
);
metricLeft = Q;
metricRight = Q;
},
{
glyphname = r.sc;
lastChange = "2022-03-10 05:15:18 +0000";
layers = (
{
layerId = m01;
shapes = (
{
closed = 1;
nodes = (
(192,175,o),
(294,179,o),
(313,281,cs),
(327,362,o),
(248,396,o),
(123,396,c),
(123,343,l),
(228,344,o),
(270,325,o),
(263,288,cs),
(253,231,o),
(181,227,o),
(107,227,c),
(99,175,l)
);
},
{
closed = 1;
nodes = (
(99,188,l),
(222,15,ls),
(230,4,o),
(237,0,o),
(244,0,cs),
(268,0,o),
(276,26,o),
(264,43,cs),
(160,188,l)
);
},
{
closed = 1;
nodes = (
(149,381,o),
(143,396,o),
(124,396,cs),
(106,396,o),
(99,384,o),
(96,369,cs),
(37,33,ls),
(34,15,o),
(44,0,o),
(60,0,cs),
(79,0,o),
(86,14,o),
(88,28,cs),
(146,363,ls)
);
}
);
width = 314;
},
{
layerId = m002;
shapes = (
{
closed = 1;
nodes = (
(222,151,o),
(359,145,o),
(381,267,cs),
(398,363,o),
(303,396,o),
(188,396,c),
(188,303,l),
(297,303,o),
(290,284,o),
(287,268,cs),
(281,233,o),
(229,225,o),
(152,225,c),
(138,151,l)
);
},
{
closed = 1;
nodes = (
(149,172,l),
(256,23,ls),
(268,7,o),
(281,0,o),
(295,0,cs),
(336,0,o),
(357,43,o),
(334,74,cs),
(262,172,l)
);
},
{
closed = 1;
nodes = (
(239,374,o),
(218,396,o),
(189,396,cs),
(163,396,o),
(144,381,o),
(139,353,cs),
(87,56,ls),
(82,26,o),
(102,0,o),
(132,0,cs),
(160,0,o),
(178,18,o),
(182,44,cs),
(233,340,ls)
);
}
);
width = 425;
}
);
metricLeft = R;
metricRight = R;
},
{
glyphname = s.sc;
lastChange = "2022-03-10 05:15:18 +0000";
layers = (
{
layerId = m01;
shapes = (
{
closed = 1;
nodes = (
(185,0,o),
(293,31,o),
(293,117,cs),
(293,172,o),
(248,203,o),
(238,210,cs),
(223,220,o),
(210,229,o),
(199,237,cs),
(153,269,o),
(133,282,o),
(133,295,cs),
(133,320,o),
(186,343,o),
(228,343,cs),
(316,343,ls),
(330,343,o),
(341,356,o),
(341,370,cs),
(341,391,o),
(325,396,o),
(316,396,cs),
(229,396,ls),
(150,396,o),
(83,348,o),
(83,293,cs),
(83,253,o),
(118,229,o),
(170,194,cs),
(180,187,o),
(191,179,o),
(203,171,cs),
(218,160,o),
(243,142,o),
(243,116,cs),
(243,69,o),
(163,53,o),
(127,53,cs),
(59,53,ls),
(45,53,o),
(34,39,o),
(34,26,cs),
(34,5,o),
(51,0,o),
(59,0,cs),
(127,0,ls)
);
}
);
width = 357;
},
{
layerId = m002;
shapes = (
{
closed = 1;
nodes = (
(260,0,o),
(378,31,o),
(378,126,cs),
(378,187,o),
(323,221,o),
(315,227,cs),
(303,236,o),
(294,242,o),
(282,250,cs),
(258,266,o),
(233,280,o),
(233,285,cs),
(233,292,o),
(260,303,o),
(292,303,cs),
(372,303,ls),
(399,303,o),
(419,326,o),
(419,350,cs),
(419,382,o),
(399,396,o),
(372,396,cs),
(292,396,ls),
(211,396,o),
(137,346,o),
(137,282,cs),
(137,235,o),
(179,209,o),
(226,175,cs),
(234,169,o),
(245,162,o),
(255,155,cs),
(268,146,o),
(280,137,o),
(280,125,cs),
(280,103,o),
(231,93,o),
(202,93,cs),
(141,93,ls),
(115,93,o),
(94,69,o),
(94,46,cs),
(94,14,o),
(121,0,o),
(141,0,cs),
(202,0,ls)
);
}
);
width = 493;
}
);
metricLeft = S;
metricRight = S;
},
{
glyphname = t.sc;
lastChange = "2022-03-10 05:18:28 +0000";
layers = (
{
layerId = m01;
shapes = (
{
closed = 1;
nodes = (
(185,358,l),
(128,29,ls),
(126,15,o),
(134,0,o),
(152,0,cs),
(170,0,o),
(176,14,o),
(178,24,cs),
(236,358,l)
);
},
{
closed = 1;
nodes = (
(322,342,o),
(331,353,o),
(331,368,cs),
(331,383,o),
(322,395,o),
(306,395,cs),
(121,395,ls),
(104,395,o),
(95,383,o),
(95,368,cs),
(95,353,o),
(104,342,o),
(121,342,cs),
(306,342,ls)
);
}
);
width = 258;
},
{
layerId = m002;
shapes = (
{
closed = 1;
nodes = (
(221,313,l),
(175,52,ls),
(170,25,o),
(191,0,o),
(222,0,cs),
(249,0,o),
(267,18,o),
(271,40,cs),
(319,313,l)
);
},
{
closed = 1;
nodes = (
(385,302,o),
(405,322,o),
(405,348,cs),
(405,375,o),
(385,395,o),
(358,395,cs),
(195,395,ls),
(167,395,o),
(147,375,o),
(147,348,cs),
(147,322,o),
(167,302,o),
(195,302,cs),
(358,302,ls)
);
}
);
width = 479;
}
);
metricLeft = T;
metricRight = T;
},
{
glyphname = u.sc;
lastChange = "2022-03-10 05:15:18 +0000";
layers = (
{
layerId = m01;
shapes = (
{
closed = 1;
nodes = (
(304,305,l),
(292,254,o),
(270,227,o),
(259,209,cs),
(224,151,o),
(145,50,o),
(106,50,cs),
(92,50,o),
(95,76,o),
(102,113,cs),
(147,364,ls),
(150,379,o),
(142,394,o),
(126,395,cs),
(112,395,o),
(100,385,o),
(97,367,cs),
(52,118,ls),
(38,38,o),
(59,-2,o),
(101,-2,cs),
(155,-2,o),
(231,70,o),
(316,196,c),
(316,305,l)
);
},
{
closed = 1;
nodes = (
(369,381,o),
(359,395,o),
(341,395,cs),
(327,395,o),
(317,385,o),
(315,371,cs),
(255,29,ls),
(252,12,o),
(264,-1,o),
(279,-1,cs),
(292,-1,o),
(303,9,o),
(305,23,cs),
(366,366,ls)
);
}
);
width = 400;
},
{
layerId = m002;
shapes = (
{
closed = 1;
nodes = (
(328,316,l),
(321,264,o),
(303,232,o),
(291,213,cs),
(260,161,o),
(204,90,o),
(195,90,cs),
(190,90,o),
(194,119,o),
(199,148,cs),
(234,341,ls),
(239,368,o),
(221,394,o),
(192,396,cs),
(167,396,o),
(145,379,o),
(140,352,cs),
(100,131,ls),
(84,44,o),
(115,-2,o),
(169,-2,cs),
(231,-2,o),
(296,77,o),
(374,194,c),
(384,316,l)
);
},
{
closed = 1;
nodes = (
(433,371,o),
(412,396,o),
(381,396,cs),
(357,396,o),
(337,378,o),
(333,355,cs),
(280,52,ls),
(275,23,o),
(298,-1,o),
(326,-1,cs),
(350,-1,o),
(370,16,o),
(374,39,cs),
(428,343,ls)
);
}
);
width = 506;
}
);
metricLeft = U;
metricRight = U;
},
{
glyphname = v.sc;
lastChange = "2022-03-10 05:15:18 +0000";
layers = (
{
layerId = m01;
shapes = (
{
closed = 1;
nodes = (
(131,0,o),
(141,13,o),
(145,21,cs),
(321,358,ls),
(331,377,o),
(318,395,o),
(302,395,cs),
(286,395,o),
(279,386,o),
(272,373,cs),
(107,57,l),
(115,0,l)
);
},
{
closed = 1;
nodes = (
(114,370,ls),
(113,384,o),
(105,395,o),
(88,395,cs),
(71,395,o),
(63,381,o),
(64,367,cs),
(92,28,ls),
(93,13,o),
(103,0,o),
(116,0,c),
(140,57,l)
);
}
);
width = 322;
},
{
layerId = m002;
shapes = (
{
closed = 1;
nodes = (
(195,0,o),
(218,11,o),
(229,32,cs),
(384,329,ls),
(401,362,o),
(378,395,o),
(345,395,cs),
(322,395,o),
(305,383,o),
(295,364,cs),
(145,77,l),
(176,0,l)
);
},
{
closed = 1;
nodes = (
(204,352,ls),
(202,377,o),
(183,395,o),
(156,395,cs),
(126,395,o),
(109,372,o),
(109,347,c),
(134,46,ls),
(137,13,o),
(159,0,o),
(177,0,c),
(227,69,l)
);
}
);
width = 445;
}
);
metricLeft = V;
metricRight = V;
},
{
glyphname = w.sc;
lastChange = "2022-03-10 05:15:18 +0000";
layers = (
{
layerId = m01;
shapes = (
{
closed = 1;
nodes = (
(342,0,o),
(351,10,o),
(357,21,cs),
(533,358,ls),
(542,375,o),
(531,396,o),
(514,396,cs),
(501,396,o),
(490,386,o),
(483,373,cs),
(321,63,l),
(328,0,l)
);
},
{
closed = 1;
nodes = (
(114,369,ls),
(113,383,o),
(105,396,o),
(88,396,cs),
(71,396,o),
(63,381,o),
(64,367,cs),
(92,28,ls),
(93,14,o),
(102,0,o),
(117,0,c),
(139,63,l)
);
},
{
closed = 1;
nodes = (
(131,0,o),
(138,9,o),
(145,22,cs),
(309,337,l),
(300,396,l),
(287,396,o),
(277,383,o),
(272,374,cs),
(110,63,l),
(116,0,l)
);
},
{
closed = 1;
nodes = (
(327,370,ls),
(326,384,o),
(315,396,o),
(299,396,c),
(280,337,l),
(304,22,ls),
(305,10,o),
(315,0,o),
(329,0,c),
(352,63,l)
);
}
);
width = 534;
},
{
layerId = m002;
shapes = (
{
closed = 1;
nodes = (
(391,0,o),
(404,8,o),
(416,30,cs),
(572,329,ls),
(589,361,o),
(567,396,o),
(533,396,cs),
(512,396,o),
(493,383,o),
(483,364,cs),
(336,83,l),
(369,0,l)
);
},
{
closed = 1;
nodes = (
(205,351,ls),
(203,379,o),
(181,396,o),
(156,396,cs),
(124,396,o),
(108,370,o),
(110,346,cs),
(134,46,ls),
(136,15,o),
(145,0,o),
(169,0,c),
(227,76,l)
);
},
{
closed = 1;
nodes = (
(194,0,o),
(216,9,o),
(228,31,cs),
(377,317,l),
(344,396,l),
(324,396,o),
(310,388,o),
(297,364,cs),
(149,83,l),
(170,0,l)
);
},
{
closed = 1;
nodes = (
(392,351,l),
(391,383,o),
(369,396,o),
(345,396,c),
(301,324,l),
(322,40,ls),
(324,9,o),
(349,0,o),
(368,0,c),
(415,76,l)
);
}
);
width = 633;
}
);
metricLeft = W;
metricRight = W;
},
{
glyphname = x.sc;
lastChange = "2022-03-10 05:15:18 +0000";
layers = (
{
layerId = m01;
shapes = (
{
closed = 1;
nodes = (
(376,365,o),
(377,384,o),
(366,392,cs),
(355,399,o),
(336,396,o),
(325,383,cs),
(42,42,ls),
(32,30,o),
(34,13,o),
(44,5,cs),
(56,-3,o),
(73,-3,o),
(83,10,cs),
(366,351,l)
);
},
{
closed = 1;
nodes = (
(140,393,o),
(126,399,o),
(114,394,cs),
(100,390,o),
(93,373,o),
(101,356,cs),
(262,18,ls),
(270,1,o),
(286,-4,o),
(300,3,cs),
(311,10,o),
(316,24,o),
(310,37,cs),
(148,377,ls)
);
}
);
width = 377;
},
{
layerId = m002;
shapes = (
{
closed = 1;
nodes = (
(441,339,o),
(442,372,o),
(417,389,cs),
(398,402,o),
(364,397,o),
(347,376,cs),
(98,75,ls),
(80,53,o),
(83,26,o),
(102,10,cs),
(123,-6,o),
(157,-3,o),
(175,18,cs),
(425,320,ls)
);
},
{
closed = 1;
nodes = (
(220,392,o),
(193,402,o),
(171,392,c),
(145,384,o),
(132,356,o),
(145,328,cs),
(288,29,ls),
(301,1,o),
(336,-8,o),
(359,6,cs),
(379,20,o),
(388,42,o),
(377,65,cs),
(233,366,ls)
);
}
);
width = 484;
}
);
metricLeft = X;
metricRight = X;
},
{
glyphname = y.sc;
lastChange = "2022-03-10 05:18:32 +0000";
layers = (
{
layerId = m01;
shapes = (
{
closed = 1;
nodes = (
(365,351,ls),
(377,366,o),
(375,382,o),
(364,390,cs),
(352,400,o),
(337,396,o),
(326,382,cs),
(187,215,l),
(217,171,l)
);
},
{
closed = 1;
nodes = (
(182,208,l),
(150,29,ls),
(147,14,o),
(157,0,o),
(174,0,cs),
(193,0,o),
(199,14,o),
(201,24,cs),
(232,208,l)
);
},
{
closed = 1;
nodes = (
(225,215,l),
(145,377,ls),
(138,391,o),
(126,400,o),
(109,394,cs),
(96,389,o),
(92,372,o),
(99,357,cs),
(187,175,l)
);
}
);
width = 299;
},
{
layerId = m002;
shapes = (
{
closed = 1;
nodes = (
(432,320,l),
(448,342,o),
(449,368,o),
(427,385,cs),
(408,401,o),
(376,399,o),
(356,376,cs),
(222,214,l),
(279,134,l)
);
},
{
closed = 1;
nodes = (
(229,230,l),
(197,52,ls),
(192,24,o),
(213,0,o),
(243,0,cs),
(271,0,o),
(287,19,o),
(292,40,c),
(323,230,l)
);
},
{
closed = 1;
nodes = (
(318,209,l),
(240,366,ls),
(227,392,o),
(200,402,o),
(176,392,cs),
(149,382,o),
(142,352,o),
(153,329,cs),
(247,136,l)
);
}
);
width = 517;
}
);
metricLeft = Y;
metricRight = Y;
},
{
glyphname = z.sc;
lastChange = "2022-03-10 05:15:18 +0000";
layers = (
{
layerId = m01;
shapes = (
{
closed = 1;
nodes = (
(373,360,o),
(374,373,o),
(369,383,cs),
(365,389,o),
(356,395,o),
(344,395,cs),
(337,395,o),
(330,387,o),
(326,383,cs),
(42,40,ls),
(37,33,o),
(32,23,o),
(37,13,cs),
(41,5,o),
(50,0,o),
(65,0,cs),
(73,0,o),
(79,6,o),
(83,10,cs),
(365,351,ls)
);
},
{
closed = 1;
nodes = (
(285,0,ls),
(302,0,o),
(311,11,o),
(311,26,cs),
(311,41,o),
(302,53,o),
(285,53,cs),
(110,53,l),
(64,0,l)
);
},
{
closed = 1;
nodes = (
(346,395,l),
(122,395,ls),
(105,395,o),
(96,381,o),
(96,368,cs),
(96,355,o),
(105,342,o),
(122,342,cs),
(301,342,l)
);
}
);
width = 406;
},
{
layerId = m002;
shapes = (
{
closed = 1;
nodes = (
(438,333,o),
(438,354,o),
(430,372,cs),
(422,386,o),
(404,395,o),
(385,395,cs),
(375,395,o),
(356,386,o),
(349,380,c),
(97,75,ls),
(87,62,o),
(82,44,o),
(90,26,cs),
(97,10,o),
(115,0,o),
(138,0,cs),
(154,0,o),
(168,8,o),
(176,17,cs),
(425,318,ls)
);
},
{
closed = 1;
nodes = (
(333,0,ls),
(361,0,o),
(381,20,o),
(381,46,cs),
(381,72,o),
(361,93,o),
(333,93,cs),
(217,93,l),
(136,0,l)
);
},
{
closed = 1;
nodes = (
(387,395,l),
(188,395,ls),
(159,395,o),
(140,372,o),
(140,348,cs),
(140,324,o),
(160,302,o),
(188,302,cs),
(308,302,l)
);
}
);
width = 514;
}
);
metricLeft = Z;
metricRight = Z;
},
{
glyphname = zero;
lastChange = "2022-02-28 10:41:34 +0000";
layers = (
{
layerId = m01;
shapes = (
{
closed = 1;
nodes = (
(273,-3,o),
(442,228,o),
(442,402,cs),
(442,477,o),
(413,568,o),
(307,568,cs),
(118,568,o),
(41,280,o),
(41,160,cs),
(41,81,o),
(75,-4,o),
(150,-4,cs)
);
},
{
closed = 1;
nodes = (
(118,47,o),
(93,84,o),
(93,155,cs),
(93,279,o),
(172,517,o),
(309,517,cs),
(374,517,o),
(390,463,o),
(390,405,cs),
(390,212,o),
(214,47,o),
(149,47,cs)
);
}
);
width = 445;
},
{
layerId = m002;
shapes = (
{
closed = 1;
nodes = (
(315,-3,o),
(480,223,o),
(480,395,cs),
(480,471,o),
(448,568,o),
(328,568,cs),
(128,568,o),
(53,290,o),
(53,172,cs),
(53,91,o),
(90,-4,o),
(180,-4,cs)
);
},
{
closed = 1;
nodes = (
(164,88,o),
(152,107,o),
(152,168,cs),
(152,281,o),
(220,476,o),
(330,476,cs),
(372,476,o),
(381,449,o),
(381,398,cs),
(381,225,o),
(230,88,o),
(180,88,cs)
);
}
);
width = 495;
}
);
unicode = 48;
},
{
glyphname = one;
lastChange = "2022-02-28 10:41:51 +0000";
layers = (
{
layerId = m01;
shapes = (
{
closed = 1;
nodes = (
(315,560,o),
(304,568,o),
(291,568,cs),
(278,568,o),
(264,561,o),
(261,543,cs),
(170,28,ls),
(167,9,o),
(179,0,o),
(192,0,cs),
(204,0,o),
(217,6,o),
(220,23,cs),
(312,543,ls)
);
}
);
width = 445;
},
{
layerId = m002;
shapes = (
{
closed = 1;
nodes = (
(364,548,o),
(340,568,o),
(313,568,cs),
(290,568,o),
(264,554,o),
(259,526,cs),
(175,51,ls),
(169,18,o),
(195,0,o),
(222,0,cs),
(244,0,o),
(269,12,o),
(274,39,cs),
(359,518,ls)
);
}
);
width = 495;
}
);
unicode = 49;
},
{
glyphname = two;
lastChange = "2022-02-28 10:42:06 +0000";
layers = (
{
layerId = m01;
shapes = (
{
closed = 1;
nodes = (
(126,49,l),
(183,115,o),
(311,263,o),
(324,278,cs),
(449,431,o),
(460,501,o),
(381,549,cs),
(312,591,o),
(193,558,o),
(130,505,cs),
(106,485,o),
(110,472,o),
(118,463,cs),
(126,454,o),
(142,451,o),
(167,471,cs),
(219,513,o),
(315,531,o),
(358,505,cs),
(408,475,o),
(355,393,o),
(303,332,cs),
(277,301,o),
(174,185,o),
(39,35,cs),
(22,16,o),
(33,0,o),
(55,0,c),
(76,0,l)
);
},
{
closed = 1;
nodes = (
(327,0,ls),
(347,0,o),
(353,13,o),
(353,25,cs),
(353,37,o),
(347,50,o),
(327,50,cs),
(72,50,l),
(72,0,l)
);
}
);
width = 445;
},
{
layerId = m002;
shapes = (
{
closed = 1;
nodes = (
(181,49,l),
(236,112,o),
(356,251,o),
(367,264,cs),
(492,417,o),
(506,491,o),
(415,547,cs),
(340,593,o),
(212,558,o),
(148,504,cs),
(114,476,o),
(120,454,o),
(137,434,cs),
(149,421,o),
(179,413,o),
(217,443,cs),
(262,479,o),
(335,493,o),
(367,473,cs),
(394,457,o),
(357,398,o),
(310,343,cs),
(284,313,o),
(187,205,o),
(62,65,cs),
(31,29,o),
(56,0,o),
(96,0,cs),
(139,0,l)
);
},
{
closed = 1;
nodes = (
(351,0,ls),
(381,0,o),
(401,14,o),
(401,41,cs),
(401,65,o),
(383,86,o),
(351,86,cs),
(95,86,l),
(95,0,l)
);
}
);
width = 495;
}
);
unicode = 50;
},
{
glyphname = three;
lastChange = "2022-02-28 10:42:20 +0000";
layers = (
{
layerId = m01;
shapes = (
{
closed = 1;
nodes = (
(196,296,o),
(233,305,o),
(261,305,cs),
(320,305,o),
(340,266,o),
(340,225,cs),
(340,125,o),
(222,47,o),
(134,47,cs),
(110,47,o),
(88,53,o),
(71,66,cs),
(47,84,o),
(33,72,o),
(28,65,cs),
(23,58,o),
(18,45,o),
(43,25,cs),
(67,5,o),
(99,-4,o),
(133,-4,cs),
(247,-4,o),
(390,98,o),
(390,226,cs),
(390,303,o),
(339,354,o),
(256,354,cs),
(220,354,o),
(178,345,o),
(132,324,c),
(148,275,l)
);
},
{
closed = 1;
nodes = (
(269,355,o),
(387,437,o),
(387,499,cs),
(387,542,o),
(347,568,o),
(288,568,cs),
(240,568,o),
(179,551,o),
(119,511,cs),
(94,495,o),
(99,478,o),
(104,470,cs),
(110,460,o),
(126,455,o),
(139,464,cs),
(200,505,o),
(257,522,o),
(294,522,cs),
(321,522,o),
(337,513,o),
(337,499,cs),
(337,466,o),
(202,368,o),
(118,316,cs),
(101,305,o),
(104,288,o),
(108,280,cs),
(113,270,o),
(131,263,o),
(146,273,cs)
);
}
);
width = 445;
},
{
layerId = m002;
shapes = (
{
closed = 1;
nodes = (
(254,279,o),
(273,282,o),
(301,282,cs),
(340,282,o),
(356,262,o),
(350,228,cs),
(335,145,o),
(245,86,o),
(170,86,cs),
(152,86,o),
(139,90,o),
(126,100,cs),
(95,124,o),
(60,113,o),
(49,93,cs),
(38,76,o),
(36,54,o),
(69,28,cs),
(95,7,o),
(132,-4,o),
(169,-4,cs),
(289,-4,o),
(424,96,o),
(447,229,cs),
(462,313,o),
(404,379,o),
(312,379,cs),
(269,379,o),
(218,366,o),
(165,339,c),
(197,250,l)
);
},
{
closed = 1;
nodes = (
(320,334,o),
(431,410,o),
(444,481,cs),
(454,535,o),
(394,568,o),
(326,568,cs),
(272,568,o),
(211,550,o),
(151,510,cs),
(118,489,o),
(119,463,o),
(131,445,cs),
(143,423,o),
(172,424,o),
(195,439,cs),
(250,476,o),
(300,488,o),
(331,488,cs),
(338,488,o),
(348,487,o),
(347,481,cs),
(344,465,o),
(230,381,o),
(153,333,cs),
(126,316,o),
(125,290,o),
(135,270,cs),
(146,249,o),
(180,237,o),
(207,256,cs)
);
}
);
width = 495;
}
);
unicode = 51;
},
{
glyphname = four;
lastChange = "2022-02-28 10:42:34 +0000";
layers = (
{
layerId = m01;
shapes = (
{
closed = 1;
nodes = (
(189,558,o),
(177,568,o),
(165,568,cs),
(153,568,o),
(139,562,o),
(136,544,cs),
(67,159,ls),
(65,147,o),
(74,135,o),
(92,135,cs),
(109,135,o),
(116,148,o),
(118,160,cs),
(186,540,ls)
);
},
{
closed = 1;
nodes = (
(301,299,o),
(290,309,o),
(278,311,cs),
(265,313,o),
(251,306,o),
(248,289,cs),
(201,31,ls),
(197,11,o),
(208,1,o),
(221,0,cs),
(233,-1,o),
(247,6,o),
(251,26,cs),
(298,282,ls)
);
},
{
closed = 1;
nodes = (
(392,135,ls),
(408,135,o),
(418,146,o),
(418,158,cs),
(418,170,o),
(408,180,o),
(392,180,cs),
(93,180,l),
(93,135,l)
);
}
);
width = 445;
},
{
layerId = m002;
shapes = (
{
closed = 1;
nodes = (
(248,551,o),
(222,568,o),
(196,568,cs),
(173,568,o),
(147,555,o),
(142,527,cs),
(79,170,ls),
(75,145,o),
(96,122,o),
(128,122,cs),
(154,122,o),
(175,140,o),
(179,164,cs),
(242,519,ls)
);
},
{
closed = 1;
nodes = (
(342,308,o),
(331,326,o),
(307,331,cs),
(283,335,o),
(263,320,o),
(258,292,cs),
(216,59,ls),
(210,26,o),
(220,0,o),
(246,0,cs),
(274,0,o),
(290,16,o),
(295,44,cs),
(337,279,ls)
);
},
{
closed = 1;
nodes = (
(410,122,ls),
(438,122,o),
(459,143,o),
(459,168,cs),
(459,192,o),
(438,212,o),
(410,212,cs),
(127,212,l),
(127,122,l)
);
}
);
width = 495;
}
);
unicode = 52;
},
{
glyphname = five;
lastChange = "2022-02-28 10:42:49 +0000";
layers = (
{
layerId = m01;
shapes = (
{
closed = 1;
nodes = (
(160,299,o),
(188,304,o),
(213,304,cs),
(292,304,o),
(326,252,o),
(326,211,cs),
(326,149,o),
(250,47,o),
(153,47,cs),
(128,47,o),
(106,54,o),
(92,67,cs),
(85,74,o),
(78,76,o),
(71,76,cs),
(58,76,o),
(47,67,o),
(47,54,cs),
(47,46,o),
(51,37,o),
(60,28,cs),
(81,8,o),
(114,-3,o),
(153,-3,cs),
(284,-3,o),
(376,125,o),
(376,212,cs),
(376,287,o),
(312,354,o),
(210,354,cs),
(182,354,o),
(154,349,o),
(119,337,c),
(123,288,l)
);
},
{
closed = 1;
nodes = (
(166,568,l),
(156,568,o),
(148,566,o),
(143,562,cs),
(138,558,o),
(134,551,o),
(132,541,cs),
(91,310,ls),
(88,295,o),
(101,286,o),
(114,286,cs),
(126,286,o),
(139,294,o),
(142,310,cs),
(183,541,l)
);
},
{
closed = 1;
nodes = (
(409,523,ls),
(429,523,o),
(435,533,o),
(435,545,cs),
(435,557,o),
(429,568,o),
(409,568,cs),
(165,568,l),
(165,523,l)
);
}
);
width = 445;
},
{
layerId = m002;
shapes = (
{
closed = 1;
nodes = (
(209,281,o),
(213,281,o),
(240,281,cs),
(300,281,o),
(318,248,o),
(318,215,cs),
(318,164,o),
(261,83,o),
(183,83,cs),
(165,83,o),
(150,86,o),
(140,93,cs),
(128,101,o),
(119,110,o),
(106,110,cs),
(81,110,o),
(58,97,o),
(58,72,cs),
(58,58,o),
(64,45,o),
(78,31,cs),
(102,8,o),
(141,-3,o),
(182,-3,cs),
(322,-3,o),
(418,125,o),
(418,216,cs),
(418,298,o),
(348,372,o),
(237,372,cs),
(203,372,o),
(166,364,o),
(125,348,c),
(157,265,l)
);
},
{
closed = 1;
nodes = (
(212,571,l),
(190,571,o),
(169,571,o),
(158,562,cs),
(148,554,o),
(142,543,o),
(139,528,cs),
(100,312,ls),
(94,281,o),
(123,264,o),
(147,264,cs),
(169,264,o),
(197,281,o),
(201,304,cs),
(240,529,l)
);
},
{
closed = 1;
nodes = (
(426,487,ls),
(458,487,o),
(475,505,o),
(475,529,cs),
(475,556,o),
(456,571,o),
(426,571,cs),
(210,571,l),
(195,487,l)
);
}
);
width = 495;
}
);
unicode = 53;
},
{
glyphname = six;
lastChange = "2022-02-28 10:43:02 +0000";
layers = (
{
layerId = m01;
shapes = (
{
closed = 1;
nodes = (
(127,209,o),
(161,288,o),
(231,387,cs),
(258,425,o),
(304,471,o),
(379,523,cs),
(390,530,o),
(394,540,o),
(394,548,cs),
(393,559,o),
(385,568,o),
(372,568,cs),
(366,568,o),
(359,566,o),
(351,562,cs),
(304,535,o),
(221,460,o),
(187,412,cs),
(119,316,o),
(78,213,o),
(78,113,c),
(127,113,l)
);
},
{
closed = 1;
nodes = (
(78,53,o),
(126,0,o),
(194,0,cs),
(296,0,o),
(404,149,o),
(404,257,cs),
(404,321,o),
(366,353,o),
(294,353,cs),
(207,353,o),
(146,306,o),
(111,244,c),
(78,114,l)
);
},
{
closed = 1;
nodes = (
(159,50,o),
(128,78,o),
(128,135,cs),
(128,215,o),
(189,303,o),
(292,303,cs),
(333,303,o),
(354,289,o),
(354,251,cs),
(354,173,o),
(262,50,o),
(192,50,cs)
);
}
);
width = 445;
},
{
layerId = m002;
shapes = (
{
closed = 1;
nodes = (
(174,195,o),
(223,274,o),
(291,371,cs),
(317,407,o),
(358,447,o),
(425,494,cs),
(442,506,o),
(450,521,o),
(450,537,cs),
(449,559,o),
(429,576,o),
(404,576,cs),
(394,576,o),
(383,573,o),
(372,568,c),
(324,540,o),
(243,467,o),
(210,421,cs),
(138,319,o),
(107,279,o),
(93,118,c),
(188,114,l)
);
},
{
closed = 1;
nodes = (
(83,84,o),
(140,-1,o),
(221,-1,cs),
(328,-1,o),
(430,143,o),
(430,247,cs),
(430,316,o),
(385,354,o),
(309,354,cs),
(218,354,o),
(141,308,o),
(124,243,cs),
(94,126,ls)
);
},
{
closed = 1;
nodes = (
(201,87,o),
(188,99,o),
(188,140,cs),
(188,204,o),
(230,266,o),
(307,266,cs),
(330,266,o),
(336,260,o),
(336,242,cs),
(336,180,o),
(267,87,o),
(219,87,cs)
);
}
);
width = 495;
}
);
unicode = 54;
},
{
glyphname = seven;
lastChange = "2022-02-28 10:43:17 +0000";
layers = (
{
layerId = m01;
shapes = (
{
closed = 1;
nodes = (
(391,556,o),
(385,568,o),
(365,568,cs),
(354,568,o),
(342,560,o),
(340,549,cs),
(247,26,ls),
(244,8,o),
(255,0,o),
(268,0,cs),
(280,0,o),
(294,8,o),
(297,26,cs),
(389,544,ls)
);
},
{
closed = 1;
nodes = (
(366,568,l),
(119,568,ls),
(101,568,o),
(92,557,o),
(92,546,cs),
(92,534,o),
(101,523,o),
(119,523,cs),
(366,523,l)
);
}
);
width = 445;
},
{
layerId = m002;
shapes = (
{
closed = 1;
nodes = (
(434,551,o),
(425,568,o),
(382,568,cs),
(360,568,o),
(337,558,o),
(333,537,cs),
(247,50,ls),
(242,20,o),
(264,0,o),
(291,0,cs),
(314,0,o),
(339,15,o),
(344,42,cs),
(429,524,ls)
);
},
{
closed = 1;
nodes = (
(383,568,l),
(150,568,ls),
(120,568,o),
(100,551,o),
(100,527,cs),
(100,503,o),
(120,488,o),
(150,488,cs),
(383,488,l)
);
}
);
width = 495;
}
);
unicode = 55;
},
{
glyphname = eight;
lastChange = "2022-02-28 10:43:31 +0000";
layers = (
{
layerId = m01;
shapes = (
{
closed = 1;
nodes = (
(183,325,l),
(93,259,o),
(68,185,o),
(68,132,cs),
(68,74,o),
(97,-4,o),
(194,-4,cs),
(298,-4,o),
(354,84,o),
(354,149,cs),
(354,208,o),
(308,266,o),
(264,307,cs),
(249,321,l)
);
},
{
closed = 1;
nodes = (
(262,238,o),
(303,190,o),
(303,149,cs),
(303,105,o),
(257,45,o),
(200,45,cs),
(150,45,o),
(117,90,o),
(117,139,cs),
(117,178,o),
(138,231,o),
(215,285,c),
(227,273,ls)
);
},
{
closed = 1;
nodes = (
(332,368,o),
(413,431,o),
(413,488,cs),
(413,542,o),
(339,568,o),
(280,568,cs),
(207,568,o),
(120,529,o),
(120,442,cs),
(120,386,o),
(157,350,o),
(183,323,c),
(226,349,l),
(203,371,o),
(171,405,o),
(171,447,cs),
(171,504,o),
(229,518,o),
(270,518,cs),
(306,518,o),
(366,507,o),
(366,488,cs),
(366,462,o),
(257,369,o),
(182,322,c),
(251,312,l)
);
}
);
width = 445;
},
{
layerId = m002;
shapes = (
{
closed = 1;
nodes = (
(204,344,l),
(106,275,o),
(78,197,o),
(78,141,cs),
(78,80,o),
(112,-4,o),
(223,-4,cs),
(338,-4,o),
(398,87,o),
(398,157,cs),
(398,219,o),
(352,280,o),
(307,321,cs),
(285,341,l)
);
},
{
closed = 1;
nodes = (
(258,236,o),
(300,191,o),
(300,148,cs),
(300,114,o),
(269,81,o),
(228,81,cs),
(195,81,o),
(175,108,o),
(175,148,cs),
(175,177,o),
(188,213,o),
(240,254,c),
(245,249,ls)
);
},
{
closed = 1;
nodes = (
(365,343,o),
(454,405,o),
(454,472,cs),
(454,539,o),
(366,569,o),
(304,569,cs),
(227,569,o),
(128,526,o),
(128,428,cs),
(128,355,o),
(186,312,o),
(207,292,c),
(291,341,l),
(272,362,o),
(226,390,o),
(226,433,cs),
(226,470,o),
(253,488,o),
(288,488,cs),
(320,488,o),
(359,486,o),
(359,471,cs),
(359,456,o),
(277,391,o),
(218,355,c),
(283,287,l)
);
}
);
width = 495;
}
);
unicode = 56;
},
{
glyphname = nine;
lastChange = "2022-02-28 10:43:45 +0000";
layers = (
{
layerId = m01;
shapes = (
{
closed = 1;
nodes = (
(350,519,l),
(322,472,o),
(289,423,o),
(248,371,cs),
(187,295,o),
(150,265,o),
(131,265,cs),
(117,265,o),
(117,280,o),
(117,296,cs),
(117,334,o),
(135,424,o),
(161,463,cs),
(191,508,o),
(242,518,o),
(276,518,cs),
(283,518,o),
(351,518,o),
(359,518,c),
(370,518,l),
(370,520,o),
(370,565,o),
(370,568,c),
(358,568,o),
(296,568,o),
(276,568,cs),
(219,568,o),
(160,551,o),
(122,494,cs),
(90,446,o),
(67,349,o),
(67,291,cs),
(67,240,o),
(87,214,o),
(120,214,cs),
(178,214,o),
(230,268,o),
(271,319,cs),
(320,381,o),
(368,458,o),
(391,510,cs),
(395,519,l)
);
},
{
closed = 1;
nodes = (
(416,558,o),
(410,568,o),
(398,568,c),
(350,568,l),
(350,479,l),
(272,24,ls),
(270,8,o),
(281,0,o),
(293,0,cs),
(306,0,o),
(319,8,o),
(322,24,cs),
(414,546,ls)
);
}
);
width = 445;
},
{
layerId = m002;
shapes = (
{
closed = 1;
nodes = (
(350,527,l),
(322,479,o),
(297,431,o),
(257,380,cs),
(200,309,o),
(186,302,o),
(182,302,cs),
(177,302,o),
(176,315,o),
(176,320,cs),
(176,343,o),
(187,408,o),
(209,440,cs),
(232,476,o),
(267,481,o),
(296,481,cs),
(302,481,o),
(366,481,o),
(374,481,cs),
(409,481,l),
(409,506,o),
(409,546,o),
(409,568,c),
(386,568,o),
(317,568,o),
(296,568,cs),
(237,568,o),
(171,554,o),
(130,493,cs),
(97,443,o),
(74,348,o),
(74,291,cs),
(74,226,o),
(107,196,o),
(149,196,cs),
(217,196,o),
(272,255,o),
(311,303,cs),
(358,363,o),
(405,439,o),
(427,487,cs),
(445,527,l)
);
},
{
closed = 1;
nodes = (
(459,555,o),
(444,568,o),
(411,568,cs),
(340,568,l),
(342,469,l),
(267,43,ls),
(261,11,o),
(290,-5,o),
(312,-5,cs),
(335,-5,o),
(362,10,o),
(367,36,cs),
(454,529,ls)
);
}
);
width = 495;
}
);
unicode = 57;
},
{
glyphname = zero.c2sc;
lastChange = "2022-02-28 10:48:13 +0000";
layers = (
{
layerId = m01;
shapes = (
{
closed = 1;
nodes = (
(195,0,o),
(309,157,o),
(309,276,cs),
(309,328,o),
(289,396,o),
(211,396,cs),
(79,396,o),
(27,196,o),
(27,115,cs),
(27,61,o),
(50,-1,o),
(107,-1,cs)
);
},
{
closed = 1;
nodes = (
(91,47,o),
(77,67,o),
(77,111,cs),
(77,193,o),
(128,348,o),
(213,348,cs),
(250,348,o),
(259,315,o),
(259,278,cs),
(259,152,o),
(147,47,o),
(107,47,cs)
);
}
);
width = 336;
},
{
layerId = m002;
shapes = (
{
closed = 1;
nodes = (
(230,0,o),
(338,152,o),
(338,267,cs),
(338,319,o),
(315,396,o),
(226,396,cs),
(88,396,o),
(39,201,o),
(39,125,cs),
(39,71,o),
(64,-1,o),
(134,-1,cs)
);
},
{
closed = 1;
nodes = (
(131,87,o),
(128,94,o),
(128,121,cs),
(128,191,o),
(167,308,o),
(228,308,cs),
(242,308,o),
(247,296,o),
(247,269,cs),
(247,166,o),
(160,87,o),
(139,87,c)
);
}
);
width = 378;
}
);
metricLeft = zero;
metricRight = zero;
},
{
glyphname = one.c2sc;
lastChange = "2022-02-28 10:48:13 +0000";
layers = (
{
layerId = m01;
shapes = (
{
closed = 1;
nodes = (
(281,387,o),
(268,396,o),
(256,396,cs),
(244,396,o),
(230,389,o),
(227,373,cs),
(166,26,ls),
(163,8,o),
(176,0,o),
(189,0,cs),
(199,0,o),
(213,5,o),
(216,21,cs),
(278,371,ls)
);
}
);
width = 445;
},
{
layerId = m002;
shapes = (
{
closed = 1;
nodes = (
(326,387,o),
(295,396,o),
(279,396,cs),
(263,396,o),
(231,389,o),
(225,355,cs),
(170,43,ls),
(164,8,o),
(195,0,o),
(212,0,cs),
(226,0,o),
(258,5,o),
(264,38,cs),
(320,353,ls)
);
}
);
width = 489;
}
);
metricLeft = one;
metricRight = one;
},
{
glyphname = two.c2sc;
lastChange = "2022-02-28 10:48:13 +0000";
layers = (
{
layerId = m01;
shapes = (
{
closed = 1;
nodes = (
(104,34,l),
(142,79,o),
(229,179,o),
(238,190,cs),
(326,295,o),
(334,347,o),
(275,382,cs),
(225,413,o),
(139,389,o),
(96,352,cs),
(76,335,o),
(79,323,o),
(87,313,cs),
(94,305,o),
(111,302,o),
(131,319,cs),
(165,347,o),
(224,358,o),
(251,341,cs),
(278,325,o),
(246,275,o),
(212,234,cs),
(195,213,o),
(124,135,o),
(34,34,cs),
(17,15,o),
(30,0,o),
(51,0,cs),
(68,0,l)
);
},
{
closed = 1;
nodes = (
(234,0,ls),
(254,0,o),
(260,14,o),
(260,24,cs),
(260,34,o),
(254,48,o),
(234,48,cs),
(63,48,l),
(63,0,l)
);
}
);
width = 356;
},
{
layerId = m002;
shapes = (
{
closed = 1;
nodes = (
(158,38,l),
(191,78,o),
(269,167,o),
(276,176,cs),
(361,278,o),
(372,339,o),
(303,381,cs),
(248,414,o),
(159,389,o),
(115,351,cs),
(87,327,o),
(88,305,o),
(104,285,cs),
(118,269,o),
(152,264,o),
(179,288,cs),
(205,309,o),
(240,315,o),
(251,308,cs),
(259,303,o),
(243,279,o),
(215,244,cs),
(199,225,o),
(137,157,o),
(58,68,cs),
(29,35,o),
(53,0,o),
(92,0,cs),
(117,0,l)
);
},
{
closed = 1;
nodes = (
(254,0,ls),
(284,0,o),
(302,22,o),
(302,44,cs),
(302,66,o),
(284,88,o),
(254,88,cs),
(108,88,l),
(108,0,l)
);
}
);
width = 400;
}
);
metricLeft = two;
metricRight = two;
},
{
glyphname = three.c2sc;
lastChange = "2022-02-28 10:48:13 +0000";
layers = (
{
layerId = m01;
shapes = (
{
closed = 1;
nodes = (
(140,196,o),
(165,203,o),
(184,203,cs),
(219,203,o),
(229,183,o),
(229,157,cs),
(229,93,o),
(156,45,o),
(99,45,cs),
(84,45,o),
(73,48,o),
(62,57,cs),
(42,71,o),
(26,59,o),
(23,54,cs),
(17,47,o),
(12,36,o),
(34,18,cs),
(51,4,o),
(75,-3,o),
(99,-3,cs),
(179,-3,o),
(279,68,o),
(279,157,cs),
(279,213,o),
(242,250,o),
(181,250,cs),
(154,250,o),
(122,243,o),
(89,226,c),
(104,180,l)
);
},
{
closed = 1;
nodes = (
(195,239,o),
(277,297,o),
(277,342,cs),
(277,375,o),
(244,396,o),
(202,396,cs),
(169,396,o),
(125,383,o),
(85,357,cs),
(65,344,o),
(68,328,o),
(73,321,c),
(77,311,o),
(94,304,o),
(107,313,cs),
(148,341,o),
(183,351,o),
(206,351,cs),
(222,351,o),
(227,348,o),
(227,342,cs),
(227,324,o),
(140,258,o),
(84,223,cs),
(69,213,o),
(72,198,o),
(74,191,cs),
(78,182,o),
(97,173,o),
(112,183,cs)
);
}
);
width = 349;
},
{
layerId = m002;
shapes = (
{
closed = 1;
nodes = (
(169,174,o),
(189,181,o),
(204,181,cs),
(217,181,o),
(223,176,o),
(223,159,cs),
(223,119,o),
(176,86,o),
(140,86,cs),
(124,86,o),
(119,90,o),
(112,95,cs),
(88,112,o),
(55,99,o),
(45,84,cs),
(33,66,o),
(28,43,o),
(57,19,cs),
(76,4,o),
(105,-4,o),
(133,-4,cs),
(216,-4,o),
(317,71,o),
(317,163,cs),
(317,225,o),
(274,264,o),
(206,264,cs),
(174,264,o),
(139,253,o),
(108,239,c),
(162,169,l)
);
},
{
closed = 1;
nodes = (
(234,218,o),
(316,271,o),
(316,325,cs),
(316,364,o),
(280,396,o),
(224,396,cs),
(190,396,o),
(145,382,o),
(107,357,cs),
(79,339,o),
(78,314,o),
(87,296,cs),
(97,274,o),
(127,269,o),
(149,285,cs),
(183,308,o),
(208,322,o),
(220,325,cs),
(227,327,o),
(229,325,o),
(224,318,cs),
(217,307,o),
(159,265,o),
(107,239,cs),
(85,228,o),
(81,204,o),
(88,186,cs),
(96,164,o),
(134,150,o),
(160,168,cs)
);
}
);
width = 383;
}
);
metricLeft = three;
metricRight = three;
},
{
glyphname = four.c2sc;
lastChange = "2022-02-28 10:48:13 +0000";
layers = (
{
layerId = m01;
shapes = (
{
closed = 1;
nodes = (
(156,387,o),
(143,396,o),
(130,396,cs),
(120,396,o),
(106,390,o),
(103,374,cs),
(56,116,l),
(55,103,o),
(64,91,o),
(81,91,cs),
(97,91,o),
(105,103,o),
(106,114,c),
(153,369,ls)
);
},
{
closed = 1;
nodes = (
(230,211,o),
(219,221,o),
(209,224,cs),
(196,226,o),
(181,219,o),
(178,202,cs),
(146,29,ls),
(143,11,o),
(154,0,o),
(168,0,cs),
(178,0,o),
(193,6,o),
(196,23,cs),
(227,195,ls)
);
},
{
closed = 1;
nodes = (
(283,91,ls),
(299,91,o),
(309,103,o),
(309,114,cs),
(309,125,o),
(299,135,o),
(283,135,cs),
(74,135,l),
(74,91,l)
);
}
);
width = 348;
},
{
layerId = m002;
shapes = (
{
closed = 1;
nodes = (
(210,376,o),
(185,396,o),
(159,396,cs),
(138,396,o),
(115,383,o),
(110,358,cs),
(68,129,ls),
(63,103,o),
(86,80,o),
(115,80,cs),
(141,80,o),
(158,99,o),
(162,122,cs),
(204,345,ls)
);
},
{
closed = 1;
nodes = (
(299,218,o),
(280,241,o),
(260,243,cs),
(235,246,o),
(205,235,o),
(200,206,cs),
(172,53,ls),
(167,23,o),
(188,0,o),
(214,0,cs),
(235,0,o),
(261,12,o),
(266,39,cs),
(294,191,ls)
);
},
{
closed = 1;
nodes = (
(314,80,ls),
(341,80,o),
(362,101,o),
(362,124,cs),
(362,147,o),
(341,165,o),
(314,165,cs),
(112,165,l),
(112,80,l)
);
}
);
width = 410;
}
);
metricLeft = four;
metricRight = four;
},
{
glyphname = five.c2sc;
lastChange = "2022-02-28 10:48:13 +0000";
layers = (
{
layerId = m01;
shapes = (
{
closed = 1;
nodes = (
(123,200,o),
(142,204,o),
(161,204,cs),
(209,204,o),
(228,174,o),
(228,149,cs),
(228,109,o),
(181,44,o),
(121,44,cs),
(105,44,o),
(93,50,o),
(85,57,cs),
(79,63,o),
(71,65,o),
(65,65,cs),
(53,65,o),
(41,56,o),
(41,44,cs),
(41,38,o),
(45,29,o),
(52,21,c),
(68,7,o),
(92,-4,o),
(121,-4,cs),
(213,-4,o),
(278,89,o),
(278,150,cs),
(278,203,o),
(232,252,o),
(158,252,cs),
(137,252,o),
(116,248,o),
(89,239,c),
(93,192,l)
);
},
{
closed = 1;
nodes = (
(133,395,l),
(127,398,o),
(114,394,o),
(109,389,c),
(103,386,o),
(100,379,o),
(98,372,c),
(70,216,ls),
(67,202,o),
(79,193,o),
(94,193,cs),
(105,193,o),
(119,200,o),
(121,214,cs),
(148,371,l)
);
},
{
closed = 1;
nodes = (
(292,352,ls),
(310,352,o),
(317,362,o),
(317,373,cs),
(317,383,o),
(311,396,o),
(292,396,cs),
(120,396,l),
(120,352,l)
);
}
);
width = 361;
},
{
layerId = m002;
shapes = (
{
closed = 1;
nodes = (
(154,177,o),
(167,183,o),
(190,180,cs),
(211,177,o),
(220,171,o),
(220,151,cs),
(220,126,o),
(190,85,o),
(160,85,cs),
(141,85,o),
(136,89,o),
(130,93,cs),
(123,98,o),
(111,103,o),
(93,103,cs),
(77,103,o),
(54,85,o),
(54,67,cs),
(54,52,o),
(58,37,o),
(70,26,cs),
(87,10,o),
(116,-4,o),
(150,-4,cs),
(247,-4,o),
(314,92,o),
(314,156,cs),
(314,215,o),
(262,269,o),
(183,269,cs),
(156,269,o),
(126,261,o),
(120,259,c),
(135,172,l)
);
},
{
closed = 1;
nodes = (
(179,390,l),
(158,401,o),
(134,396,o),
(122,385,cs),
(113,378,o),
(107,367,o),
(105,356,cs),
(80,218,ls),
(75,191,o),
(98,171,o),
(126,171,cs),
(147,171,o),
(171,185,o),
(175,208,cs),
(200,355,l)
);
},
{
closed = 1;
nodes = (
(301,311,ls),
(330,311,o),
(348,330,o),
(348,353,cs),
(348,375,o),
(331,396,o),
(301,396,cs),
(155,396,l),
(155,311,l)
);
}
);
width = 405;
}
);
metricLeft = five;
metricRight = five;
},
{
glyphname = six.c2sc;
lastChange = "2022-02-28 10:48:13 +0000";
layers = (
{
layerId = m01;
shapes = (
{
closed = 1;
nodes = (
(113,138,o),
(136,191,o),
(183,259,cs),
(201,285,o),
(231,319,o),
(281,353,cs),
(290,358,o),
(294,367,o),
(294,376,cs),
(294,387,o),
(285,396,o),
(271,396,cs),
(266,396,o),
(260,395,o),
(253,391,cs),
(220,372,o),
(164,316,o),
(140,284,cs),
(93,216,o),
(64,142,o),
(66,72,c),
(115,72,l)
);
},
{
closed = 1;
nodes = (
(66,36,o),
(101,-4,o),
(152,-4,cs),
(225,-4,o),
(300,100,o),
(300,175,cs),
(300,223,o),
(271,247,o),
(219,247,cs),
(157,247,o),
(112,212,o),
(88,169,c),
(66,81,l)
);
},
{
closed = 1;
nodes = (
(131,44,o),
(115,58,o),
(115,94,cs),
(115,145,o),
(153,199,o),
(218,199,cs),
(242,199,o),
(251,193,o),
(251,172,cs),
(251,121,o),
(193,44,o),
(151,44,cs)
);
}
);
width = 359;
},
{
layerId = m002;
shapes = (
{
closed = 1;
nodes = (
(166,133,o),
(189,175,o),
(235,242,cs),
(250,264,o),
(273,286,o),
(314,314,cs),
(328,323,o),
(337,338,o),
(337,354,cs),
(337,376,o),
(317,396,o),
(292,396,cs),
(283,396,o),
(272,393,o),
(262,386,cs),
(228,366,o),
(178,320,o),
(156,290,cs),
(106,219,o),
(84,158,o),
(85,92,c),
(174,92,l)
);
},
{
closed = 1;
nodes = (
(84,47,o),
(125,-4,o),
(186,-4,cs),
(268,-4,o),
(342,105,o),
(342,180,cs),
(342,236,o),
(305,267,o),
(245,267,cs),
(178,267,o),
(129,226,o),
(106,183,c),
(85,97,l)
);
},
{
closed = 1;
nodes = (
(183,84,o),
(178,94,o),
(178,113,cs),
(178,147,o),
(201,179,o),
(235,179,cs),
(247,179,o),
(249,175,o),
(249,163,cs),
(249,133,o),
(213,84,o),
(193,84,cs)
);
}
);
width = 422;
}
);
metricLeft = six;
metricRight = six;
},
{
glyphname = seven.c2sc;
lastChange = "2022-02-28 10:48:13 +0000";
layers = (
{
layerId = m01;
shapes = (
{
closed = 1;
nodes = (
(275,383,o),
(268,396,o),
(248,396,cs),
(239,396,o),
(226,389,o),
(224,377,cs),
(162,26,ls),
(159,8,o),
(170,0,o),
(183,0,cs),
(194,0,o),
(208,7,o),
(211,24,cs),
(272,372,l)
);
},
{
closed = 1;
nodes = (
(257,396,l),
(83,396,ls),
(66,396,o),
(57,384,o),
(57,374,cs),
(57,363,o),
(66,351,o),
(83,351,cs),
(257,351,l)
);
}
);
width = 363;
},
{
layerId = m002;
shapes = (
{
closed = 1;
nodes = (
(309,372,o),
(292,396,o),
(259,396,cs),
(239,396,o),
(217,382,o),
(213,359,cs),
(158,50,ls),
(152,19,o),
(175,0,o),
(201,0,cs),
(222,0,o),
(246,14,o),
(251,40,cs),
(305,348,ls)
);
},
{
closed = 1;
nodes = (
(260,396,l),
(113,396,ls),
(85,396,o),
(65,376,o),
(65,354,cs),
(65,331,o),
(85,310,o),
(113,310,cs),
(260,310,l)
);
}
);
width = 407;
}
);
metricLeft = seven;
metricRight = seven;
},
{
glyphname = eight.c2sc;
lastChange = "2022-02-28 10:48:13 +0000";
layers = (
{
layerId = m01;
shapes = (
{
closed = 1;
nodes = (
(138,231,l),
(74,184,o),
(56,132,o),
(56,94,cs),
(56,53,o),
(78,-4,o),
(148,-4,cs),
(223,-4,o),
(264,59,o),
(264,106,cs),
(264,147,o),
(231,187,o),
(201,217,cs),
(189,229,l)
);
},
{
closed = 1;
nodes = (
(188,161,o),
(214,131,o),
(214,106,cs),
(214,79,o),
(186,44,o),
(152,44,cs),
(123,44,o),
(105,68,o),
(105,99,cs),
(105,124,o),
(117,154,o),
(162,187,c),
(165,184,ls)
);
},
{
closed = 1;
nodes = (
(245,246,o),
(303,291,o),
(303,333,cs),
(303,374,o),
(248,396,o),
(206,396,cs),
(154,396,o),
(91,366,o),
(91,302,cs),
(91,259,o),
(123,230,o),
(140,214,c),
(182,239,l),
(166,254,o),
(141,275,o),
(141,306,cs),
(141,339,o),
(173,348,o),
(199,348,cs),
(223,348,o),
(256,340,o),
(256,333,cs),
(256,317,o),
(177,252,o),
(130,227,c),
(188,208,l)
);
}
);
width = 367;
},
{
layerId = m002;
shapes = (
{
closed = 1;
nodes = (
(160,245,l),
(91,197,o),
(68,145,o),
(68,106,cs),
(68,64,o),
(92,-3,o),
(172,-3,cs),
(253,-3,o),
(296,66,o),
(296,117,cs),
(296,160,o),
(258,197,o),
(230,225,cs),
(213,242,l)
);
},
{
closed = 1;
nodes = (
(177,166,o),
(216,137,o),
(216,117,cs),
(216,99,o),
(194,78,o),
(175,78,cs),
(161,78,o),
(148,89,o),
(148,110,cs),
(148,129,o),
(163,147,o),
(182,161,c),
(181,162,ls)
);
},
{
closed = 1;
nodes = (
(261,223,o),
(331,267,o),
(331,317,cs),
(331,369,o),
(268,396,o),
(223,396,cs),
(169,396,o),
(99,361,o),
(99,290,cs),
(99,243,o),
(134,212,o),
(161,186,c),
(230,225,l),
(217,248,o),
(179,266,o),
(179,294,cs),
(179,308,o),
(197,325,o),
(217,325,cs),
(232,325,o),
(250,322,o),
(250,316,cs),
(250,309,o),
(220,290,o),
(134,225,c),
(207,187,l)
);
}
);
width = 404;
}
);
metricLeft = eight;
metricRight = eight;
},
{
glyphname = nine.c2sc;
lastChange = "2022-02-28 10:48:13 +0000";
layers = (
{
layerId = m01;
shapes = (
{
closed = 1;
nodes = (
(240,363,l),
(219,330,o),
(198,295,o),
(170,260,cs),
(129,210,o),
(107,191,o),
(97,191,cs),
(95,191,o),
(95,195,o),
(95,205,cs),
(95,229,o),
(108,289,o),
(124,314,cs),
(143,342,o),
(173,348,o),
(195,348,cs),
(200,348,o),
(245,348,o),
(251,348,cs),
(266,348,l),
(266,356,o),
(266,389,o),
(266,396,c),
(259,396,o),
(211,396,o),
(195,396,cs),
(154,396,o),
(112,383,o),
(84,343,cs),
(62,308,o),
(46,242,o),
(46,202,cs),
(46,164,o),
(63,143,o),
(89,143,cs),
(133,143,o),
(169,182,o),
(198,217,cs),
(231,259,o),
(266,310,o),
(280,347,cs),
(286,363,l)
);
},
{
closed = 1;
nodes = (
(298,387,o),
(289,396,o),
(277,396,cs),
(237,396,l),
(237,330,l),
(184,23,ls),
(181,7,o),
(194,0,o),
(207,0,cs),
(218,0,o),
(230,6,o),
(233,21,cs),
(295,372,ls)
);
}
);
width = 360;
},
{
layerId = m002;
shapes = (
{
closed = 1;
nodes = (
(241,349,l),
(238,329,o),
(211,300,o),
(197,281,cs),
(177,255,o),
(164,244,o),
(159,239,cs),
(153,233,o),
(146,227,o),
(136,227,cs),
(128,227,o),
(143,279,o),
(160,304,cs),
(171,320,o),
(199,318,o),
(215,318,cs),
(220,318,o),
(259,318,o),
(265,318,cs),
(290,318,l),
(290,352,o),
(290,374,o),
(290,396,c),
(266,396,o),
(230,396,o),
(215,396,cs),
(174,396,o),
(121,386,o),
(90,343,cs),
(67,307,o),
(55,240,o),
(52,202,cs),
(49,157,o),
(84,135,o),
(121,135,cs),
(164,135,o),
(205,184,o),
(231,216,cs),
(262,255,o),
(308,303,o),
(313,321,cs),
(321,349,l)
);
},
{
closed = 1;
nodes = (
(334,376,o),
(313,396,o),
(288,396,cs),
(227,396,l),
(231,317,l),
(183,46,ls),
(178,15,o),
(203,0,o),
(226,0,cs),
(246,0,o),
(270,13,o),
(274,37,cs),
(329,348,ls)
);
}
);
width = 406;
}
);
metricLeft = nine;
metricRight = nine;
},
{
glyphname = .notdef;
lastChange = "2022-03-08 22:48:52 +0000";
layers = (
{
layerId = m01;
shapes = (
{
closed = 1;
nodes = (
(495,0,o),
(506,12,o),
(509,27,cs),
(623,673,ls),
(626,689,o),
(619,700,o),
(605,700,cs),
(209,700,ls),
(192,700,o),
(181,689,o),
(178,673,cs),
(64,27,ls),
(61,12,o),
(69,0,o),
(88,0,cs),
(484,0,ls)
);
},
{
closed = 1;
nodes = (
(226,655,l),
(569,655,l),
(462,45,l),
(118,45,l)
);
}
);
width = 625;
},
{
layerId = m002;
shapes = (
{
closed = 1;
nodes = (
(544,0,o),
(567,26,o),
(571,49,cs),
(678,659,ls),
(683,687,o),
(668,700,o),
(631,700,c),
(251,700,l),
(223,700,o),
(202,687,o),
(197,659,cs),
(90,49,ls),
(85,21,o),
(99,0,o),
(138,0,cs),
(519,0,ls)
);
},
{
closed = 1;
nodes = (
(290,605,l),
(567,605,l),
(477,95,l),
(200,95,l)
);
}
);
width = 697;
}
);
metricLeft = N;
metricRight = N;
},
{
glyphname = period;
lastChange = "2022-03-08 22:48:52 +0000";
layers = (
{
layerId = m01;
shapes = (
{
closed = 1;
nodes = (
(118,-30,o),
(136,-12,o),
(136,9,cs),
(136,29,o),
(118,46,o),
(98,46,cs),
(77,46,o),
(61,29,o),
(61,9,cs),
(61,-11,o),
(77,-30,o),
(98,-30,cs)
);
}
);
width = 254;
},
{
layerId = m002;
shapes = (
{
closed = 1;
nodes = (
(167,-30,o),
(193,-4,o),
(193,26,cs),
(193,55,o),
(167,80,o),
(138,80,cs),
(107,80,o),
(83,55,o),
(83,26,cs),
(83,-3,o),
(107,-30,o),
(138,-30,cs)
);
}
);
width = 328;
}
);
metricLeft = n;
metricRight = n;
unicode = 46;
},
{
glyphname = comma;
lastChange = "2022-03-08 22:48:52 +0000";
layers = (
{
layerId = m01;
shapes = (
{
closed = 1;
nodes = (
(117,39,o),
(106,49,o),
(93,50,cs),
(80,52,o),
(67,45,o),
(64,28,cs),
(47,-71,ls),
(44,-89,o),
(54,-99,o),
(66,-101,cs),
(78,-103,o),
(93,-96,o),
(96,-78,cs),
(114,21,ls)
);
}
);
width = 229;
},
{
layerId = m002;
shapes = (
{
closed = 1;
nodes = (
(192,71,o),
(171,91,o),
(144,94,cs),
(119,97,o),
(92,83,o),
(87,54,cs),
(70,-45,ls),
(65,-76,o),
(85,-97,o),
(110,-101,cs),
(134,-105,o),
(164,-90,o),
(169,-60,cs),
(187,39,ls)
);
}
);
width = 319;
}
);
metricLeft = n;
metricRight = n;
unicode = 44;
},
{
glyphname = colon;
lastChange = "2022-03-08 22:48:52 +0000";
layers = (
{
layerId = m01;
shapes = (
{
closed = 1;
nodes = (
(119,-30,o),
(137,-12,o),
(137,9,cs),
(137,29,o),
(119,46,o),
(98,46,cs),
(77,46,o),
(61,29,o),
(61,9,cs),
(61,-11,o),
(77,-30,o),
(98,-30,cs)
);
},
{
closed = 1;
nodes = (
(154,175,o),
(172,194,o),
(172,214,cs),
(172,235,o),
(154,251,o),
(134,251,cs),
(113,251,o),
(97,234,o),
(97,214,cs),
(97,195,o),
(113,175,o),
(134,175,cs)
);
}
);
width = 255;
},
{
layerId = m002;
shapes = (
{
closed = 1;
nodes = (
(203,175,o),
(229,202,o),
(229,232,cs),
(229,261,o),
(203,285,o),
(174,285,cs),
(143,285,o),
(119,259,o),
(119,231,cs),
(119,203,o),
(143,175,o),
(173,175,cs)
);
},
{
closed = 1;
nodes = (
(167,-30,o),
(193,-4,o),
(193,26,cs),
(193,56,o),
(167,80,o),
(137,80,cs),
(106,80,o),
(83,55,o),
(83,26,cs),
(83,-3,o),
(106,-30,o),
(137,-30,cs)
);
}
);
width = 328;
}
);
metricLeft = n;
metricRight = n;
unicode = 58;
},
{
glyphname = semicolon;
lastChange = "2022-03-08 22:48:52 +0000";
layers = (
{
layerId = m01;
shapes = (
{
closed = 1;
nodes = (
(130,39,o),
(119,49,o),
(106,50,cs),
(93,52,o),
(80,45,o),
(77,28,cs),
(60,-71,ls),
(57,-90,o),
(69,-101,o),
(82,-102,cs),
(93,-103,o),
(106,-95,o),
(109,-78,cs),
(127,21,ls)
);
},
{
closed = 1;
nodes = (
(154,175,o),
(172,194,o),
(172,214,cs),
(172,235,o),
(154,251,o),
(134,251,cs),
(113,251,o),
(97,234,o),
(97,214,cs),
(97,195,o),
(113,175,o),
(134,175,cs)
);
}
);
width = 254;
},
{
layerId = m002;
shapes = (
{
closed = 1;
nodes = (
(196,71,o),
(174,91,o),
(147,94,cs),
(122,97,o),
(95,83,o),
(90,54,cs),
(73,-45,ls),
(67,-78,o),
(91,-100,o),
(118,-102,cs),
(141,-104,o),
(167,-89,o),
(172,-60,cs),
(190,39,ls)
);
},
{
closed = 1;
nodes = (
(202,175,o),
(228,203,o),
(228,231,cs),
(228,262,o),
(202,285,o),
(173,285,cs),
(142,285,o),
(119,260,o),
(119,231,cs),
(119,204,o),
(142,175,o),
(173,175,cs)
);
}
);
width = 327;
}
);
metricLeft = n;
metricRight = n;
unicode = 59;
},
{
glyphname = ellipsis;
lastChange = "2022-03-08 22:48:52 +0000";
layers = (
{
layerId = m01;
shapes = (
{
closed = 1;
nodes = (
(338,-30,o),
(356,-12,o),
(356,9,cs),
(356,29,o),
(338,46,o),
(318,46,cs),
(297,46,o),
(281,29,o),
(281,9,cs),
(281,-11,o),
(297,-30,o),
(318,-30,cs)
);
},
{
closed = 1;
nodes = (
(118,-30,o),
(136,-12,o),
(136,9,cs),
(136,29,o),
(118,46,o),
(98,46,cs),
(77,46,o),
(61,29,o),
(61,9,cs),
(61,-11,o),
(77,-30,o),
(98,-30,cs)
);
},
{
closed = 1;
nodes = (
(228,-30,o),
(246,-12,o),
(246,9,cs),
(246,29,o),
(228,46,o),
(208,46,cs),
(187,46,o),
(171,29,o),
(171,9,cs),
(171,-11,o),
(187,-30,o),
(208,-30,cs)
);
}
);
width = 474;
},
{
layerId = m002;
shapes = (
{
closed = 1;
nodes = (
(455,-31,o),
(482,-6,o),
(482,25,cs),
(482,56,o),
(455,79,o),
(426,79,cs),
(398,79,o),
(372,57,o),
(372,25,cs),
(372,-6,o),
(398,-31,o),
(427,-31,cs)
);
},
{
closed = 1;
nodes = (
(165,-31,o),
(192,-6,o),
(192,25,cs),
(192,56,o),
(165,79,o),
(136,79,cs),
(108,79,o),
(82,57,o),
(82,25,cs),
(82,-6,o),
(108,-31,o),
(137,-31,cs)
);
},
{
closed = 1;
nodes = (
(310,-30,o),
(337,-6,o),
(337,25,cs),
(337,56,o),
(310,79,o),
(282,79,cs),
(253,79,o),
(227,56,o),
(227,25,cs),
(227,-6,o),
(253,-30,o),
(282,-30,cs)
);
}
);
width = 617;
}
);
metricLeft = n;
metricRight = n;
unicode = 8230;
},
{
glyphname = exclam;
lastChange = "2022-03-08 22:48:52 +0000";
layers = (
{
layerId = m01;
shapes = (
{
closed = 1;
nodes = (
(229,643,o),
(219,650,o),
(207,650,cs),
(194,650,o),
(179,643,o),
(176,629,cs),
(100,202,ls),
(97,185,o),
(109,176,o),
(121,175,cs),
(133,174,o),
(148,183,o),
(151,202,cs),
(227,629,ls)
);
},
{
closed = 1;
nodes = (
(110,-24,o),
(126,-8,o),
(126,9,cs),
(126,26,o),
(110,41,o),
(92,41,cs),
(74,41,o),
(61,25,o),
(61,9,cs),
(61,-7,o),
(74,-24,o),
(92,-24,cs)
);
}
);
width = 246;
},
{
layerId = m002;
shapes = (
{
closed = 1;
nodes = (
(300,632,o),
(273,650,o),
(249,650,cs),
(227,650,o),
(198,635,o),
(194,611,cs),
(125,226,ls),
(120,197,o),
(144,177,o),
(169,175,cs),
(192,173,o),
(221,191,o),
(226,220,cs),
(295,605,ls)
);
},
{
closed = 1;
nodes = (
(169,-24,o),
(197,2,o),
(197,31,cs),
(197,60,o),
(169,86,o),
(139,86,cs),
(108,86,o),
(87,58,o),
(87,31,cs),
(87,4,o),
(108,-24,o),
(139,-24,cs)
);
}
);
width = 327;
}
);
metricLeft = N;
metricRight = N;
unicode = 33;
},
{
glyphname = exclamdown;
lastChange = "2022-03-08 22:48:52 +0000";
layers = (
{
layerId = m01;
shapes = (
{
closed = 1;
nodes = (
(194,441,o),
(182,450,o),
(170,451,cs),
(158,452,o),
(143,443,o),
(140,424,cs),
(66,21,ls),
(63,6,o),
(75,-1,o),
(88,0,cs),
(100,0,o),
(114,7,o),
(117,21,cs),
(191,424,ls)
);
},
{
closed = 1;
nodes = (
(220,585,o),
(233,601,o),
(233,617,cs),
(233,633,o),
(220,650,o),
(202,650,cs),
(184,650,o),
(168,634,o),
(168,617,cs),
(168,600,o),
(184,585,o),
(202,585,cs)
);
}
);
width = 246;
},
{
layerId = m002;
shapes = (
{
closed = 1;
nodes = (
(265,433,o),
(239,450,o),
(216,452,cs),
(192,454,o),
(164,437,o),
(159,407,cs),
(95,47,ls),
(90,17,o),
(115,-2,o),
(143,0,cs),
(165,0,o),
(191,14,o),
(195,39,cs),
(259,399,ls)
);
},
{
closed = 1;
nodes = (
(275,540,o),
(297,566,o),
(297,594,cs),
(297,623,o),
(275,650,o),
(244,650,cs),
(214,650,o),
(187,623,o),
(187,594,cs),
(187,566,o),
(214,540,o),
(244,540,cs)
);
}
);
width = 328;
}
);
metricLeft = N;
metricRight = N;
unicode = 161;
},
{
glyphname = question;
lastChange = "2022-03-08 22:48:52 +0000";
layers = (
{
layerId = m01;
shapes = (
{
closed = 1;
nodes = (
(390,272,o),
(458,364,o),
(483,503,cs),
(497,582,o),
(429,654,o),
(338,654,cs),
(223,654,o),
(159,590,o),
(142,495,cs),
(138,473,o),
(143,460,o),
(154,457,cs),
(167,454,o),
(187,463,o),
(191,485,cs),
(201,542,o),
(239,604,o),
(324,604,cs),
(390,604,o),
(444,568,o),
(433,507,cs),
(425,461,o),
(401,322,o),
(239,322,c),
(234,272,l)
);
},
{
closed = 1;
nodes = (
(202,-24,o),
(218,-9,o),
(218,7,cs),
(218,26,o),
(203,41,o),
(184,41,cs),
(167,41,o),
(153,25,o),
(153,7,cs),
(153,-8,o),
(167,-24,o),
(184,-24,cs)
);
},
{
closed = 1;
nodes = (
(264,310,o),
(257,322,o),
(237,322,cs),
(226,322,o),
(214,314,o),
(212,303,cs),
(194,202,ls),
(192,188,o),
(202,178,o),
(214,175,cs),
(227,173,o),
(241,180,o),
(245,202,cs),
(263,303,ls)
);
}
);
width = 487;
},
{
layerId = m002;
shapes = (
{
closed = 1;
nodes = (
(432,256,o),
(507,353,o),
(533,492,cs),
(548,577,o),
(474,654,o),
(377,654,cs),
(260,654,o),
(193,586,o),
(176,493,cs),
(169,458,o),
(184,439,o),
(205,434,cs),
(230,427,o),
(265,443,o),
(270,476,cs),
(278,524,o),
(303,565,o),
(365,565,cs),
(416,565,o),
(446,545,o),
(438,504,cs),
(431,459,o),
(410,345,o),
(278,356,c),
(257,267,l)
);
},
{
closed = 1;
nodes = (
(253,-24,o),
(281,2,o),
(281,32,cs),
(281,61,o),
(255,86,o),
(225,86,cs),
(194,86,o),
(171,60,o),
(171,32,cs),
(171,4,o),
(194,-24,o),
(224,-24,cs)
);
},
{
closed = 1;
nodes = (
(332,338,o),
(308,356,o),
(279,356,cs),
(258,356,o),
(236,342,o),
(232,321,cs),
(216,233,ls),
(211,207,o),
(226,182,o),
(255,176,cs),
(281,171,o),
(305,193,o),
(311,225,cs),
(327,313,ls)
);
}
);
width = 577;
}
);
metricLeft = O;
metricRight = O;
unicode = 63;
},
{
glyphname = questiondown;
lastChange = "2022-03-08 22:48:52 +0000";
layers = (
{
layerId = m01;
shapes = (
{
closed = 1;
nodes = (
(175,382,o),
(107,290,o),
(82,151,cs),
(68,72,o),
(136,0,o),
(227,0,cs),
(342,0,o),
(406,64,o),
(423,159,cs),
(427,181,o),
(422,194,o),
(411,197,cs),
(398,200,o),
(378,191,o),
(374,169,cs),
(364,112,o),
(326,50,o),
(241,50,cs),
(175,50,o),
(121,86,o),
(132,147,cs),
(140,193,o),
(164,332,o),
(326,332,c),
(331,382,l)
);
},
{
closed = 1;
nodes = (
(373,466,o),
(363,476,o),
(351,479,cs),
(338,481,o),
(324,474,o),
(320,452,cs),
(302,351,ls),
(301,344,o),
(308,332,o),
(328,332,cs),
(339,332,o),
(351,340,o),
(353,351,cs),
(371,452,ls)
);
},
{
closed = 1;
nodes = (
(393,585,o),
(407,601,o),
(407,619,cs),
(407,634,o),
(393,650,o),
(376,650,cs),
(358,650,o),
(342,635,o),
(342,619,cs),
(342,600,o),
(357,585,o),
(376,585,cs)
);
}
);
width = 488;
},
{
layerId = m002;
shapes = (
{
closed = 1;
nodes = (
(223,398,o),
(142,296,o),
(117,160,cs),
(103,76,o),
(174,1,o),
(269,1,cs),
(384,1,o),
(456,67,o),
(473,159,cs),
(478,194,o),
(465,212,o),
(444,217,cs),
(420,224,o),
(385,208,o),
(379,175,cs),
(372,128,o),
(347,89,o),
(287,89,cs),
(237,89,o),
(209,108,o),
(216,148,cs),
(223,192,o),
(247,300,o),
(368,289,c),
(397,386,l)
);
},
{
closed = 1;
nodes = (
(440,454,o),
(421,473,o),
(397,479,cs),
(371,484,o),
(341,470,o),
(335,435,cs),
(317,333,ls),
(313,310,o),
(337,289,o),
(368,289,cs),
(390,289,o),
(413,304,o),
(417,326,cs),
(435,428,ls)
);
},
{
closed = 1;
nodes = (
(445,540,o),
(467,568,o),
(467,597,cs),
(467,625,o),
(443,650,o),
(413,650,cs),
(382,650,o),
(357,625,o),
(357,598,cs),
(357,568,o),
(382,540,o),
(414,540,cs)
);
}
);
width = 576;
}
);
metricLeft = O;
metricRight = O;
unicode = 191;
},
{
glyphname = periodcentered;
lastChange = "2022-03-08 22:48:52 +0000";
layers = (
{
layerId = m01;
shapes = (
{
closed = 1;
nodes = (
(148,138,o),
(166,157,o),
(166,177,cs),
(166,198,o),
(148,214,o),
(128,214,cs),
(107,214,o),
(91,197,o),
(91,177,cs),
(91,158,o),
(107,138,o),
(128,138,cs)
);
}
);
width = 254;
},
{
layerId = m002;
shapes = (
{
closed = 1;
nodes = (
(192,121,o),
(219,149,o),
(219,178,cs),
(219,209,o),
(192,231,o),
(163,231,cs),
(132,231,o),
(109,207,o),
(109,178,cs),
(109,151,o),
(132,121,o),
(163,121,cs)
);
}
);
width = 327;
}
);
metricLeft = n;
metricRight = n;
unicode = 183;
},
{
glyphname = bullet;
lastChange = "2022-03-08 22:48:52 +0000";
layers = (
{
layerId = m01;
shapes = (
{
closed = 1;
nodes = (
(236,278,o),
(273,314,o),
(273,355,cs),
(273,396,o),
(237,430,o),
(197,430,cs),
(155,430,o),
(123,395,o),
(123,355,cs),
(123,316,o),
(154,278,o),
(196,278,cs)
);
}
);
width = 330;
},
{
layerId = m002;
shapes = (
{
closed = 1;
nodes = (
(292,254,o),
(341,301,o),
(341,355,cs),
(341,409,o),
(293,454,o),
(239,454,cs),
(184,454,o),
(141,408,o),
(141,355,cs),
(141,304,o),
(182,254,o),
(238,254,cs)
);
}
);
width = 419;
}
);
metricLeft = n;
metricRight = n;
unicode = 8226;
},
{
glyphname = asterisk;
lastChange = "2022-03-08 22:48:52 +0000";
layers = (
{
layerId = m01;
shapes = (
{
closed = 1;
nodes = (
(336,584,o),
(339,598,o),
(333,607,cs),
(328,614,o),
(316,617,o),
(301,608,cs),
(165,524,ls),
(148,513,o),
(144,499,o),
(150,491,cs),
(155,483,o),
(167,481,o),
(183,490,cs),
(319,574,ls)
);
},
{
closed = 1;
nodes = (
(296,482,o),
(309,484,o),
(316,492,cs),
(321,499,o),
(321,511,o),
(308,521,cs),
(200,606,ls),
(188,616,o),
(176,614,o),
(170,606,cs),
(163,599,o),
(163,586,o),
(176,576,cs),
(283,492,ls)
);
},
{
closed = 1;
nodes = (
(277,641,o),
(269,650,o),
(260,650,cs),
(250,650,o),
(238,641,o),
(235,623,cs),
(209,475,ls),
(206,458,o),
(213,450,o),
(222,448,cs),
(232,447,o),
(245,456,o),
(248,475,cs),
(274,623,ls)
);
}
);
width = 352;
},
{
layerId = m002;
shapes = (
{
closed = 1;
nodes = (
(398,570,o),
(408,594,o),
(393,617,cs),
(382,633,o),
(354,639,o),
(329,625,cs),
(196,543,l),
(174,527,o),
(162,504,o),
(175,483,cs),
(185,464,o),
(216,458,o),
(243,474,cs),
(372,554,ls)
);
},
{
closed = 1;
nodes = (
(333,460,o),
(362,464,o),
(376,481,cs),
(389,499,o),
(387,521,o),
(365,538,cs),
(260,621,ls),
(238,638,o),
(209,634,o),
(196,617,cs),
(181,599,o),
(183,576,o),
(207,558,cs),
(308,477,l)
);
},
{
closed = 1;
nodes = (
(346,648,o),
(326,668,o),
(302,668,cs),
(281,668,o),
(258,651,o),
(253,624,cs),
(228,482,ls),
(223,453,o),
(239,436,o),
(260,431,cs),
(282,426,o),
(310,443,o),
(316,474,cs),
(341,616,ls)
);
}
);
width = 431;
}
);
metricLeft = N;
metricRight = N;
unicode = 42;
},
{
glyphname = numbersign;
lastChange = "2022-03-08 22:48:52 +0000";
layers = (
{
layerId = m01;
shapes = (
{
closed = 1;
nodes = (
(355,559,o),
(344,568,o),
(331,568,cs),
(318,568,o),
(304,560,o),
(301,543,cs),
(210,28,ls),
(207,10,o),
(217,0,o),
(229,0,cs),
(242,-1,o),
(257,8,o),
(261,28,cs),
(352,543,ls)
);
},
{
closed = 1;
nodes = (
(678,147,o),
(687,159,o),
(687,170,cs),
(687,181,o),
(679,192,o),
(661,192,cs),
(116,192,ls),
(98,192,o),
(90,181,o),
(90,170,cs),
(90,159,o),
(99,147,o),
(116,147,cs),
(661,147,ls)
);
},
{
closed = 1;
nodes = (
(611,559,o),
(600,567,o),
(588,568,cs),
(575,568,o),
(560,560,o),
(557,543,cs),
(466,28,ls),
(463,9,o),
(474,-1,o),
(487,0,cs),
(500,0,o),
(514,9,o),
(517,28,cs),
(608,543,ls)
);
},
{
closed = 1;
nodes = (
(720,384,o),
(729,395,o),
(729,406,cs),
(729,417,o),
(720,429,o),
(702,429,cs),
(158,429,ls),
(140,429,o),
(131,417,o),
(131,406,cs),
(131,395,o),
(140,384,o),
(158,384,cs),
(702,384,ls)
);
}
);
width = 779;
},
{
layerId = m002;
shapes = (
{
closed = 1;
nodes = (
(656,555,o),
(632,568,o),
(609,568,cs),
(585,568,o),
(557,558,o),
(552,531,cs),
(467,47,ls),
(461,13,o),
(487,0,o),
(514,0,cs),
(538,0,o),
(560,11,o),
(565,39,cs),
(650,523,ls)
);
},
{
closed = 1;
nodes = (
(704,133,o),
(724,153,o),
(724,177,cs),
(724,200,o),
(705,218,o),
(675,218,cs),
(163,218,ls),
(133,218,o),
(113,200,o),
(113,177,cs),
(113,153,o),
(134,133,o),
(163,133,cs),
(675,133,ls)
);
},
{
closed = 1;
nodes = (
(414,552,o),
(390,568,o),
(363,568,cs),
(338,568,o),
(317,557,o),
(312,530,cs),
(226,47,ls),
(220,16,o),
(240,0,o),
(266,0,cs),
(290,0,o),
(319,10,o),
(324,39,cs),
(409,523,ls)
);
},
{
closed = 1;
nodes = (
(743,357,o),
(764,375,o),
(764,399,cs),
(764,422,o),
(743,442,o),
(713,442,cs),
(202,442,ls),
(172,442,o),
(152,422,o),
(152,399,cs),
(152,375,o),
(172,357,o),
(202,357,cs),
(713,357,ls)
);
}
);
width = 829;
}
);
metricLeft = N;
metricRight = N;
unicode = 35;
},
{
glyphname = slash;
lastChange = "2022-03-08 22:48:52 +0000";
layers = (
{
layerId = m01;
shapes = (
{
closed = 1;
nodes = (
(381,637,o),
(366,650,o),
(351,650,cs),
(340,650,o),
(329,644,o),
(322,627,cs),
(65,31,ls),
(57,12,o),
(71,0,o),
(87,0,cs),
(98,0,o),
(109,6,o),
(115,20,cs),
(372,616,ls)
);
}
);
width = 385;
},
{
layerId = m002;
shapes = (
{
closed = 1;
nodes = (
(447,624,o),
(416,650,o),
(386,650,cs),
(366,650,o),
(344,639,o),
(333,614,cs),
(93,60,ls),
(78,25,o),
(107,0,o),
(139,0,cs),
(158,0,o),
(180,10,o),
(190,32,cs),
(431,588,ls)
);
}
);
width = 464;
}
);
metricLeft = N;
metricRight = N;
unicode = 47;
},
{
glyphname = backslash;
lastChange = "2022-03-08 22:48:52 +0000";
layers = (
{
layerId = m01;
shapes = (
{
closed = 1;
nodes = (
(216,644,o),
(205,650,o),
(194,650,cs),
(179,650,o),
(164,637,o),
(173,616,cs),
(430,20,ls),
(436,5,o),
(448,0,o),
(459,0,cs),
(474,0,o),
(488,13,o),
(480,31,cs),
(223,627,ls)
);
}
);
width = 600;
},
{
layerId = m002;
shapes = (
{
closed = 1;
nodes = (
(271,648,o),
(240,655,o),
(215,646,cs),
(193,638,o),
(179,608,o),
(194,574,cs),
(429,32,ls),
(442,1,o),
(476,-6,o),
(501,4,cs),
(522,13,o),
(534,41,o),
(522,69,cs),
(286,614,ls)
);
}
);
width = 654;
}
);
metricLeft = N;
metricRight = N;
unicode = 92;
},
{
glyphname = exclam.c2sc;
lastChange = "2022-03-08 22:48:52 +0000";
layers = (
{
layerId = m01;
shapes = (
{
closed = 1;
nodes = (
(106,-24,o),
(122,-8,o),
(122,9,cs),
(122,26,o),
(106,41,o),
(88,41,cs),
(70,41,o),
(57,25,o),
(57,9,cs),
(57,-7,o),
(70,-24,o),
(88,-24,cs)
);
},
{
closed = 1;
nodes = (
(181,382,o),
(172,396,o),
(158,396,cs),
(140,396,o),
(131,386,o),
(128,372,cs),
(98,205,ls),
(95,188,o),
(107,175,o),
(120,175,cs),
(135,175,o),
(145,185,o),
(148,199,cs),
(178,367,ls)
);
}
);
width = 246;
},
{
layerId = m002;
shapes = (
{
closed = 1;
nodes = (
(162,-47,o),
(189,-20,o),
(189,9,cs),
(189,38,o),
(162,64,o),
(132,64,cs),
(101,64,o),
(79,36,o),
(79,9,cs),
(79,-18,o),
(101,-47,o),
(132,-47,cs)
);
},
{
closed = 1;
nodes = (
(249,370,o),
(229,396,o),
(199,396,cs),
(173,396,o),
(149,381,o),
(144,353,cs),
(114,186,ls),
(108,154,o),
(133,129,o),
(161,129,cs),
(187,129,o),
(207,146,o),
(213,172,cs),
(243,340,ls)
);
}
);
width = 327;
}
);
metricLeft = N;
metricRight = N;
},
{
glyphname = exclamdown.c2sc;
lastChange = "2022-03-08 22:48:52 +0000";
layers = (
{
layerId = m01;
shapes = (
{
closed = 1;
nodes = (
(140,420,o),
(124,404,o),
(124,387,cs),
(124,370,o),
(140,355,o),
(158,355,cs),
(176,355,o),
(189,371,o),
(189,387,cs),
(189,403,o),
(176,420,o),
(158,420,cs)
);
},
{
closed = 1;
nodes = (
(65,14,o),
(74,0,o),
(88,0,cs),
(106,0,o),
(115,10,o),
(118,24,cs),
(148,191,ls),
(151,208,o),
(139,221,o),
(126,221,cs),
(111,221,o),
(101,211,o),
(98,197,cs),
(68,29,ls)
);
}
);
width = 246;
},
{
layerId = m002;
shapes = (
{
closed = 1;
nodes = (
(173,443,o),
(146,416,o),
(146,387,cs),
(146,358,o),
(173,332,o),
(203,332,cs),
(234,332,o),
(256,360,o),
(256,387,cs),
(256,414,o),
(234,443,o),
(203,443,cs)
);
},
{
closed = 1;
nodes = (
(86,26,o),
(106,0,o),
(136,0,cs),
(162,0,o),
(186,15,o),
(191,43,cs),
(221,210,ls),
(227,242,o),
(202,267,o),
(174,267,cs),
(148,267,o),
(128,250,o),
(122,224,cs),
(92,56,ls)
);
}
);
width = 327;
}
);
metricLeft = N;
metricRight = N;
},
{
glyphname = question.c2sc;
lastChange = "2022-03-08 22:48:52 +0000";
layers = (
{
layerId = m01;
shapes = (
{
closed = 1;
nodes = (
(272,139,o),
(342,167,o),
(350,275,cs),
(356,345,o),
(321,395,o),
(236,395,cs),
(174,395,o),
(131,366,o),
(106,308,cs),
(99,292,o),
(107,277,o),
(115,274,cs),
(123,271,o),
(145,271,o),
(151,286,cs),
(166,324,o),
(189,345,o),
(233,345,cs),
(303,345,o),
(303,308,o),
(300,273,cs),
(291,184,o),
(227,189,o),
(178,189,cs),
(175,189,o),
(174,187,o),
(172,185,c),
(186,139,l)
);
},
{
closed = 1;
nodes = (
(164,-24,o),
(180,-9,o),
(180,7,cs),
(180,26,o),
(165,41,o),
(146,41,cs),
(129,41,o),
(115,25,o),
(115,7,cs),
(115,-8,o),
(129,-24,o),
(146,-24,cs)
);
},
{
closed = 1;
nodes = (
(175,87,o),
(189,94,o),
(193,116,cs),
(203,170,ls),
(204,177,o),
(197,189,o),
(177,189,cs),
(166,189,o),
(154,181,o),
(152,170,cs),
(142,116,ls),
(139,102,o),
(150,92,o),
(162,89,cs)
);
}
);
width = 400;
},
{
layerId = m002;
shapes = (
{
closed = 1;
nodes = (
(326,120,o),
(424,157,o),
(434,273,cs),
(441,356,o),
(395,418,o),
(295,418,cs),
(223,418,o),
(170,383,o),
(142,317,cs),
(131,291,o),
(141,262,o),
(165,252,cs),
(185,245,o),
(222,251,o),
(233,278,cs),
(247,311,o),
(261,322,o),
(292,322,cs),
(324,322,o),
(339,307,o),
(334,275,cs),
(325,218,o),
(281,222,o),
(234,222,cs),
(236,222,o),
(229,217,o),
(201,198,c),
(223,127,l)
);
},
{
closed = 1;
nodes = (
(232,-70,o),
(260,-44,o),
(260,-17,cs),
(260,15,o),
(234,41,o),
(202,41,cs),
(173,41,o),
(150,13,o),
(150,-17,cs),
(150,-42,o),
(173,-70,o),
(202,-70,cs)
);
},
{
closed = 1;
nodes = (
(241,72,o),
(269,86,o),
(276,122,cs),
(286,176,ls),
(291,201,o),
(267,222,o),
(235,222,cs),
(213,222,o),
(189,206,o),
(185,184,cs),
(175,131,ls),
(170,104,o),
(189,83,o),
(214,77,cs)
);
}
);
width = 522;
}
);
metricLeft = O;
metricRight = O;
},
{
glyphname = questiondown.c2sc;
lastChange = "2022-03-08 22:48:52 +0000";
layers = (
{
layerId = m01;
shapes = (
{
closed = 1;
nodes = (
(151,256,o),
(81,228,o),
(73,120,cs),
(67,50,o),
(102,0,o),
(187,0,cs),
(249,0,o),
(292,29,o),
(317,87,cs),
(324,103,o),
(316,118,o),
(308,121,cs),
(300,124,o),
(278,124,o),
(272,109,cs),
(257,71,o),
(234,50,o),
(190,50,cs),
(120,50,o),
(120,87,o),
(123,122,cs),
(132,211,o),
(196,206,o),
(245,206,cs),
(248,206,o),
(249,208,o),
(251,210,c),
(237,256,l)
);
},
{
closed = 1;
nodes = (
(259,419,o),
(243,404,o),
(243,388,cs),
(243,369,o),
(258,354,o),
(277,354,cs),
(294,354,o),
(308,370,o),
(308,388,cs),
(308,403,o),
(294,419,o),
(277,419,cs)
);
},
{
closed = 1;
nodes = (
(248,308,o),
(234,301,o),
(230,279,cs),
(220,225,ls),
(219,218,o),
(226,206,o),
(246,206,cs),
(257,206,o),
(269,214,o),
(271,225,cs),
(281,279,ls),
(284,293,o),
(273,303,o),
(261,306,cs)
);
}
);
width = 400;
},
{
layerId = m002;
shapes = (
{
closed = 1;
nodes = (
(219,298,o),
(121,261,o),
(111,145,cs),
(104,62,o),
(150,0,o),
(250,0,cs),
(322,0,o),
(375,35,o),
(403,101,cs),
(414,127,o),
(404,156,o),
(380,166,cs),
(360,173,o),
(323,167,o),
(312,140,cs),
(298,107,o),
(284,96,o),
(253,96,cs),
(221,96,o),
(206,111,o),
(211,143,cs),
(220,200,o),
(264,196,o),
(311,196,cs),
(309,196,o),
(316,201,o),
(344,220,c),
(322,291,l)
);
},
{
closed = 1;
nodes = (
(313,488,o),
(285,462,o),
(285,435,cs),
(285,403,o),
(311,377,o),
(343,377,cs),
(372,377,o),
(395,405,o),
(395,435,cs),
(395,460,o),
(372,488,o),
(343,488,cs)
);
},
{
closed = 1;
nodes = (
(304,346,o),
(276,332,o),
(269,296,cs),
(259,242,ls),
(254,217,o),
(278,196,o),
(310,196,cs),
(332,196,o),
(356,212,o),
(360,234,cs),
(370,287,ls),
(375,314,o),
(356,335,o),
(331,341,cs)
);
}
);
width = 522;
}
);
metricLeft = O;
metricRight = O;
},
{
glyphname = hyphen;
lastChange = "2022-03-08 22:48:52 +0000";
layers = (
{
layerId = m01;
shapes = (
{
closed = 1;
nodes = (
(287,175,o),
(296,186,o),
(296,198,cs),
(296,209,o),
(287,220,o),
(269,220,cs),
(121,220,ls),
(102,220,o),
(93,208,o),
(94,196,cs),
(95,185,o),
(104,175,o),
(121,175,cs),
(269,175,ls)
);
}
);
width = 380;
},
{
layerId = m002;
shapes = (
{
closed = 1;
nodes = (
(344,153,o),
(365,173,o),
(365,198,cs),
(365,222,o),
(344,242,o),
(313,242,cs),
(165,242,ls),
(132,242,o),
(111,220,o),
(113,194,cs),
(115,171,o),
(136,153,o),
(165,153,cs),
(313,153,ls)
);
}
);
width = 470;
}
);
metricLeft = n;
metricRight = n;
unicode = 45;
},
{
glyphname = endash;
lastChange = "2022-03-08 22:48:52 +0000";
layers = (
{
layerId = m01;
shapes = (
{
closed = 1;
nodes = (
(367,175,o),
(376,187,o),
(376,199,cs),
(376,210,o),
(367,220,o),
(349,220,cs),
(122,220,ls),
(104,220,o),
(95,210,o),
(95,199,cs),
(95,187,o),
(104,175,o),
(122,175,cs),
(349,175,ls)
);
}
);
width = 460;
},
{
layerId = m002;
shapes = (
{
closed = 1;
nodes = (
(423,153,o),
(444,174,o),
(444,199,cs),
(444,223,o),
(423,242,o),
(392,242,cs),
(165,242,ls),
(134,242,o),
(113,223,o),
(113,199,cs),
(113,174,o),
(134,153,o),
(165,153,cs),
(392,153,ls)
);
}
);
width = 548;
}
);
metricLeft = n;
metricRight = n;
unicode = 8211;
},
{
glyphname = emdash;
lastChange = "2022-03-08 22:48:52 +0000";
layers = (
{
layerId = m01;
shapes = (
{
closed = 1;
nodes = (
(467,175,o),
(478,187,o),
(478,199,cs),
(478,209,o),
(468,220,o),
(447,220,cs),
(124,220,ls),
(104,220,o),
(94,209,o),
(94,199,cs),
(94,187,o),
(105,175,o),
(124,175,cs),
(447,175,ls)
);
}
);
width = 562;
},
{
layerId = m002;
shapes = (
{
closed = 1;
nodes = (
(524,153,o),
(547,174,o),
(547,199,cs),
(547,222,o),
(525,242,o),
(491,242,cs),
(168,242,ls),
(135,242,o),
(113,222,o),
(113,199,cs),
(113,174,o),
(136,153,o),
(168,153,cs),
(491,153,ls)
);
}
);
width = 651;
}
);
metricLeft = n;
metricRight = n;
unicode = 8212;
},
{
glyphname = underscore;
lastChange = "2022-03-08 22:48:52 +0000";
layers = (
{
layerId = m01;
shapes = (
{
closed = 1;
nodes = (
(384,-77,o),
(393,-66,o),
(393,-54,cs),
(393,-43,o),
(384,-32,o),
(366,-32,cs),
(77,-32,ls),
(58,-32,o),
(50,-43,o),
(50,-55,cs),
(50,-66,o),
(60,-77,o),
(77,-77,cs),
(366,-77,ls)
);
}
);
width = 522;
},
{
layerId = m002;
shapes = (
{
closed = 1;
nodes = (
(440,-99,o),
(461,-79,o),
(461,-54,cs),
(461,-30,o),
(440,-10,o),
(409,-10,cs),
(120,-10,ls),
(88,-10,o),
(68,-30,o),
(68,-55,cs),
(68,-79,o),
(90,-99,o),
(120,-99,cs),
(409,-99,ls)
);
}
);
width = 610;
}
);
metricLeft = n;
metricRight = n;
unicode = 95;
},
{
glyphname = parenleft;
lastChange = "2022-03-08 22:48:52 +0000";
layers = (
{
layerId = m01;
shapes = (
{
closed = 1;
nodes = (
(231,-292,o),
(232,-278,o),
(224,-261,cs),
(138,-81,o),
(125,77,o),
(150,219,cs),
(173,347,o),
(249,480,o),
(375,607,cs),
(393,625,o),
(395,639,o),
(388,646,cs),
(380,654,o),
(362,651,o),
(342,633,cs),
(210,506,o),
(113,329,o),
(94,219,cs),
(72,94,o),
(98,-101,o),
(188,-283,cs),
(196,-299,o),
(212,-303,o),
(223,-297,cs)
);
}
);
width = 401;
},
{
layerId = m002;
shapes = (
{
closed = 1;
nodes = (
(308,-283,o),
(313,-264,o),
(301,-235,c),
(220,-66,o),
(208,80,o),
(232,213,cs),
(253,333,o),
(323,456,o),
(441,574,cs),
(472,605,o),
(467,628,o),
(453,643,cs),
(438,658,o),
(405,659,o),
(374,631,cs),
(242,505,o),
(147,330,o),
(128,221,cs),
(107,96,o),
(132,-95,o),
(221,-275,cs),
(236,-303,o),
(272,-310,o),
(293,-295,cs)
);
}
);
width = 491;
}
);
metricLeft = O;
metricRight = N;
unicode = 40;
},
{
glyphname = parenright;
lastChange = "2022-03-08 22:48:52 +0000";
layers = (
{
layerId = m01;
shapes = (
{
closed = 1;
nodes = (
(24,-284,o),
(41,-285,o),
(54,-273,cs),
(200,-133,o),
(291,42,o),
(314,167,cs),
(333,276,o),
(303,476,o),
(222,640,cs),
(209,664,o),
(194,673,o),
(183,668,cs),
(174,664,o),
(171,650,o),
(182,627,cs),
(257,465,o),
(283,314,o),
(261,186,cs),
(236,44,o),
(170,-100,o),
(27,-240,cs),
(14,-253,o),
(10,-267,o),
(16,-274,cs)
);
}
);
width = 377;
},
{
layerId = m002;
shapes = (
{
closed = 1;
nodes = (
(265,-132,o),
(354,41,o),
(377,164,cs),
(395,274,o),
(367,469,o),
(287,631,cs),
(266,669,o),
(237,679,o),
(215,669,cs),
(197,660,o),
(185,640,o),
(202,601,cs),
(273,448,o),
(297,309,o),
(276,190,cs),
(253,56,o),
(192,-76,o),
(60,-207,cs),
(40,-225,o),
(30,-249,o),
(45,-267,cs),
(61,-289,o),
(98,-291,o),
(119,-270,cs)
);
}
);
width = 479;
}
);
metricLeft = N;
metricRight = O;
unicode = 41;
},
{
glyphname = braceleft;
lastChange = "2022-03-08 22:48:52 +0000";
layers = (
{
layerId = m01;
shapes = (
{
closed = 1;
nodes = (
(181,237,o),
(194,268,o),
(202,312,cs),
(211,365,o),
(196,476,o),
(216,535,cs),
(235,585,o),
(280,606,o),
(312,617,cs),
(325,622,o),
(329,631,o),
(325,642,cs),
(320,655,o),
(303,649,o),
(290,644,cs),
(261,630,o),
(203,603,o),
(184,551,cs),
(162,489,o),
(175,376,o),
(165,318,cs),
(158,290,o),
(146,265,o),
(121,241,cs),
(108,229,o),
(98,222,o),
(96,206,c),
(140,198,l)
);
},
{
closed = 1;
nodes = (
(96,188,o),
(103,179,o),
(111,163,cs),
(127,130,o),
(132,101,o),
(129,72,cs),
(122,15,o),
(77,-93,o),
(80,-159,cs),
(83,-216,o),
(118,-266,o),
(143,-293,cs),
(154,-305,o),
(166,-309,o),
(174,-299,cs),
(182,-290,o),
(174,-281,o),
(164,-271,cs),
(137,-244,o),
(118,-211,o),
(116,-157,cs),
(114,-94,o),
(160,10,o),
(166,64,cs),
(171,108,o),
(167,145,o),
(140,198,c),
(96,206,l)
);
}
);
width = 350;
},
{
layerId = m002;
shapes = (
{
closed = 1;
nodes = (
(242,219,o),
(257,255,o),
(266,302,cs),
(275,357,o),
(261,459,o),
(279,511,cs),
(295,552,o),
(329,567,o),
(358,576,cs),
(381,585,o),
(393,605,o),
(383,628,cs),
(373,656,o),
(340,652,o),
(317,642,cs),
(288,629,o),
(222,599,o),
(201,540,cs),
(179,475,o),
(190,369,o),
(181,316,cs),
(175,291,o),
(165,273,o),
(146,254,cs),
(125,235,o),
(114,225,o),
(120,187,c),
(190,173,l)
);
},
{
closed = 1;
nodes = (
(110,182,o),
(122,172,o),
(132,153,cs),
(145,126,o),
(149,103,o),
(146,79,cs),
(139,26,o),
(94,-75,o),
(97,-143,cs),
(100,-203,o),
(137,-256,o),
(164,-285,cs),
(187,-311,o),
(218,-308,o),
(232,-289,cs),
(249,-268,o),
(237,-252,o),
(222,-235,cs),
(198,-211,o),
(183,-187,o),
(181,-139,cs),
(180,-83,o),
(226,12,o),
(231,66,cs),
(237,114,o),
(231,155,o),
(200,216,c),
(122,224,l)
);
}
);
width = 423;
}
);
metricLeft = N;
metricRight = N;
unicode = 123;
},
{
glyphname = braceright;
lastChange = "2022-03-08 22:48:52 +0000";
layers = (
{
layerId = m01;
shapes = (
{
closed = 1;
nodes = (
(164,125,o),
(148,91,o),
(139,48,cs),
(127,-5,o),
(136,-119,o),
(114,-178,cs),
(94,-228,o),
(66,-253,o),
(31,-270,cs),
(19,-276,o),
(8,-282,o),
(13,-293,cs),
(17,-305,o),
(30,-305,o),
(44,-297,cs),
(76,-280,o),
(126,-244,o),
(147,-191,cs),
(172,-130,o),
(164,-13,o),
(176,43,cs),
(183,72,o),
(197,97,o),
(223,123,cs),
(236,136,o),
(245,142,o),
(251,159,c),
(207,166,l)
);
},
{
closed = 1;
nodes = (
(254,175,o),
(247,185,o),
(239,200,cs),
(223,231,o),
(220,259,o),
(222,288,cs),
(232,346,o),
(281,448,o),
(280,514,cs),
(279,569,o),
(233,614,o),
(210,636,cs),
(199,645,o),
(185,657,o),
(176,646,cs),
(169,637,o),
(170,627,o),
(181,618,cs),
(207,597,o),
(243,563,o),
(245,509,cs),
(244,447,o),
(194,347,o),
(185,294,cs),
(178,250,o),
(181,216,o),
(207,166,c),
(251,159,l)
);
}
);
width = 344;
},
{
layerId = m002;
shapes = (
{
closed = 1;
nodes = (
(189,139,o),
(171,101,o),
(161,55,cs),
(149,0,o),
(154,-99,o),
(135,-151,cs),
(117,-195,o),
(97,-213,o),
(68,-227,cs),
(43,-240,o),
(30,-254,o),
(37,-275,cs),
(44,-300,o),
(77,-309,o),
(105,-291,c),
(139,-273,o),
(191,-235,o),
(213,-179,cs),
(239,-116,o),
(234,-10,o),
(245,40,cs),
(252,66,o),
(262,85,o),
(284,107,cs),
(298,122,o),
(314,130,o),
(317,175,c),
(242,187,l)
);
},
{
closed = 1;
nodes = (
(325,171,o),
(317,182,o),
(304,205,cs),
(291,231,o),
(288,253,o),
(290,278,c),
(300,332,o),
(347,430,o),
(346,497,cs),
(345,558,o),
(296,607,o),
(271,630,cs),
(250,648,o),
(219,662,o),
(201,637,cs),
(186,618,o),
(188,598,o),
(210,580,cs),
(233,562,o),
(260,536,o),
(262,493,cs),
(261,437,o),
(214,343,o),
(204,289,cs),
(197,241,o),
(201,202,o),
(234,143,c),
(306,132,l)
);
}
);
width = 423;
}
);
metricLeft = N;
metricRight = N;
unicode = 125;
},
{
glyphname = bracketleft;
lastChange = "2022-03-08 22:48:52 +0000";
layers = (
{
layerId = m01;
shapes = (
{
closed = 1;
nodes = (
(222,636,o),
(222,650,o),
(201,650,cs),
(180,650,o),
(172,639,o),
(169,623,cs),
(11,-273,ls),
(8,-288,o),
(16,-300,o),
(36,-300,cs),
(58,-300,o),
(60,-283,o),
(62,-273,cs),
(219,618,ls)
);
},
{
closed = 1;
nodes = (
(178,-300,ls),
(195,-300,o),
(204,-288,o),
(204,-277,cs),
(204,-266,o),
(196,-255,o),
(178,-255,cs),
(39,-255,l),
(33,-300,l)
);
},
{
closed = 1;
nodes = (
(337,605,ls),
(354,605,o),
(363,616,o),
(364,627,cs),
(365,638,o),
(356,650,o),
(337,650,cs),
(199,650,l),
(194,605,l)
);
}
);
width = 374;
},
{
layerId = m002;
shapes = (
{
closed = 1;
nodes = (
(296,640,o),
(271,650,o),
(244,650,cs),
(214,650,o),
(194,637,o),
(189,609,cs),
(37,-251,ls),
(32,-279,o),
(52,-300,o),
(86,-300,cs),
(119,-300,o),
(134,-278,o),
(138,-255,cs),
(289,600,ls)
);
},
{
closed = 1;
nodes = (
(222,-300,ls),
(252,-300,o),
(269,-284,o),
(274,-258,cs),
(279,-230,o),
(253,-215,o),
(222,-215,cs),
(96,-215,l),
(84,-300,l)
);
},
{
closed = 1;
nodes = (
(375,565,ls),
(403,565,o),
(422,582,o),
(426,605,cs),
(431,633,o),
(404,650,o),
(375,650,cs),
(242,650,l),
(232,565,l)
);
}
);
width = 454;
}
);
metricLeft = N;
metricRight = N;
unicode = 91;
},
{
glyphname = bracketright;
lastChange = "2022-03-08 22:48:52 +0000";
layers = (
{
layerId = m01;
shapes = (
{
closed = 1;
nodes = (
(366,638,o),
(358,650,o),
(338,650,cs),
(316,650,o),
(314,634,o),
(312,624,cs),
(155,-268,ls),
(152,-286,o),
(152,-300,o),
(173,-300,c),
(195,-300,o),
(202,-289,o),
(205,-273,cs),
(363,623,ls)
);
},
{
closed = 1;
nodes = (
(183,-255,l),
(38,-255,ls),
(21,-255,o),
(11,-266,o),
(11,-277,cs),
(11,-289,o),
(19,-300,o),
(38,-300,cs),
(176,-300,l)
);
},
{
closed = 1;
nodes = (
(342,650,l),
(197,650,ls),
(179,650,o),
(170,638,o),
(170,627,cs),
(170,616,o),
(179,605,o),
(197,605,cs),
(334,605,l)
);
}
);
width = 374;
},
{
layerId = m002;
shapes = (
{
closed = 1;
nodes = (
(429,629,o),
(409,650,o),
(375,650,cs),
(341,650,o),
(328,632,o),
(324,610,cs),
(173,-246,ls),
(165,-291,o),
(190,-300,o),
(217,-300,cs),
(248,-300,o),
(267,-287,o),
(272,-259,cs),
(424,601,ls)
);
},
{
closed = 1;
nodes = (
(232,-215,l),
(87,-215,ls),
(61,-215,o),
(40,-233,o),
(36,-257,cs),
(32,-281,o),
(53,-300,o),
(87,-300,cs),
(218,-300,l)
);
},
{
closed = 1;
nodes = (
(376,650,l),
(240,650,ls),
(209,650,o),
(193,634,o),
(188,607,cs),
(184,583,o),
(209,565,o),
(240,565,cs),
(360,565,l)
);
}
);
width = 453;
}
);
metricLeft = N;
metricRight = N;
unicode = 93;
},
{
glyphname = quotedbl;
lastChange = "2022-03-08 22:48:52 +0000";
layers = (
{
layerId = m01;
shapes = (
{
closed = 1;
nodes = (
(224,640,o),
(211,650,o),
(198,650,cs),
(186,650,o),
(172,641,o),
(169,624,cs),
(152,528,ls),
(149,510,o),
(161,500,o),
(174,500,cs),
(186,500,o),
(200,508,o),
(203,524,cs),
(220,620,ls)
);
},
{
closed = 1;
nodes = (
(331,640,o),
(319,650,o),
(305,650,cs),
(293,650,o),
(281,642,o),
(278,628,cs),
(260,528,ls),
(257,509,o),
(269,500,o),
(283,500,cs),
(295,500,o),
(309,507,o),
(311,521,cs),
(328,620,ls)
);
}
);
width = 340;
},
{
layerId = m002;
shapes = (
{
closed = 1;
nodes = (
(453,629,o),
(427,650,o),
(399,650,cs),
(376,650,o),
(352,635,o),
(347,610,cs),
(329,510,ls),
(322,472,o),
(353,456,o),
(377,456,cs),
(399,456,o),
(426,470,o),
(430,496,cs),
(447,595,ls)
);
},
{
closed = 1;
nodes = (
(294,628,o),
(270,650,o),
(242,650,cs),
(219,650,o),
(193,634,o),
(188,606,cs),
(171,510,ls),
(165,477,o),
(190,456,o),
(218,456,cs),
(241,456,o),
(266,471,o),
(271,498,cs),
(288,594,ls)
);
}
);
width = 477;
}
);
metricLeft = N;
metricRight = N;
unicode = 34;
},
{
glyphname = quotesingle;
lastChange = "2022-03-08 22:48:52 +0000";
layers = (
{
layerId = m01;
shapes = (
{
closed = 1;
nodes = (
(223,640,o),
(211,650,o),
(197,650,cs),
(185,650,o),
(173,642,o),
(170,628,cs),
(152,528,ls),
(149,509,o),
(161,500,o),
(175,500,cs),
(187,500,o),
(201,507,o),
(203,521,cs),
(220,620,ls)
);
}
);
width = 232;
},
{
layerId = m002;
shapes = (
{
closed = 1;
nodes = (
(294,629,o),
(269,650,o),
(241,650,cs),
(218,650,o),
(195,635,o),
(189,610,cs),
(171,510,ls),
(165,472,o),
(195,456,o),
(219,456,cs),
(241,456,o),
(268,470,o),
(272,496,cs),
(289,595,ls)
);
}
);
width = 319;
}
);
metricLeft = N;
metricRight = N;
unicode = 39;
},
{
glyphname = at;
lastChange = "2022-03-08 22:48:52 +0000";
layers = (
{
layerId = m01;
shapes = (
{
closed = 1;
nodes = (
(662,153,o),
(677,204,o),
(681,238,cs),
(703,403,o),
(620,476,o),
(463,476,cs),
(373,476,o),
(273,458,o),
(216,418,cs),
(128,356,o),
(85,228,o),
(72,124,cs),
(53,-20,o),
(106,-118,o),
(253,-118,cs),
(307,-118,o),
(349,-105,o),
(382,-84,cs),
(420,-60,o),
(428,-36,o),
(417,-22,cs),
(409,-11,o),
(396,-15,o),
(375,-29,cs),
(331,-60,o),
(286,-68,o),
(249,-68,cs),
(138,-68,o),
(104,4,o),
(123,123,cs),
(134,192,o),
(163,317,o),
(242,375,cs),
(288,409,o),
(377,426,o),
(461,426,cs),
(583,426,o),
(648,379,o),
(634,256,cs),
(629,214,o),
(612,166,o),
(583,125,c),
(624,98,l)
);
},
{
closed = 1;
nodes = (
(478,300,l),
(450,253,o),
(417,204,o),
(376,152,cs),
(315,76,o),
(278,46,o),
(259,46,cs),
(245,46,o),
(245,61,o),
(245,77,cs),
(245,115,o),
(263,205,o),
(289,244,cs),
(319,289,o),
(370,299,o),
(404,299,cs),
(411,299,o),
(479,299,o),
(487,299,c),
(498,299,l),
(498,301,o),
(498,346,o),
(498,349,c),
(486,349,o),
(424,349,o),
(404,349,cs),
(347,349,o),
(288,332,o),
(250,275,cs),
(218,227,o),
(195,130,o),
(195,72,cs),
(195,21,o),
(218,0,o),
(251,0,cs),
(309,0,o),
(358,49,o),
(400,101,cs),
(448,162,o),
(496,239,o),
(519,291,cs),
(523,300,l)
);
},
{
closed = 1;
nodes = (
(561,92,o),
(517,48,o),
(501,48,cs),
(490,48,o),
(493,66,o),
(493,78,cs),
(493,93,o),
(498,124,o),
(499,132,cs),
(534,327,ls),
(537,343,o),
(531,349,o),
(516,349,cs),
(486,349,l),
(450,146,ls),
(446,122,o),
(443,95,o),
(443,75,cs),
(443,26,o),
(460,0,o),
(496,0,cs),
(549,0,o),
(593,54,o),
(629,105,c),
(590,135,l)
);
}
);
width = 749;
},
{
layerId = m002;
shapes = (
{
closed = 1;
nodes = (
(690,131,o),
(706,193,o),
(712,228,cs),
(741,391,o),
(662,487,o),
(480,487,cs),
(397,487,o),
(293,473,o),
(225,423,cs),
(131,353,o),
(97,227,o),
(81,134,cs),
(57,-4,o),
(98,-128,o),
(277,-128,cs),
(329,-128,o),
(374,-116,o),
(405,-96,cs),
(455,-65,o),
(453,-43,o),
(437,-19,cs),
(427,-4,o),
(403,9,o),
(371,-12,cs),
(336,-36,o),
(303,-40,o),
(273,-40,cs),
(193,-40,o),
(158,28,o),
(175,127,cs),
(185,186,o),
(206,295,o),
(277,349,cs),
(329,389,o),
(407,397,o),
(478,397,cs),
(606,397,o),
(637,348,o),
(620,249,cs),
(613,208,o),
(593,160,o),
(559,118,c),
(636,69,l)
);
},
{
closed = 1;
nodes = (
(489,303,l),
(462,258,o),
(433,211,o),
(395,163,cs),
(342,97,o),
(320,86,o),
(315,86,cs),
(310,86,o),
(310,105,o),
(310,110,cs),
(310,133,o),
(324,195,o),
(343,225,cs),
(365,258,o),
(398,265,o),
(422,265,cs),
(428,265,o),
(488,265,o),
(495,265,cs),
(529,265,l),
(529,289,o),
(529,328,o),
(529,350,c),
(506,350,o),
(441,350,o),
(422,350,cs),
(367,350,o),
(304,335,o),
(266,276,cs),
(236,229,o),
(216,139,o),
(216,85,cs),
(216,25,o),
(233,-2,o),
(274,-2,cs),
(337,-2,o),
(399,52,o),
(437,97,cs),
(480,153,o),
(531,223,o),
(546,269,cs),
(558,307,l)
);
},
{
closed = 1;
nodes = (
(564,116,o),
(538,111,o),
(534,111,cs),
(527,111,o),
(527,121,o),
(529,131,cs),
(531,143,o),
(536,169,o),
(537,175,cs),
(561,305,ls),
(566,333,o),
(548,350,o),
(520,350,cs),
(473,350,l),
(437,153,ls),
(433,132,o),
(431,106,o),
(431,87,cs),
(431,27,o),
(467,-1,o),
(510,-1,cs),
(578,-1,o),
(638,60,o),
(666,113,c),
(591,166,l)
);
}
);
width = 780;
}
);
metricLeft = o;
metricRight = "=o-5";
unicode = 64;
},
{
glyphname = ampersand;
lastChange = "2022-03-08 22:48:52 +0000";
layers = (
{
layerId = m01;
shapes = (
{
closed = 1;
nodes = (
(422,4,o),
(440,-7,o),
(455,4,cs),
(468,14,o),
(465,29,o),
(457,41,cs),
(267,317,l),
(198,324,l),
(137,279,o),
(96,227,o),
(87,178,cs),
(73,103,o),
(127,-4,o),
(247,-4,cs),
(337,-4,o),
(376,56,o),
(444,169,c),
(452,181,o),
(448,195,o),
(436,201,cs),
(424,208,o),
(408,203,o),
(399,190,c),
(338,96,o),
(316,46,o),
(247,46,cs),
(173,46,o),
(124,103,o),
(135,164,cs),
(143,205,o),
(178,249,o),
(229,285,c),
(415,14,ls)
);
},
{
closed = 1;
nodes = (
(232,363,o),
(187,424,o),
(187,455,cs),
(187,487,o),
(233,518,o),
(290,518,cs),
(334,518,o),
(351,500,o),
(355,486,cs),
(364,449,o),
(292,383,o),
(191,319,c),
(267,309,l),
(354,371,o),
(421,432,o),
(401,500,cs),
(388,547,o),
(343,568,o),
(290,568,cs),
(202,568,o),
(137,510,o),
(137,453,cs),
(137,403,o),
(186,342,o),
(208,309,c),
(251,335,l)
);
}
);
width = 553;
},
{
layerId = m002;
shapes = (
{
closed = 1;
nodes = (
(442,3,o),
(478,-9,o),
(502,8,cs),
(527,27,o),
(522,52,o),
(508,73,cs),
(329,335,l),
(242,344,l),
(178,297,o),
(133,243,o),
(123,190,cs),
(108,108,o),
(168,-4,o),
(295,-4,cs),
(394,-4,o),
(436,63,o),
(498,168,cs),
(512,190,o),
(504,213,o),
(483,225,cs),
(461,238,o),
(429,231,o),
(414,209,cs),
(356,120,o),
(342,86,o),
(295,86,cs),
(239,86,o),
(208,123,o),
(217,169,cs),
(222,197,o),
(242,225,o),
(273,251,c),
(429,23,ls)
);
},
{
closed = 1;
nodes = (
(302,369,o),
(265,419,o),
(265,441,cs),
(265,460,o),
(290,478,o),
(335,478,cs),
(362,478,o),
(369,473,o),
(371,465,cs),
(377,438,o),
(312,386,o),
(218,333,c),
(321,284,l),
(407,344,o),
(484,409,o),
(461,489,cs),
(446,543,o),
(392,568,o),
(335,568,cs),
(240,568,o),
(169,504,o),
(169,439,cs),
(169,386,o),
(218,325,o),
(251,276,c),
(333,325,l)
);
}
);
width = 644;
}
);
metricLeft = O;
metricRight = O;
unicode = 38;
},
{
glyphname = degree;
lastChange = "2022-03-08 22:48:52 +0000";
layers = (
{
layerId = m01;
shapes = (
{
closed = 1;
nodes = (
(254,433,o),
(320,532,o),
(320,595,cs),
(320,634,o),
(297,655,o),
(252,655,cs),
(215,655,o),
(189,630,o),
(174,604,cs),
(163,583,o),
(146,543,o),
(146,496,cs),
(146,449,o),
(163,433,o),
(190,433,cs)
);
},
{
closed = 1;
nodes = (
(185,472,o),
(185,486,o),
(185,503,cs),
(185,530,o),
(197,559,o),
(211,588,c),
(223,608,o),
(233,615,o),
(250,615,cs),
(272,615,o),
(280,609,o),
(280,588,cs),
(280,550,o),
(228,472,o),
(197,472,cs)
);
}
);
width = 310;
},
{
layerId = m002;
shapes = (
{
closed = 1;
nodes = (
(320,398,o),
(391,508,o),
(391,577,cs),
(391,625,o),
(359,654,o),
(303,654,cs),
(254,654,o),
(222,621,o),
(206,593,cs),
(194,573,o),
(177,528,o),
(177,478,cs),
(177,410,o),
(213,398,o),
(241,398,cs)
);
},
{
closed = 1;
nodes = (
(254,476,o),
(252,492,o),
(253,504,cs),
(256,524,o),
(262,543,o),
(272,562,cs),
(280,577,o),
(290,580,o),
(300,580,cs),
(311,580,o),
(311,571,o),
(310,555,cs),
(308,523,o),
(276,476,o),
(258,476,cs)
);
}
);
width = 422;
}
);
metricLeft = O;
metricRight = O;
unicode = 176;
},
{
glyphname = bar;
lastChange = "2022-03-08 22:48:52 +0000";
layers = (
{
layerId = m01;
shapes = (
{
closed = 1;
nodes = (
(232,690,o),
(221,700,o),
(208,700,cs),
(196,700,o),
(181,690,o),
(178,672,cs),
(11,-273,ls),
(8,-288,o),
(17,-300,o),
(35,-300,cs),
(57,-300,o),
(60,-285,o),
(62,-275,cs),
(228,668,ls)
);
}
);
width = 231;
},
{
layerId = m002;
shapes = (
{
closed = 1;
nodes = (
(302,681,o),
(279,702,o),
(251,702,cs),
(229,702,o),
(203,685,o),
(198,657,cs),
(37,-250,ls),
(31,-278,o),
(53,-302,o),
(85,-302,cs),
(119,-302,o),
(131,-281,o),
(136,-260,c),
(296,645,ls)
);
}
);
width = 317;
}
);
metricLeft = N;
metricRight = N;
unicode = 124;
},
{
glyphname = brokenbar;
lastChange = "2022-03-08 22:48:52 +0000";
layers = (
{
layerId = m01;
shapes = (
{
closed = 1;
nodes = (
(137,152,o),
(126,162,o),
(114,162,cs),
(101,162,o),
(86,152,o),
(83,135,cs),
(11,-273,ls),
(8,-288,o),
(17,-300,o),
(35,-300,cs),
(57,-300,o),
(60,-285,o),
(62,-275,cs),
(134,135,ls)
);
},
{
closed = 1;
nodes = (
(232,690,o),
(221,700,o),
(208,700,cs),
(196,700,o),
(181,690,o),
(178,672,cs),
(106,266,ls),
(103,249,o),
(114,238,o),
(127,239,cs),
(140,239,o),
(154,249,o),
(157,266,cs),
(228,668,ls)
);
}
);
width = 231;
},
{
layerId = m002;
shapes = (
{
closed = 1;
nodes = (
(206,141,o),
(184,163,o),
(157,163,cs),
(134,163,o),
(107,146,o),
(102,119,cs),
(37,-248,ls),
(32,-276,o),
(53,-300,o),
(85,-300,cs),
(119,-300,o),
(132,-279,o),
(136,-258,cs),
(201,111,ls)
);
},
{
closed = 1;
nodes = (
(301,679,o),
(278,700,o),
(250,700,cs),
(228,700,o),
(202,683,o),
(197,655,cs),
(132,290,ls),
(126,259,o),
(150,236,o),
(178,238,cs),
(201,239,o),
(226,256,o),
(231,282,cs),
(295,643,ls)
);
}
);
width = 316;
}
);
metricLeft = N;
metricRight = N;
unicode = 166;
},
{
glyphname = dollar;
lastChange = "2022-03-08 22:48:52 +0000";
layers = (
{
layerId = m01;
shapes = (
{
closed = 1;
nodes = (
(288,0,o),
(462,17,o),
(462,153,cs),
(462,236,o),
(398,262,o),
(312,312,cs),
(246,350,o),
(181,381,o),
(181,425,cs),
(181,482,o),
(290,519,o),
(367,519,cs),
(510,519,ls),
(525,519,o),
(533,532,o),
(533,545,cs),
(533,557,o),
(525,569,o),
(506,569,cs),
(368,569,ls),
(236,569,o),
(131,503,o),
(131,420,cs),
(131,349,o),
(208,315,o),
(286,269,cs),
(362,225,o),
(412,206,o),
(412,152,cs),
(412,57,o),
(255,50,o),
(190,50,cs),
(87,50,ls),
(71,50,o),
(60,37,o),
(60,24,cs),
(60,12,o),
(68,0,o),
(87,0,cs),
(190,0,ls)
);
},
{
closed = 1;
nodes = (
(389,639,o),
(379,650,o),
(367,650,cs),
(356,650,o),
(343,641,o),
(340,622,cs),
(221,-52,ls),
(218,-71,o),
(228,-80,o),
(239,-80,cs),
(250,-80,o),
(263,-71,o),
(266,-54,cs),
(385,618,ls)
);
}
);
width = 530;
},
{
layerId = m002;
shapes = (
{
closed = 1;
nodes = (
(339,-4,o),
(525,13,o),
(525,161,cs),
(525,253,o),
(452,282,o),
(372,329,cs),
(310,365,o),
(261,388,o),
(261,417,cs),
(261,455,o),
(343,477,o),
(411,477,cs),
(545,477,ls),
(572,477,o),
(592,498,o),
(592,523,cs),
(592,548,o),
(572,568,o),
(541,568,cs),
(412,568,ls),
(277,568,o),
(164,504,o),
(164,412,cs),
(164,331,o),
(249,294,o),
(322,251,cs),
(395,209,o),
(428,197,o),
(428,160,cs),
(428,92,o),
(304,87,o),
(244,87,cs),
(148,87,ls),
(120,87,o),
(97,66,o),
(97,41,cs),
(97,16,o),
(117,-4,o),
(148,-4,cs),
(244,-4,ls)
);
},
{
closed = 1;
nodes = (
(460,629,o),
(437,650,o),
(411,650,cs),
(389,650,o),
(364,635,o),
(359,606,cs),
(248,-28,ls),
(242,-61,o),
(265,-80,o),
(290,-80,cs),
(312,-80,o),
(337,-65,o),
(342,-38,cs),
(454,594,ls)
);
}
);
width = 631;
}
);
metricLeft = O;
metricRight = O;
unicode = 36;
},
{
glyphname = plus;
lastChange = "2022-03-08 22:48:52 +0000";
layers = (
{
layerId = m01;
shapes = (
{
closed = 1;
nodes = (
(279,323,o),
(267,334,o),
(255,334,cs),
(245,334,o),
(235,327,o),
(232,311,cs),
(193,87,ls),
(190,68,o),
(202,57,o),
(214,57,cs),
(224,57,o),
(234,64,o),
(237,80,cs),
(276,304,ls)
);
},
{
closed = 1;
nodes = (
(366,175,o),
(375,187,o),
(375,198,cs),
(375,209,o),
(366,220,o),
(348,220,cs),
(121,220,ls),
(103,220,o),
(94,209,o),
(94,198,cs),
(94,187,o),
(103,175,o),
(121,175,cs),
(348,175,ls)
);
}
);
width = 459;
},
{
layerId = m002;
shapes = (
{
closed = 1;
nodes = (
(342,329,o),
(319,350,o),
(292,350,cs),
(272,350,o),
(250,337,o),
(245,310,cs),
(208,95,ls),
(203,62,o),
(226,41,o),
(253,41,cs),
(273,41,o),
(295,54,o),
(300,81,cs),
(337,296,ls)
);
},
{
closed = 1;
nodes = (
(412,154,o),
(432,174,o),
(432,198,cs),
(432,221,o),
(412,241,o),
(381,241,cs),
(164,241,ls),
(133,241,o),
(113,221,o),
(113,198,cs),
(113,174,o),
(133,154,o),
(164,154,cs),
(381,154,ls)
);
}
);
width = 537;
}
);
metricLeft = n;
metricRight = n;
unicode = 43;
},
{
glyphname = minus;
lastChange = "2022-03-08 22:48:52 +0000";
layers = (
{
layerId = m01;
shapes = (
{
closed = 1;
nodes = (
(366,175,o),
(375,187,o),
(375,198,cs),
(375,209,o),
(366,220,o),
(348,220,cs),
(121,220,ls),
(103,220,o),
(94,209,o),
(94,198,cs),
(94,186,o),
(103,175,o),
(121,175,cs),
(348,175,ls)
);
}
);
width = 459;
},
{
layerId = m002;
shapes = (
{
closed = 1;
nodes = (
(412,154,o),
(432,174,o),
(432,198,cs),
(432,222,o),
(412,241,o),
(381,241,cs),
(164,241,ls),
(133,241,o),
(113,222,o),
(113,198,cs),
(113,173,o),
(133,154,o),
(164,154,cs),
(381,154,ls)
);
}
);
width = 537;
}
);
metricLeft = n;
metricRight = n;
unicode = 8722;
},
{
glyphname = multiply;
lastChange = "2022-03-08 22:48:52 +0000";
layers = (
{
layerId = m01;
shapes = (
{
closed = 1;
nodes = (
(399,302,o),
(397,317,o),
(388,325,cs),
(379,334,o),
(363,337,o),
(349,325,cs),
(83,101,ls),
(71,91,o),
(73,76,o),
(81,67,cs),
(90,58,o),
(105,54,o),
(121,67,cs),
(385,290,ls)
);
},
{
closed = 1;
nodes = (
(148,336,o),
(133,335,o),
(124,327,cs),
(115,318,o),
(111,303,o),
(121,291,cs),
(310,69,ls),
(321,56,o),
(336,58,o),
(345,66,cs),
(355,74,o),
(359,89,o),
(348,102,cs),
(161,321,ls)
);
}
);
width = 460;
},
{
layerId = m002;
shapes = (
{
closed = 1;
nodes = (
(457,292,o),
(456,319,o),
(436,336,cs),
(419,351,o),
(388,355,o),
(365,337,cs),
(110,122,ls),
(88,102,o),
(88,78,o),
(104,59,cs),
(122,40,o),
(154,36,o),
(180,56,cs),
(434,270,l)
);
},
{
closed = 1;
nodes = (
(197,355,o),
(162,353,o),
(145,335,cs),
(130,317,o),
(126,294,o),
(144,273,cs),
(325,59,l),
(345,38,o),
(378,40,o),
(395,55,cs),
(414,72,o),
(419,97,o),
(399,120,cs),
(220,331,l)
);
}
);
width = 537;
}
);
metricLeft = n;
metricRight = n;
unicode = 215;
},
{
glyphname = divide;
lastChange = "2022-03-08 22:48:52 +0000";
layers = (
{
layerId = m01;
shapes = (
{
closed = 1;
nodes = (
(383,175,o),
(385,220,o),
(348,220,cs),
(121,220,ls),
(84,220,o),
(86,175,o),
(121,175,cs),
(348,175,ls)
);
},
{
closed = 1;
nodes = (
(232,57,o),
(248,73,o),
(248,90,cs),
(248,108,o),
(231,122,o),
(214,122,cs),
(195,122,o),
(183,106,o),
(183,90,cs),
(183,73,o),
(196,57,o),
(214,57,cs)
);
},
{
closed = 1;
nodes = (
(270,273,o),
(286,289,o),
(286,306,cs),
(286,323,o),
(270,338,o),
(253,338,cs),
(235,338,o),
(221,322,o),
(221,306,cs),
(221,290,o),
(235,273,o),
(253,273,cs)
);
}
);
width = 459;
},
{
layerId = m002;
shapes = (
{
closed = 1;
nodes = (
(446,154,o),
(449,241,o),
(380,241,cs),
(163,241,ls),
(94,241,o),
(97,154,o),
(163,154,cs),
(380,154,ls)
);
},
{
closed = 1;
nodes = (
(279,16,o),
(306,40,o),
(306,69,cs),
(306,100,o),
(278,122,o),
(249,122,cs),
(218,122,o),
(194,98,o),
(194,69,cs),
(194,40,o),
(219,16,o),
(249,16,cs)
);
},
{
closed = 1;
nodes = (
(325,273,o),
(352,297,o),
(352,327,cs),
(352,356,o),
(325,379,o),
(295,379,cs),
(265,379,o),
(240,355,o),
(240,327,cs),
(240,298,o),
(265,273,o),
(295,273,cs)
);
}
);
width = 535;
}
);
metricLeft = n;
metricRight = n;
unicode = 247;
},
{
glyphname = equal;
lastChange = "2022-03-08 22:48:52 +0000";
layers = (
{
layerId = m01;
shapes = (
{
closed = 1;
nodes = (
(379,248,o),
(388,260,o),
(388,271,cs),
(388,282,o),
(379,293,o),
(361,293,cs),
(134,293,ls),
(116,293,o),
(107,282,o),
(107,271,cs),
(107,260,o),
(116,248,o),
(134,248,cs),
(361,248,ls)
);
},
{
closed = 1;
nodes = (
(353,97,o),
(362,108,o),
(362,120,cs),
(362,131,o),
(353,142,o),
(335,142,cs),
(108,142,ls),
(90,142,o),
(81,131,o),
(81,120,cs),
(81,109,o),
(90,97,o),
(108,97,cs),
(335,97,ls)
);
}
);
width = 460;
},
{
layerId = m002;
shapes = (
{
closed = 1;
nodes = (
(428,248,o),
(449,266,o),
(449,290,cs),
(449,314,o),
(428,333,o),
(398,333,cs),
(180,333,ls),
(150,333,o),
(129,314,o),
(129,290,cs),
(129,266,o),
(150,248,o),
(180,248,cs),
(398,248,ls)
);
},
{
closed = 1;
nodes = (
(402,97,o),
(423,116,o),
(423,141,cs),
(423,165,o),
(402,182,o),
(372,182,cs),
(154,182,ls),
(124,182,o),
(103,165,o),
(103,141,cs),
(103,117,o),
(124,97,o),
(154,97,cs),
(372,97,ls)
);
}
);
width = 538;
}
);
metricLeft = n;
metricRight = n;
unicode = 61;
},
{
glyphname = notequal;
lastChange = "2022-03-08 22:48:52 +0000";
layers = (
{
layerId = m01;
shapes = (
{
closed = 1;
nodes = (
(326,337,o),
(314,350,o),
(300,350,cs),
(290,350,o),
(280,345,o),
(274,333,cs),
(153,72,ls),
(145,54,o),
(153,42,o),
(164,38,cs),
(174,35,o),
(187,38,o),
(193,51,cs),
(314,312,ls)
);
},
{
closed = 1;
nodes = (
(353,97,o),
(362,108,o),
(362,120,cs),
(362,131,o),
(353,142,o),
(335,142,cs),
(108,142,ls),
(90,142,o),
(81,131,o),
(81,120,cs),
(81,109,o),
(90,97,o),
(108,97,cs),
(335,97,ls)
);
},
{
closed = 1;
nodes = (
(379,248,o),
(388,260,o),
(388,271,cs),
(388,282,o),
(379,293,o),
(361,293,cs),
(134,293,ls),
(116,293,o),
(107,282,o),
(107,271,cs),
(107,260,o),
(116,248,o),
(134,248,cs),
(361,248,ls)
);
}
);
width = 460;
},
{
layerId = m002;
shapes = (
{
closed = 1;
nodes = (
(410,376,o),
(382,401,o),
(353,401,cs),
(336,401,o),
(314,391,o),
(305,372,cs),
(160,60,ls),
(146,30,o),
(161,8,o),
(186,-1,cs),
(206,-7,o),
(234,-1,o),
(245,22,cs),
(390,333,ls)
);
},
{
closed = 1;
nodes = (
(402,97,o),
(423,116,o),
(423,141,cs),
(423,165,o),
(402,182,o),
(372,182,cs),
(154,182,ls),
(124,182,o),
(103,165,o),
(103,141,cs),
(103,117,o),
(124,97,o),
(154,97,cs),
(372,97,ls)
);
},
{
closed = 1;
nodes = (
(428,248,o),
(449,266,o),
(449,290,cs),
(449,314,o),
(428,333,o),
(398,333,cs),
(180,333,ls),
(150,333,o),
(129,314,o),
(129,290,cs),
(129,266,o),
(150,248,o),
(180,248,cs),
(398,248,ls)
);
}
);
width = 538;
}
);
metricLeft = n;
metricRight = n;
unicode = 8800;
},
{
glyphname = greater;
lastChange = "2022-03-08 22:48:52 +0000";
layers = (
{
layerId = m01;
shapes = (
{
closed = 1;
nodes = (
(309,216,l),
(94,103,ls),
(74,93,o),
(71,81,o),
(75,70,cs),
(79,60,o),
(90,50,o),
(109,60,cs),
(335,179,l)
);
},
{
closed = 1;
nodes = (
(323,171,o),
(334,176,o),
(341,186,cs),
(349,197,o),
(349,207,o),
(334,217,cs),
(157,330,ls),
(141,340,o),
(128,339,o),
(120,329,cs),
(112,318,o),
(115,304,o),
(130,294,cs),
(308,181,ls)
);
}
);
width = 430;
},
{
layerId = m002;
shapes = (
{
closed = 1;
nodes = (
(351,245,l),
(126,127,ls),
(96,112,o),
(88,92,o),
(94,70,cs),
(101,46,o),
(131,30,o),
(162,45,cs),
(403,173,l)
);
},
{
closed = 1;
nodes = (
(351,147,o),
(382,154,o),
(396,176,cs),
(409,198,o),
(406,218,o),
(381,235,cs),
(210,344,ls),
(185,359,o),
(156,355,o),
(142,337,cs),
(126,315,o),
(131,291,o),
(156,272,c),
(327,164,l)
);
}
);
width = 511;
}
);
metricLeft = n;
metricRight = n;
unicode = 62;
},
{
glyphname = less;
lastChange = "2022-03-08 22:48:52 +0000";
layers = (
{
layerId = m01;
shapes = (
{
closed = 1;
nodes = (
(346,290,ls),
(366,300,o),
(369,312,o),
(365,323,cs),
(361,333,o),
(350,343,o),
(331,333,cs),
(105,214,l),
(131,177,l)
);
},
{
closed = 1;
nodes = (
(299,53,o),
(312,54,o),
(320,64,cs),
(328,75,o),
(325,89,o),
(310,99,cs),
(132,212,ls),
(117,222,o),
(106,217,o),
(99,207,cs),
(91,196,o),
(91,186,o),
(106,176,cs),
(283,63,ls)
);
}
);
width = 430;
},
{
layerId = m002;
shapes = (
{
closed = 1;
nodes = (
(393,266,ls),
(423,281,o),
(431,301,o),
(425,323,cs),
(418,347,o),
(388,363,o),
(357,348,cs),
(116,220,l),
(168,148,l)
);
},
{
closed = 1;
nodes = (
(334,34,o),
(363,38,o),
(377,56,cs),
(393,78,o),
(388,102,o),
(363,121,c),
(192,229,l),
(168,246,o),
(137,239,o),
(123,217,cs),
(110,195,o),
(113,175,o),
(138,158,cs),
(309,49,ls)
);
}
);
width = 512;
}
);
metricLeft = n;
metricRight = n;
unicode = 60;
},
{
glyphname = greaterequal;
lastChange = "2022-03-08 22:48:52 +0000";
layers = (
{
layerId = m01;
shapes = (
{
closed = 1;
nodes = (
(334,198,o),
(345,202,o),
(352,212,cs),
(360,223,o),
(360,233,o),
(345,243,cs),
(162,360,ls),
(146,370,o),
(133,369,o),
(125,359,cs),
(117,348,o),
(120,334,o),
(135,324,cs),
(319,207,ls)
);
},
{
closed = 1;
nodes = (
(332,97,o),
(341,108,o),
(341,120,cs),
(341,131,o),
(332,142,o),
(314,142,cs),
(110,142,ls),
(92,142,o),
(83,131,o),
(83,120,cs),
(83,109,o),
(92,97,o),
(110,97,cs),
(314,97,ls)
);
},
{
closed = 1;
nodes = (
(337,248,l),
(131,248,ls),
(109,248,o),
(101,239,o),
(99,227,cs),
(98,216,o),
(103,202,o),
(125,202,cs),
(338,202,l)
);
}
);
width = 439;
},
{
layerId = m002;
shapes = (
{
closed = 1;
nodes = (
(370,197,o),
(397,200,o),
(410,219,cs),
(425,241,o),
(423,261,o),
(398,279,c),
(220,393,ls),
(192,411,o),
(164,403,o),
(152,386,cs),
(136,364,o),
(143,344,o),
(168,325,c),
(347,212,ls)
);
},
{
closed = 1;
nodes = (
(373,57,o),
(393,75,o),
(393,99,cs),
(393,123,o),
(373,142,o),
(342,142,cs),
(146,142,ls),
(116,142,o),
(95,122,o),
(95,98,cs),
(95,75,o),
(116,57,o),
(146,57,cs),
(342,57,ls)
);
},
{
closed = 1;
nodes = (
(376,287,l),
(177,287,ls),
(143,287,o),
(124,271,o),
(121,247,cs),
(119,223,o),
(136,202,o),
(171,202,cs),
(378,202,l)
);
}
);
width = 516;
}
);
metricLeft = n;
metricRight = n;
unicode = 8805;
},
{
glyphname = lessequal;
lastChange = "2022-03-08 22:48:52 +0000";
layers = (
{
layerId = m01;
shapes = (
{
closed = 1;
nodes = (
(381,332,o),
(383,348,o),
(375,359,cs),
(367,369,o),
(355,369,o),
(338,360,cs),
(112,243,ls),
(97,235,o),
(97,223,o),
(105,212,cs),
(112,202,o),
(123,199,o),
(138,207,cs),
(365,324,ls)
);
},
{
closed = 1;
nodes = (
(331,97,o),
(340,109,o),
(340,120,cs),
(340,131,o),
(331,142,o),
(313,142,cs),
(109,142,ls),
(91,142,o),
(82,131,o),
(82,120,cs),
(82,108,o),
(91,97,o),
(109,97,cs),
(313,97,ls)
);
},
{
closed = 1;
nodes = (
(332,202,ls),
(348,202,o),
(358,213,o),
(358,225,cs),
(359,236,o),
(349,248,o),
(326,248,cs),
(120,248,l),
(119,202,l)
);
}
);
width = 438;
},
{
layerId = m002;
shapes = (
{
closed = 1;
nodes = (
(441,337,o),
(449,362,o),
(432,386,cs),
(420,403,o),
(394,408,o),
(365,393,cs),
(148,281,ls),
(120,266,o),
(116,242,o),
(132,221,cs),
(145,201,o),
(170,197,o),
(195,210,cs),
(413,322,ls)
);
},
{
closed = 1;
nodes = (
(372,57,o),
(393,75,o),
(393,98,cs),
(393,122,o),
(372,142,o),
(342,142,cs),
(146,142,ls),
(116,142,o),
(95,122,o),
(95,98,cs),
(95,74,o),
(116,57,o),
(146,57,cs),
(342,57,ls)
);
},
{
closed = 1;
nodes = (
(370,202,ls),
(398,202,o),
(420,222,o),
(420,245,cs),
(422,272,o),
(396,287,o),
(364,287,cs),
(171,287,l),
(169,202,l)
);
}
);
width = 517;
}
);
metricLeft = n;
metricRight = n;
unicode = 8804;
},
{
glyphname = plusminus;
lastChange = "2022-03-08 22:48:52 +0000";
layers = (
{
layerId = m01;
shapes = (
{
closed = 1;
nodes = (
(273,364,o),
(261,375,o),
(249,375,cs),
(239,375,o),
(229,368,o),
(226,352,cs),
(198,196,ls),
(195,177,o),
(207,166,o),
(219,166,cs),
(229,166,o),
(239,173,o),
(242,189,cs),
(270,345,ls)
);
},
{
closed = 1;
nodes = (
(323,97,o),
(332,108,o),
(332,120,cs),
(332,131,o),
(323,142,o),
(305,142,cs),
(108,142,ls),
(90,142,o),
(81,131,o),
(81,120,cs),
(81,109,o),
(90,97,o),
(108,97,cs),
(305,97,ls)
);
},
{
closed = 1;
nodes = (
(349,248,o),
(358,260,o),
(358,271,cs),
(358,282,o),
(349,293,o),
(331,293,cs),
(134,293,ls),
(116,293,o),
(107,282,o),
(107,271,cs),
(107,260,o),
(116,248,o),
(134,248,cs),
(331,248,ls)
);
}
);
width = 430;
},
{
layerId = m002;
shapes = (
{
closed = 1;
nodes = (
(341,390,o),
(316,411,o),
(290,411,cs),
(269,411,o),
(248,398,o),
(243,371,cs),
(216,222,ls),
(210,188,o),
(235,167,o),
(261,167,cs),
(282,167,o),
(303,181,o),
(308,207,cs),
(335,357,ls)
);
},
{
closed = 1;
nodes = (
(368,57,o),
(389,74,o),
(389,99,cs),
(389,122,o),
(368,142,o),
(338,142,cs),
(148,142,ls),
(118,142,o),
(98,122,o),
(98,99,cs),
(98,75,o),
(118,57,o),
(148,57,cs),
(338,57,ls)
);
},
{
closed = 1;
nodes = (
(399,248,o),
(419,266,o),
(419,290,cs),
(419,313,o),
(399,333,o),
(369,333,cs),
(179,333,ls),
(149,333,o),
(129,313,o),
(129,290,cs),
(129,266,o),
(149,248,o),
(179,248,cs),
(369,248,ls)
);
}
);
width = 511;
}
);
metricLeft = n;
metricRight = n;
unicode = 177;
},
{
glyphname = approxequal;
lastChange = "2022-03-08 22:48:52 +0000";
layers = (
{
layerId = m01;
shapes = (
{
closed = 1;
nodes = (
(321,227,o),
(341,237,o),
(362,246,cs),
(380,254,o),
(388,260,o),
(388,271,cs),
(388,282,o),
(376,302,o),
(359,294,cs),
(340,285,o),
(327,272,o),
(297,272,cs),
(269,272,o),
(226,310,o),
(195,310,cs),
(169,310,o),
(152,301,o),
(134,294,cs),
(116,287,o),
(107,282,o),
(107,271,cs),
(107,259,o),
(117,238,o),
(135,246,cs),
(150,253,o),
(164,265,o),
(187,265,cs),
(218,265,o),
(261,227,o),
(289,227,cs)
);
},
{
closed = 1;
nodes = (
(295,76,o),
(315,86,o),
(336,95,cs),
(354,103,o),
(362,109,o),
(362,120,cs),
(362,131,o),
(350,151,o),
(333,143,cs),
(314,134,o),
(301,121,o),
(271,121,cs),
(243,121,o),
(200,159,o),
(169,159,cs),
(143,159,o),
(126,150,o),
(108,143,cs),
(90,136,o),
(81,131,o),
(81,120,cs),
(81,108,o),
(91,87,o),
(109,95,cs),
(124,102,o),
(138,114,o),
(161,114,cs),
(192,114,o),
(235,76,o),
(263,76,cs)
);
}
);
width = 460;
},
{
layerId = m002;
shapes = (
{
closed = 1;
nodes = (
(366,229,o),
(391,241,o),
(409,249,cs),
(437,262,o),
(449,273,o),
(449,293,cs),
(449,321,o),
(417,351,o),
(385,335,cs),
(361,323,o),
(356,316,o),
(337,316,cs),
(320,316,o),
(278,352,o),
(239,352,cs),
(208,352,o),
(186,342,o),
(170,335,cs),
(143,324,o),
(129,313,o),
(129,293,cs),
(129,261,o),
(161,234,o),
(192,249,cs),
(210,258,o),
(218,265,o),
(231,265,cs),
(251,265,o),
(292,229,o),
(329,229,cs)
);
},
{
closed = 1;
nodes = (
(332,35,o),
(357,47,o),
(375,55,cs),
(403,68,o),
(415,79,o),
(415,99,cs),
(415,127,o),
(383,157,o),
(351,141,cs),
(327,129,o),
(322,122,o),
(303,122,cs),
(286,122,o),
(244,158,o),
(205,158,cs),
(174,158,o),
(152,148,o),
(136,141,cs),
(109,130,o),
(95,119,o),
(95,99,cs),
(95,67,o),
(127,40,o),
(158,55,cs),
(176,64,o),
(184,71,o),
(197,71,cs),
(217,71,o),
(258,35,o),
(295,35,cs)
);
}
);
width = 537;
}
);
metricLeft = n;
metricRight = n;
unicode = 8776;
},
{
glyphname = asciicircum;
lastChange = "2022-03-08 22:48:52 +0000";
layers = (
{
layerId = m01;
shapes = (
{
closed = 1;
nodes = (
(342,619,o),
(340,634,o),
(331,642,cs),
(322,651,o),
(306,654,o),
(292,642,cs),
(159,531,ls),
(147,521,o),
(149,506,o),
(157,497,cs),
(166,488,o),
(181,484,o),
(197,497,cs),
(328,607,ls)
);
},
{
closed = 1;
nodes = (
(293,609,l),
(386,499,ls),
(397,486,o),
(412,488,o),
(421,496,cs),
(431,504,o),
(434,520,o),
(424,532,cs),
(332,641,l)
);
}
);
width = 461;
},
{
layerId = m002;
shapes = (
{
closed = 1;
nodes = (
(413,590,o),
(411,617,o),
(393,635,cs),
(376,653,o),
(342,657,o),
(319,638,cs),
(186,527,ls),
(162,507,o),
(166,481,o),
(179,464,cs),
(197,442,o),
(232,439,o),
(256,459,cs),
(387,569,ls)
);
},
{
closed = 1;
nodes = (
(318,573,l),
(410,464,ls),
(429,441,o),
(464,443,o),
(482,460,cs),
(501,477,o),
(505,502,o),
(486,525,cs),
(393,635,l)
);
}
);
width = 547;
}
);
metricLeft = N;
metricRight = N;
unicode = 94;
},
